{"glyphs":{"0":{"ha":754,"x_min":71,"x_max":704,"o":"m 356 -7 q 145 82 219 -7 q 71 336 71 171 q 115 584 71 476 q 237 751 158 692 q 419 811 315 811 q 630 722 556 811 q 704 468 704 633 q 660 220 704 328 q 538 53 617 113 q 356 -7 460 -7 m 369 149 q 488 232 444 149 q 531 458 531 315 q 499 605 531 554 q 406 656 467 656 q 288 572 331 656 q 244 344 244 488 q 276 199 244 249 q 369 149 307 149 z "},"1":{"ha":522,"x_min":78,"x_max":460,"o":"m 272 -7 q 211 14 238 -7 q 185 79 185 35 l 186 94 q 223 392 201 238 q 260 631 244 547 l 151 600 l 135 597 q 93 618 108 597 q 78 665 78 639 l 79 678 q 96 721 82 704 q 149 754 110 738 q 268 790 189 771 l 326 804 q 379 811 358 811 q 440 790 419 811 q 460 732 460 769 q 456 696 460 715 q 371 79 433 588 q 272 -7 360 -7 z "},"2":{"ha":778,"x_min":64,"x_max":721,"o":"m 661 156 q 706 136 690 156 q 721 88 721 117 q 698 23 721 51 q 636 -6 675 -6 q 438 4 569 -6 q 340 10 411 6 q 229 14 269 14 q 176 1 211 14 q 149 -6 169 0 q 115 -11 129 -11 q 78 9 93 -11 q 64 69 64 29 q 85 138 64 114 q 150 182 106 163 q 328 288 244 224 q 463 428 413 353 q 514 571 514 503 q 490 651 514 625 q 413 676 465 676 q 315 643 351 676 q 278 550 278 610 q 196 468 278 468 q 135 490 157 468 q 114 554 114 513 q 150 682 114 624 q 258 776 186 740 q 435 811 331 811 q 631 749 560 811 q 701 575 701 686 q 609 354 701 469 q 343 150 517 239 l 661 156 z "},"3":{"ha":722,"x_min":39,"x_max":675,"o":"m 493 396 q 612 338 564 386 q 660 215 660 289 q 617 94 660 144 q 501 19 574 44 q 342 -7 428 -7 q 115 46 190 -7 q 39 178 39 99 q 61 249 39 224 q 121 275 83 275 q 169 259 153 275 q 196 204 185 243 q 236 147 206 167 q 331 128 267 128 q 431 151 392 128 q 471 221 471 174 q 433 292 471 269 q 317 318 396 315 q 273 338 288 319 q 258 383 258 357 q 270 431 258 417 q 311 451 282 446 q 444 505 403 465 q 485 600 485 544 q 379 676 485 676 q 242 585 263 676 q 213 531 232 547 q 161 515 194 515 q 103 537 124 515 q 83 594 83 558 q 122 700 83 650 q 233 781 161 750 q 400 811 304 811 q 604 760 533 811 q 675 607 675 708 q 624 483 675 540 q 493 396 574 425 z "},"4":{"ha":801,"x_min":67,"x_max":767,"o":"m 693 313 q 767 250 767 313 q 739 181 767 200 q 651 161 711 161 l 622 161 l 617 88 q 590 1 613 24 q 515 -21 567 -21 q 442 69 442 -21 q 443 93 442 85 l 450 161 q 144 163 249 161 q 90 190 114 163 q 67 263 67 218 q 76 318 67 289 q 260 722 138 496 q 313 791 286 771 q 397 811 340 811 q 444 797 428 811 q 460 761 460 783 q 446 714 460 738 q 254 313 310 465 l 468 313 q 514 558 485 442 q 550 624 525 601 q 619 647 575 647 q 690 586 690 647 q 688 558 690 568 q 643 313 663 440 l 693 313 z "},"5":{"ha":719,"x_min":64,"x_max":694,"o":"m 394 663 q 336 661 354 663 q 296 494 318 600 q 568 421 475 485 q 661 247 661 357 q 624 117 661 175 q 517 26 588 60 q 350 -7 446 -7 q 142 43 221 -7 q 64 178 64 93 q 85 249 64 224 q 146 275 107 275 q 193 259 176 275 q 221 204 210 243 q 364 119 244 119 q 449 151 415 119 q 482 228 482 182 q 222 358 482 350 q 142 376 167 360 q 118 428 118 393 q 122 463 118 444 l 138 529 q 165 653 146 569 l 163 653 q 118 666 135 653 q 101 703 101 679 q 168 792 101 771 q 393 811 231 811 q 563 808 510 811 q 644 797 615 804 q 683 778 672 790 q 694 743 694 767 q 676 676 694 696 q 613 656 657 656 q 526 658 590 656 q 394 663 410 663 z "},"6":{"ha":751,"x_min":69,"x_max":715,"o":"m 444 674 q 313 610 364 674 q 250 422 263 547 q 332 481 286 464 q 433 499 378 499 q 558 469 503 499 q 643 388 613 440 q 674 272 674 336 q 637 130 674 193 q 530 30 600 67 q 364 -7 460 -7 q 145 83 221 -7 q 69 331 69 172 q 117 581 69 472 q 253 751 165 690 q 460 811 342 811 q 635 762 567 811 q 714 632 704 713 l 715 617 q 692 560 715 581 q 628 540 669 540 q 578 556 597 540 q 546 611 560 572 q 509 657 535 640 q 444 674 483 674 m 392 360 q 299 326 332 360 q 265 238 265 293 q 293 158 265 188 q 371 129 321 129 q 460 165 426 129 q 494 257 494 200 q 467 332 494 304 q 392 360 439 360 z "},"7":{"ha":690,"x_min":63,"x_max":719,"o":"m 668 808 q 705 788 690 808 q 719 728 719 768 q 704 672 719 690 q 666 638 689 653 q 633 615 643 622 q 428 383 486 514 q 358 104 371 253 q 327 19 353 46 q 263 -7 301 -7 q 197 20 224 -7 q 171 115 171 47 q 201 290 171 194 q 297 479 231 385 q 464 647 363 574 l 122 642 q 78 661 93 642 q 63 710 63 681 q 85 774 63 746 q 147 803 108 803 q 346 793 215 803 q 443 788 372 792 q 554 783 514 783 q 607 796 572 783 q 634 803 614 797 q 668 808 654 808 z "},"8":{"ha":711,"x_min":56,"x_max":678,"o":"m 525 413 q 661 226 661 343 q 622 104 661 157 q 510 22 582 51 q 342 -7 438 -7 q 131 46 207 -7 q 56 193 56 99 q 92 303 56 253 q 208 396 128 353 q 133 476 158 429 q 107 574 107 522 q 190 748 107 685 q 417 811 274 811 q 606 760 535 811 q 678 621 678 708 q 642 506 678 557 q 525 413 606 456 m 406 676 q 313 652 347 676 q 278 582 278 628 q 383 471 278 519 q 483 536 454 506 q 511 600 511 567 q 406 676 511 676 m 349 128 q 451 150 414 128 q 489 211 489 172 q 456 269 489 242 q 336 336 424 297 q 247 276 272 307 q 222 210 222 246 q 256 149 222 171 q 349 128 290 128 z "},"9":{"ha":751,"x_min":56,"x_max":701,"o":"m 407 811 q 626 722 550 811 q 701 474 701 632 q 653 223 701 332 q 517 53 606 114 q 311 -7 429 -7 q 135 42 204 -7 q 57 172 67 92 l 56 188 q 78 244 56 224 q 143 264 101 264 q 192 248 174 264 q 225 193 211 232 q 262 147 236 164 q 326 131 288 131 q 458 194 407 131 q 521 382 508 257 q 439 323 485 340 q 338 306 393 306 q 213 335 268 306 q 128 416 158 364 q 97 532 97 468 q 134 674 97 611 q 241 774 171 738 q 407 811 311 811 m 379 444 q 472 478 439 444 q 506 567 506 511 q 478 646 506 617 q 400 675 450 675 q 310 640 344 675 q 276 547 276 604 q 304 472 276 500 q 379 444 332 444 z "},"\u0000":{"ha":0,"x_min":0,"x_max":0,"o":""},"\r":{"ha":368,"x_min":0,"x_max":0,"o":""}," ":{"ha":368,"x_min":0,"x_max":0,"o":""},"A":{"ha":1092,"x_min":78,"x_max":1271,"o":"m 417 -7 q 244 40 321 -7 q 122 177 167 88 q 78 389 78 267 q 168 780 78 600 q 435 1069 258 960 q 858 1178 611 1178 q 995 1168 922 1178 q 1128 1139 1068 1158 q 1167 1083 1167 1128 q 1140 1015 1167 1047 q 1076 983 1113 983 q 1060 985 1065 983 q 936 1009 988 1001 q 828 1017 885 1017 q 528 931 651 1017 q 343 706 404 846 q 282 403 282 565 q 328 220 282 285 q 450 156 375 156 q 599 225 535 156 q 715 450 663 294 q 819 872 768 606 q 853 925 828 911 q 919 939 878 939 q 1018 875 1018 939 q 1014 847 1018 864 q 948 549 978 713 q 918 301 918 386 q 940 192 918 226 q 1008 158 963 158 q 1093 188 1053 158 q 1194 290 1133 218 q 1232 310 1211 310 q 1260 293 1250 310 q 1271 247 1271 276 q 1244 161 1271 193 q 1111 36 1176 79 q 951 -7 1046 -7 q 794 49 854 -7 q 719 208 735 106 q 417 -7 617 -7 z "},"Á":{"ha":1092,"x_min":78,"x_max":1271,"o":"m 417 -7 q 244 40 321 -7 q 122 177 167 88 q 78 389 78 267 q 168 780 78 600 q 435 1069 258 960 q 858 1178 611 1178 q 995 1168 922 1178 q 1128 1139 1068 1158 q 1167 1083 1167 1128 q 1140 1015 1167 1047 q 1076 983 1113 983 q 1060 985 1065 983 q 936 1009 988 1001 q 828 1017 885 1017 q 528 931 651 1017 q 343 706 404 846 q 282 403 282 565 q 328 220 282 285 q 450 156 375 156 q 599 225 535 156 q 715 450 663 294 q 819 872 768 606 q 853 925 828 911 q 919 939 878 939 q 1018 875 1018 939 q 1014 847 1018 864 q 948 549 978 713 q 918 301 918 386 q 940 192 918 226 q 1008 158 963 158 q 1093 188 1053 158 q 1194 290 1133 218 q 1232 310 1211 310 q 1260 293 1250 310 q 1271 247 1271 276 q 1244 161 1271 193 q 1111 36 1176 79 q 951 -7 1046 -7 q 794 49 854 -7 q 719 208 735 106 q 417 -7 617 -7 m 833 1267 q 796 1281 811 1267 q 781 1317 781 1296 q 807 1367 781 1344 l 1046 1571 q 1107 1594 1074 1594 q 1169 1569 1143 1594 q 1196 1507 1196 1543 q 1122 1408 1196 1447 l 863 1274 q 833 1267 850 1267 z "},"Ă":{"ha":1092,"x_min":78,"x_max":1271,"o":"m 417 -7 q 244 40 321 -7 q 122 177 167 88 q 78 389 78 267 q 168 780 78 600 q 435 1069 258 960 q 858 1178 611 1178 q 995 1168 922 1178 q 1128 1139 1068 1158 q 1167 1083 1167 1128 q 1140 1015 1167 1047 q 1076 983 1113 983 q 1060 985 1065 983 q 936 1009 988 1001 q 828 1017 885 1017 q 528 931 651 1017 q 343 706 404 846 q 282 403 282 565 q 328 220 282 285 q 450 156 375 156 q 599 225 535 156 q 715 450 663 294 q 819 872 768 606 q 853 925 828 911 q 919 939 878 939 q 1018 875 1018 939 q 1014 847 1018 864 q 948 549 978 713 q 918 301 918 386 q 940 192 918 226 q 1008 158 963 158 q 1093 188 1053 158 q 1194 290 1133 218 q 1232 310 1211 310 q 1260 293 1250 310 q 1271 247 1271 276 q 1244 161 1271 193 q 1111 36 1176 79 q 951 -7 1046 -7 q 794 49 854 -7 q 719 208 735 106 q 417 -7 617 -7 m 842 1267 q 692 1295 756 1267 q 597 1369 629 1324 q 564 1461 564 1414 q 588 1507 564 1490 q 646 1524 611 1524 q 690 1513 674 1524 q 717 1478 706 1503 q 768 1417 738 1433 q 853 1400 799 1400 q 940 1420 907 1400 q 1001 1482 974 1440 q 1081 1524 1029 1524 q 1124 1510 1107 1524 q 1140 1471 1140 1496 q 1104 1378 1140 1426 q 1000 1299 1068 1331 q 842 1267 932 1267 z "},"Ắ":{"ha":1092,"x_min":78,"x_max":1271,"o":"m 417 -7 q 244 40 321 -7 q 122 177 167 88 q 78 389 78 267 q 168 780 78 600 q 435 1069 258 960 q 858 1178 611 1178 q 995 1168 922 1178 q 1128 1139 1068 1158 q 1167 1083 1167 1128 q 1140 1015 1167 1047 q 1076 983 1113 983 q 1060 985 1065 983 q 936 1009 988 1001 q 828 1017 885 1017 q 528 931 651 1017 q 343 706 404 846 q 282 403 282 565 q 328 220 282 285 q 450 156 375 156 q 599 225 535 156 q 715 450 663 294 q 819 872 768 606 q 853 925 828 911 q 919 939 878 939 q 1018 875 1018 939 q 1014 847 1018 864 q 948 549 978 713 q 918 301 918 386 q 940 192 918 226 q 1008 158 963 158 q 1093 188 1053 158 q 1194 290 1133 218 q 1232 310 1211 310 q 1260 293 1250 310 q 1271 247 1271 276 q 1244 161 1271 193 q 1111 36 1176 79 q 951 -7 1046 -7 q 794 49 854 -7 q 719 208 735 106 q 417 -7 617 -7 m 863 1507 q 831 1519 843 1507 q 818 1550 818 1532 q 840 1592 818 1569 l 950 1701 q 1001 1724 972 1724 q 1055 1701 1032 1724 q 1078 1647 1078 1678 q 1063 1600 1078 1622 q 1015 1564 1049 1578 l 888 1513 q 863 1507 871 1507 m 842 1267 q 692 1295 756 1267 q 597 1369 629 1324 q 564 1461 564 1414 q 588 1507 564 1490 q 646 1524 611 1524 q 690 1513 674 1524 q 717 1478 706 1503 q 768 1417 738 1433 q 853 1400 799 1400 q 940 1420 907 1400 q 1001 1482 974 1440 q 1081 1524 1029 1524 q 1124 1510 1107 1524 q 1140 1471 1140 1496 q 1104 1378 1140 1426 q 1000 1299 1068 1331 q 842 1267 932 1267 z "},"Ặ":{"ha":1092,"x_min":78,"x_max":1271,"o":"m 417 -7 q 244 40 321 -7 q 122 177 167 88 q 78 389 78 267 q 168 780 78 600 q 435 1069 258 960 q 858 1178 611 1178 q 995 1168 922 1178 q 1128 1139 1068 1158 q 1167 1083 1167 1128 q 1140 1015 1167 1047 q 1076 983 1113 983 q 1060 985 1065 983 q 936 1009 988 1001 q 828 1017 885 1017 q 528 931 651 1017 q 343 706 404 846 q 282 403 282 565 q 328 220 282 285 q 450 156 375 156 q 599 225 535 156 q 715 450 663 294 q 819 872 768 606 q 853 925 828 911 q 919 939 878 939 q 1018 875 1018 939 q 1014 847 1018 864 q 948 549 978 713 q 918 301 918 386 q 940 192 918 226 q 1008 158 963 158 q 1093 188 1053 158 q 1194 290 1133 218 q 1232 310 1211 310 q 1260 293 1250 310 q 1271 247 1271 276 q 1244 161 1271 193 q 1111 36 1176 79 q 951 -7 1046 -7 q 794 49 854 -7 q 719 208 735 106 q 417 -7 617 -7 m 497 -322 q 408 -294 439 -322 q 378 -217 378 -265 q 417 -133 378 -167 q 514 -100 457 -100 q 599 -126 567 -100 q 632 -199 632 -151 q 594 -289 632 -256 q 497 -322 557 -322 m 842 1267 q 692 1295 756 1267 q 597 1369 629 1324 q 564 1461 564 1414 q 588 1507 564 1490 q 646 1524 611 1524 q 690 1513 674 1524 q 717 1478 706 1503 q 768 1417 738 1433 q 853 1400 799 1400 q 940 1420 907 1400 q 1001 1482 974 1440 q 1081 1524 1029 1524 q 1124 1510 1107 1524 q 1140 1471 1140 1496 q 1104 1378 1140 1426 q 1000 1299 1068 1331 q 842 1267 932 1267 z "},"Ằ":{"ha":1092,"x_min":78,"x_max":1271,"o":"m 417 -7 q 244 40 321 -7 q 122 177 167 88 q 78 389 78 267 q 168 780 78 600 q 435 1069 258 960 q 858 1178 611 1178 q 995 1168 922 1178 q 1128 1139 1068 1158 q 1167 1083 1167 1128 q 1140 1015 1167 1047 q 1076 983 1113 983 q 1060 985 1065 983 q 936 1009 988 1001 q 828 1017 885 1017 q 528 931 651 1017 q 343 706 404 846 q 282 403 282 565 q 328 220 282 285 q 450 156 375 156 q 599 225 535 156 q 715 450 663 294 q 819 872 768 606 q 853 925 828 911 q 919 939 878 939 q 1018 875 1018 939 q 1014 847 1018 864 q 948 549 978 713 q 918 301 918 386 q 940 192 918 226 q 1008 158 963 158 q 1093 188 1053 158 q 1194 290 1133 218 q 1232 310 1211 310 q 1260 293 1250 310 q 1271 247 1271 276 q 1244 161 1271 193 q 1111 36 1176 79 q 951 -7 1046 -7 q 794 49 854 -7 q 719 208 735 106 q 417 -7 617 -7 m 875 1507 q 850 1513 867 1507 l 722 1564 q 674 1600 689 1578 q 660 1647 660 1622 q 683 1701 660 1678 q 736 1724 706 1724 q 788 1701 765 1724 l 897 1592 q 919 1550 919 1569 q 907 1519 919 1532 q 875 1507 894 1507 m 842 1267 q 692 1295 756 1267 q 597 1369 629 1324 q 564 1461 564 1414 q 588 1507 564 1490 q 646 1524 611 1524 q 690 1513 674 1524 q 717 1478 706 1503 q 768 1417 738 1433 q 853 1400 799 1400 q 940 1420 907 1400 q 1001 1482 974 1440 q 1081 1524 1029 1524 q 1124 1510 1107 1524 q 1140 1471 1140 1496 q 1104 1378 1140 1426 q 1000 1299 1068 1331 q 842 1267 932 1267 z "},"Ẳ":{"ha":1092,"x_min":78,"x_max":1271,"o":"m 417 -7 q 244 40 321 -7 q 122 177 167 88 q 78 389 78 267 q 168 780 78 600 q 435 1069 258 960 q 858 1178 611 1178 q 995 1168 922 1178 q 1128 1139 1068 1158 q 1167 1083 1167 1128 q 1140 1015 1167 1047 q 1076 983 1113 983 q 1060 985 1065 983 q 936 1009 988 1001 q 828 1017 885 1017 q 528 931 651 1017 q 343 706 404 846 q 282 403 282 565 q 328 220 282 285 q 450 156 375 156 q 599 225 535 156 q 715 450 663 294 q 819 872 768 606 q 853 925 828 911 q 919 939 878 939 q 1018 875 1018 939 q 1014 847 1018 864 q 948 549 978 713 q 918 301 918 386 q 940 192 918 226 q 1008 158 963 158 q 1093 188 1053 158 q 1194 290 1133 218 q 1232 310 1211 310 q 1260 293 1250 310 q 1271 247 1271 276 q 1244 161 1271 193 q 1111 36 1176 79 q 951 -7 1046 -7 q 794 49 854 -7 q 719 208 735 106 q 417 -7 617 -7 m 815 1494 q 778 1506 789 1494 q 768 1540 767 1517 q 824 1593 768 1593 q 876 1607 858 1593 q 894 1642 894 1621 q 839 1686 894 1686 q 791 1683 817 1686 q 760 1681 765 1681 q 733 1690 740 1681 q 726 1724 726 1699 q 740 1760 726 1749 q 781 1778 753 1772 q 842 1783 803 1783 q 1007 1656 1007 1783 q 960 1538 1007 1581 q 832 1494 914 1494 l 815 1494 m 842 1267 q 692 1295 756 1267 q 597 1369 629 1324 q 564 1461 564 1414 q 588 1507 564 1490 q 646 1524 611 1524 q 690 1513 674 1524 q 717 1478 706 1503 q 768 1417 738 1433 q 853 1400 799 1400 q 940 1420 907 1400 q 1001 1482 974 1440 q 1081 1524 1029 1524 q 1124 1510 1107 1524 q 1140 1471 1140 1496 q 1104 1378 1140 1426 q 1000 1299 1068 1331 q 842 1267 932 1267 z "},"Ẵ":{"ha":1092,"x_min":78,"x_max":1271,"o":"m 417 -7 q 244 40 321 -7 q 122 177 167 88 q 78 389 78 267 q 168 780 78 600 q 435 1069 258 960 q 858 1178 611 1178 q 995 1168 922 1178 q 1128 1139 1068 1158 q 1167 1083 1167 1128 q 1140 1015 1167 1047 q 1076 983 1113 983 q 1060 985 1065 983 q 936 1009 988 1001 q 828 1017 885 1017 q 528 931 651 1017 q 343 706 404 846 q 282 403 282 565 q 328 220 282 285 q 450 156 375 156 q 599 225 535 156 q 715 450 663 294 q 819 872 768 606 q 853 925 828 911 q 919 939 878 939 q 1018 875 1018 939 q 1014 847 1018 864 q 948 549 978 713 q 918 301 918 386 q 940 192 918 226 q 1008 158 963 158 q 1093 188 1053 158 q 1194 290 1133 218 q 1232 310 1211 310 q 1260 293 1250 310 q 1271 247 1271 276 q 1244 161 1271 193 q 1111 36 1176 79 q 951 -7 1046 -7 q 794 49 854 -7 q 719 208 735 106 q 417 -7 617 -7 m 990 1543 q 952 1550 969 1543 q 908 1575 935 1557 l 775 1668 l 719 1589 q 661 1561 699 1561 q 621 1574 638 1561 q 604 1610 604 1588 q 650 1711 604 1644 q 772 1792 704 1792 q 810 1785 793 1792 q 854 1760 826 1779 l 988 1667 l 1043 1746 q 1101 1774 1064 1774 q 1142 1760 1125 1774 q 1158 1724 1158 1747 q 1149 1687 1158 1707 q 1113 1622 1139 1667 q 990 1543 1063 1543 m 842 1267 q 692 1295 756 1267 q 597 1369 629 1324 q 564 1461 564 1414 q 588 1507 564 1490 q 646 1524 611 1524 q 690 1513 674 1524 q 717 1478 706 1503 q 768 1417 738 1433 q 853 1400 799 1400 q 940 1420 907 1400 q 1001 1482 974 1440 q 1081 1524 1029 1524 q 1124 1510 1107 1524 q 1140 1471 1140 1496 q 1104 1378 1140 1426 q 1000 1299 1068 1331 q 842 1267 932 1267 z "},"Â":{"ha":1092,"x_min":78,"x_max":1271,"o":"m 417 -7 q 244 40 321 -7 q 122 177 167 88 q 78 389 78 267 q 168 780 78 600 q 435 1069 258 960 q 858 1178 611 1178 q 995 1168 922 1178 q 1128 1139 1068 1158 q 1167 1083 1167 1128 q 1140 1015 1167 1047 q 1076 983 1113 983 q 1060 985 1065 983 q 936 1009 988 1001 q 828 1017 885 1017 q 528 931 651 1017 q 343 706 404 846 q 282 403 282 565 q 328 220 282 285 q 450 156 375 156 q 599 225 535 156 q 715 450 663 294 q 819 872 768 606 q 853 925 828 911 q 919 939 878 939 q 1018 875 1018 939 q 1014 847 1018 864 q 948 549 978 713 q 918 301 918 386 q 940 192 918 226 q 1008 158 963 158 q 1093 188 1053 158 q 1194 290 1133 218 q 1232 310 1211 310 q 1260 293 1250 310 q 1271 247 1271 276 q 1244 161 1271 193 q 1111 36 1176 79 q 951 -7 1046 -7 q 794 49 854 -7 q 719 208 735 106 q 417 -7 617 -7 m 867 1518 l 756 1321 q 715 1279 740 1293 q 664 1265 690 1265 q 614 1281 635 1265 q 593 1324 593 1297 q 611 1375 593 1347 l 739 1565 q 885 1643 790 1643 q 953 1621 928 1643 q 1000 1547 979 1599 l 1065 1379 q 1074 1340 1074 1358 q 1050 1287 1074 1307 q 994 1267 1026 1267 q 951 1280 971 1267 q 924 1317 931 1293 l 867 1518 z "},"Ấ":{"ha":1092,"x_min":78,"x_max":1271,"o":"m 417 -7 q 244 40 321 -7 q 122 177 167 88 q 78 389 78 267 q 168 780 78 600 q 435 1069 258 960 q 858 1178 611 1178 q 995 1168 922 1178 q 1128 1139 1068 1158 q 1167 1083 1167 1128 q 1140 1015 1167 1047 q 1076 983 1113 983 q 1060 985 1065 983 q 936 1009 988 1001 q 828 1017 885 1017 q 528 931 651 1017 q 343 706 404 846 q 282 403 282 565 q 328 220 282 285 q 450 156 375 156 q 599 225 535 156 q 715 450 663 294 q 819 872 768 606 q 853 925 828 911 q 919 939 878 939 q 1018 875 1018 939 q 1014 847 1018 864 q 948 549 978 713 q 918 301 918 386 q 940 192 918 226 q 1008 158 963 158 q 1093 188 1053 158 q 1194 290 1133 218 q 1232 310 1211 310 q 1260 293 1250 310 q 1271 247 1271 276 q 1244 161 1271 193 q 1111 36 1176 79 q 951 -7 1046 -7 q 794 49 854 -7 q 719 208 735 106 q 417 -7 617 -7 m 867 1518 l 756 1321 q 715 1279 740 1293 q 664 1265 690 1265 q 614 1281 635 1265 q 593 1324 593 1297 q 611 1375 593 1347 l 739 1565 q 885 1643 790 1643 q 953 1621 928 1643 q 1000 1547 979 1599 l 1065 1379 q 1074 1340 1074 1358 q 1050 1287 1074 1307 q 994 1267 1026 1267 q 951 1280 971 1267 q 924 1317 931 1293 l 867 1518 m 889 1713 q 851 1727 867 1713 q 836 1763 836 1742 q 863 1813 836 1790 l 1101 2017 q 1163 2040 1129 2040 q 1225 2015 1199 2040 q 1251 1953 1251 1989 q 1178 1854 1251 1893 l 918 1719 q 889 1713 906 1713 z "},"Ậ":{"ha":1092,"x_min":78,"x_max":1271,"o":"m 417 -7 q 244 40 321 -7 q 122 177 167 88 q 78 389 78 267 q 168 780 78 600 q 435 1069 258 960 q 858 1178 611 1178 q 995 1168 922 1178 q 1128 1139 1068 1158 q 1167 1083 1167 1128 q 1140 1015 1167 1047 q 1076 983 1113 983 q 1060 985 1065 983 q 936 1009 988 1001 q 828 1017 885 1017 q 528 931 651 1017 q 343 706 404 846 q 282 403 282 565 q 328 220 282 285 q 450 156 375 156 q 599 225 535 156 q 715 450 663 294 q 819 872 768 606 q 853 925 828 911 q 919 939 878 939 q 1018 875 1018 939 q 1014 847 1018 864 q 948 549 978 713 q 918 301 918 386 q 940 192 918 226 q 1008 158 963 158 q 1093 188 1053 158 q 1194 290 1133 218 q 1232 310 1211 310 q 1260 293 1250 310 q 1271 247 1271 276 q 1244 161 1271 193 q 1111 36 1176 79 q 951 -7 1046 -7 q 794 49 854 -7 q 719 208 735 106 q 417 -7 617 -7 m 497 -322 q 408 -294 439 -322 q 378 -217 378 -265 q 417 -133 378 -167 q 514 -100 457 -100 q 599 -126 567 -100 q 632 -199 632 -151 q 594 -289 632 -256 q 497 -322 557 -322 m 867 1518 l 756 1321 q 715 1279 740 1293 q 664 1265 690 1265 q 614 1281 635 1265 q 593 1324 593 1297 q 611 1375 593 1347 l 739 1565 q 885 1643 790 1643 q 953 1621 928 1643 q 1000 1547 979 1599 l 1065 1379 q 1074 1340 1074 1358 q 1050 1287 1074 1307 q 994 1267 1026 1267 q 951 1280 971 1267 q 924 1317 931 1293 l 867 1518 z "},"Ầ":{"ha":1092,"x_min":78,"x_max":1271,"o":"m 417 -7 q 244 40 321 -7 q 122 177 167 88 q 78 389 78 267 q 168 780 78 600 q 435 1069 258 960 q 858 1178 611 1178 q 995 1168 922 1178 q 1128 1139 1068 1158 q 1167 1083 1167 1128 q 1140 1015 1167 1047 q 1076 983 1113 983 q 1060 985 1065 983 q 936 1009 988 1001 q 828 1017 885 1017 q 528 931 651 1017 q 343 706 404 846 q 282 403 282 565 q 328 220 282 285 q 450 156 375 156 q 599 225 535 156 q 715 450 663 294 q 819 872 768 606 q 853 925 828 911 q 919 939 878 939 q 1018 875 1018 939 q 1014 847 1018 864 q 948 549 978 713 q 918 301 918 386 q 940 192 918 226 q 1008 158 963 158 q 1093 188 1053 158 q 1194 290 1133 218 q 1232 310 1211 310 q 1260 293 1250 310 q 1271 247 1271 276 q 1244 161 1271 193 q 1111 36 1176 79 q 951 -7 1046 -7 q 794 49 854 -7 q 719 208 735 106 q 417 -7 617 -7 m 867 1518 l 756 1321 q 715 1279 740 1293 q 664 1265 690 1265 q 614 1281 635 1265 q 593 1324 593 1297 q 611 1375 593 1347 l 739 1565 q 885 1643 790 1643 q 953 1621 928 1643 q 1000 1547 979 1599 l 1065 1379 q 1074 1340 1074 1358 q 1050 1287 1074 1307 q 994 1267 1026 1267 q 951 1280 971 1267 q 924 1317 931 1293 l 867 1518 m 871 1713 q 842 1719 854 1713 l 582 1854 q 508 1953 508 1893 q 535 2015 508 1989 q 597 2040 561 2040 q 658 2017 631 2040 l 897 1813 q 924 1763 924 1790 q 908 1727 924 1742 q 871 1713 893 1713 z "},"Ẩ":{"ha":1092,"x_min":78,"x_max":1271,"o":"m 417 -7 q 244 40 321 -7 q 122 177 167 88 q 78 389 78 267 q 168 780 78 600 q 435 1069 258 960 q 858 1178 611 1178 q 995 1168 922 1178 q 1128 1139 1068 1158 q 1167 1083 1167 1128 q 1140 1015 1167 1047 q 1076 983 1113 983 q 1060 985 1065 983 q 936 1009 988 1001 q 828 1017 885 1017 q 528 931 651 1017 q 343 706 404 846 q 282 403 282 565 q 328 220 282 285 q 450 156 375 156 q 599 225 535 156 q 715 450 663 294 q 819 872 768 606 q 853 925 828 911 q 919 939 878 939 q 1018 875 1018 939 q 1014 847 1018 864 q 948 549 978 713 q 918 301 918 386 q 940 192 918 226 q 1008 158 963 158 q 1093 188 1053 158 q 1194 290 1133 218 q 1232 310 1211 310 q 1260 293 1250 310 q 1271 247 1271 276 q 1244 161 1271 193 q 1111 36 1176 79 q 951 -7 1046 -7 q 794 49 854 -7 q 719 208 735 106 q 417 -7 617 -7 m 867 1518 l 756 1321 q 715 1279 740 1293 q 664 1265 690 1265 q 614 1281 635 1265 q 593 1324 593 1297 q 611 1375 593 1347 l 739 1565 q 885 1643 790 1643 q 953 1621 928 1643 q 1000 1547 979 1599 l 1065 1379 q 1074 1340 1074 1358 q 1050 1287 1074 1307 q 994 1267 1026 1267 q 951 1280 971 1267 q 924 1317 931 1293 l 867 1518 m 872 1713 q 829 1725 842 1713 q 817 1763 817 1738 q 835 1814 817 1800 q 883 1828 853 1828 q 944 1844 924 1828 q 965 1886 965 1861 q 949 1924 965 1910 q 900 1938 933 1938 q 844 1934 875 1938 q 807 1931 814 1931 q 776 1942 785 1931 q 768 1982 768 1953 q 784 2025 768 2011 q 832 2046 800 2039 q 904 2053 865 2053 q 1099 1901 1099 2053 q 1044 1763 1099 1814 q 893 1713 989 1713 l 872 1713 z "},"Ẫ":{"ha":1092,"x_min":78,"x_max":1271,"o":"m 417 -7 q 244 40 321 -7 q 122 177 167 88 q 78 389 78 267 q 168 780 78 600 q 435 1069 258 960 q 858 1178 611 1178 q 995 1168 922 1178 q 1128 1139 1068 1158 q 1167 1083 1167 1128 q 1140 1015 1167 1047 q 1076 983 1113 983 q 1060 985 1065 983 q 936 1009 988 1001 q 828 1017 885 1017 q 528 931 651 1017 q 343 706 404 846 q 282 403 282 565 q 328 220 282 285 q 450 156 375 156 q 599 225 535 156 q 715 450 663 294 q 819 872 768 606 q 853 925 828 911 q 919 939 878 939 q 1018 875 1018 939 q 1014 847 1018 864 q 948 549 978 713 q 918 301 918 386 q 940 192 918 226 q 1008 158 963 158 q 1093 188 1053 158 q 1194 290 1133 218 q 1232 310 1211 310 q 1260 293 1250 310 q 1271 247 1271 276 q 1244 161 1271 193 q 1111 36 1176 79 q 951 -7 1046 -7 q 794 49 854 -7 q 719 208 735 106 q 417 -7 617 -7 m 867 1518 l 756 1321 q 715 1279 740 1293 q 664 1265 690 1265 q 614 1281 635 1265 q 593 1324 593 1297 q 611 1375 593 1347 l 739 1565 q 885 1643 790 1643 q 953 1621 928 1643 q 1000 1547 979 1599 l 1065 1379 q 1074 1340 1074 1358 q 1050 1287 1074 1307 q 994 1267 1026 1267 q 951 1280 971 1267 q 924 1317 931 1293 l 867 1518 m 1029 1713 q 988 1720 1007 1713 q 938 1749 968 1728 l 789 1851 l 728 1764 q 699 1741 717 1749 q 664 1733 682 1733 q 619 1747 638 1733 q 600 1788 600 1761 q 651 1900 600 1825 q 786 1989 713 1989 q 828 1982 810 1989 q 878 1953 847 1975 l 1026 1850 l 1088 1938 q 1116 1960 1099 1953 q 1151 1968 1133 1968 q 1197 1954 1178 1968 q 1215 1914 1215 1940 q 1204 1873 1215 1896 q 1164 1801 1193 1850 q 1101 1734 1136 1756 q 1029 1713 1067 1713 z "},"Ȁ":{"ha":1092,"x_min":78,"x_max":1271,"o":"m 417 -7 q 244 40 321 -7 q 122 177 167 88 q 78 389 78 267 q 168 780 78 600 q 435 1069 258 960 q 858 1178 611 1178 q 995 1168 922 1178 q 1128 1139 1068 1158 q 1167 1083 1167 1128 q 1140 1015 1167 1047 q 1076 983 1113 983 q 1060 985 1065 983 q 936 1009 988 1001 q 828 1017 885 1017 q 528 931 651 1017 q 343 706 404 846 q 282 403 282 565 q 328 220 282 285 q 450 156 375 156 q 599 225 535 156 q 715 450 663 294 q 819 872 768 606 q 853 925 828 911 q 919 939 878 939 q 1018 875 1018 939 q 1014 847 1018 864 q 948 549 978 713 q 918 301 918 386 q 940 192 918 226 q 1008 158 963 158 q 1093 188 1053 158 q 1194 290 1133 218 q 1232 310 1211 310 q 1260 293 1250 310 q 1271 247 1271 276 q 1244 161 1271 193 q 1111 36 1176 79 q 951 -7 1046 -7 q 794 49 854 -7 q 719 208 735 106 q 417 -7 617 -7 m 710 1267 q 657 1297 676 1267 l 568 1442 q 546 1510 546 1478 q 572 1571 546 1547 q 632 1594 599 1594 q 677 1580 657 1594 q 706 1536 697 1565 l 763 1339 q 765 1319 765 1325 q 749 1281 765 1296 q 710 1267 732 1267 m 961 1267 q 908 1297 928 1267 l 819 1442 q 797 1510 797 1478 q 824 1571 797 1547 q 883 1594 850 1594 q 928 1580 908 1594 q 957 1536 949 1565 l 1014 1339 q 1017 1319 1017 1325 q 1000 1281 1017 1296 q 961 1267 983 1267 z "},"Ä":{"ha":1092,"x_min":78,"x_max":1271,"o":"m 417 -7 q 244 40 321 -7 q 122 177 167 88 q 78 389 78 267 q 168 780 78 600 q 435 1069 258 960 q 858 1178 611 1178 q 995 1168 922 1178 q 1128 1139 1068 1158 q 1167 1083 1167 1128 q 1140 1015 1167 1047 q 1076 983 1113 983 q 1060 985 1065 983 q 936 1009 988 1001 q 828 1017 885 1017 q 528 931 651 1017 q 343 706 404 846 q 282 403 282 565 q 328 220 282 285 q 450 156 375 156 q 599 225 535 156 q 715 450 663 294 q 819 872 768 606 q 853 925 828 911 q 919 939 878 939 q 1018 875 1018 939 q 1014 847 1018 864 q 948 549 978 713 q 918 301 918 386 q 940 192 918 226 q 1008 158 963 158 q 1093 188 1053 158 q 1194 290 1133 218 q 1232 310 1211 310 q 1260 293 1250 310 q 1271 247 1271 276 q 1244 161 1271 193 q 1111 36 1176 79 q 951 -7 1046 -7 q 794 49 854 -7 q 719 208 735 106 q 417 -7 617 -7 m 696 1267 q 625 1292 651 1267 q 599 1369 599 1318 q 629 1458 599 1426 q 711 1490 660 1490 q 782 1465 756 1490 q 808 1388 808 1439 q 778 1299 808 1331 q 696 1267 747 1267 m 985 1267 q 914 1292 940 1267 q 888 1369 888 1318 q 918 1458 888 1426 q 1000 1490 949 1490 q 1071 1465 1044 1490 q 1097 1388 1097 1439 q 1067 1299 1097 1331 q 985 1267 1036 1267 z "},"Ạ":{"ha":1092,"x_min":78,"x_max":1271,"o":"m 417 -7 q 244 40 321 -7 q 122 177 167 88 q 78 389 78 267 q 168 780 78 600 q 435 1069 258 960 q 858 1178 611 1178 q 995 1168 922 1178 q 1128 1139 1068 1158 q 1167 1083 1167 1128 q 1140 1015 1167 1047 q 1076 983 1113 983 q 1060 985 1065 983 q 936 1009 988 1001 q 828 1017 885 1017 q 528 931 651 1017 q 343 706 404 846 q 282 403 282 565 q 328 220 282 285 q 450 156 375 156 q 599 225 535 156 q 715 450 663 294 q 819 872 768 606 q 853 925 828 911 q 919 939 878 939 q 1018 875 1018 939 q 1014 847 1018 864 q 948 549 978 713 q 918 301 918 386 q 940 192 918 226 q 1008 158 963 158 q 1093 188 1053 158 q 1194 290 1133 218 q 1232 310 1211 310 q 1260 293 1250 310 q 1271 247 1271 276 q 1244 161 1271 193 q 1111 36 1176 79 q 951 -7 1046 -7 q 794 49 854 -7 q 719 208 735 106 q 417 -7 617 -7 m 497 -322 q 408 -294 439 -322 q 378 -217 378 -265 q 417 -133 378 -167 q 514 -100 457 -100 q 599 -126 567 -100 q 632 -199 632 -151 q 594 -289 632 -256 q 497 -322 557 -322 z "},"À":{"ha":1092,"x_min":78,"x_max":1271,"o":"m 417 -7 q 244 40 321 -7 q 122 177 167 88 q 78 389 78 267 q 168 780 78 600 q 435 1069 258 960 q 858 1178 611 1178 q 995 1168 922 1178 q 1128 1139 1068 1158 q 1167 1083 1167 1128 q 1140 1015 1167 1047 q 1076 983 1113 983 q 1060 985 1065 983 q 936 1009 988 1001 q 828 1017 885 1017 q 528 931 651 1017 q 343 706 404 846 q 282 403 282 565 q 328 220 282 285 q 450 156 375 156 q 599 225 535 156 q 715 450 663 294 q 819 872 768 606 q 853 925 828 911 q 919 939 878 939 q 1018 875 1018 939 q 1014 847 1018 864 q 948 549 978 713 q 918 301 918 386 q 940 192 918 226 q 1008 158 963 158 q 1093 188 1053 158 q 1194 290 1133 218 q 1232 310 1211 310 q 1260 293 1250 310 q 1271 247 1271 276 q 1244 161 1271 193 q 1111 36 1176 79 q 951 -7 1046 -7 q 794 49 854 -7 q 719 208 735 106 q 417 -7 617 -7 m 815 1267 q 786 1274 799 1267 l 526 1408 q 453 1507 453 1447 q 479 1569 453 1543 q 542 1594 506 1594 q 603 1571 575 1594 l 842 1367 q 868 1317 868 1344 q 853 1281 868 1296 q 815 1267 838 1267 z "},"Ả":{"ha":1092,"x_min":78,"x_max":1271,"o":"m 417 -7 q 244 40 321 -7 q 122 177 167 88 q 78 389 78 267 q 168 780 78 600 q 435 1069 258 960 q 858 1178 611 1178 q 995 1168 922 1178 q 1128 1139 1068 1158 q 1167 1083 1167 1128 q 1140 1015 1167 1047 q 1076 983 1113 983 q 1060 985 1065 983 q 936 1009 988 1001 q 828 1017 885 1017 q 528 931 651 1017 q 343 706 404 846 q 282 403 282 565 q 328 220 282 285 q 450 156 375 156 q 599 225 535 156 q 715 450 663 294 q 819 872 768 606 q 853 925 828 911 q 919 939 878 939 q 1018 875 1018 939 q 1014 847 1018 864 q 948 549 978 713 q 918 301 918 386 q 940 192 918 226 q 1008 158 963 158 q 1093 188 1053 158 q 1194 290 1133 218 q 1232 310 1211 310 q 1260 293 1250 310 q 1271 247 1271 276 q 1244 161 1271 193 q 1111 36 1176 79 q 951 -7 1046 -7 q 794 49 854 -7 q 719 208 735 106 q 417 -7 617 -7 m 817 1267 q 774 1279 786 1267 q 761 1317 761 1292 q 779 1368 761 1354 q 828 1382 797 1382 q 889 1399 868 1382 q 910 1440 910 1415 q 894 1478 910 1464 q 844 1492 878 1492 q 789 1488 819 1492 q 751 1485 758 1485 q 721 1496 729 1485 q 713 1536 713 1507 q 728 1579 713 1565 q 776 1600 744 1593 q 849 1607 810 1607 q 1043 1456 1043 1607 q 988 1317 1043 1368 q 838 1267 933 1267 l 817 1267 z "},"Ȃ":{"ha":1092,"x_min":78,"x_max":1271,"o":"m 417 -7 q 244 40 321 -7 q 122 177 167 88 q 78 389 78 267 q 168 780 78 600 q 435 1069 258 960 q 858 1178 611 1178 q 995 1168 922 1178 q 1128 1139 1068 1158 q 1167 1083 1167 1128 q 1140 1015 1167 1047 q 1076 983 1113 983 q 1060 985 1065 983 q 936 1009 988 1001 q 828 1017 885 1017 q 528 931 651 1017 q 343 706 404 846 q 282 403 282 565 q 328 220 282 285 q 450 156 375 156 q 599 225 535 156 q 715 450 663 294 q 819 872 768 606 q 853 925 828 911 q 919 939 878 939 q 1018 875 1018 939 q 1014 847 1018 864 q 948 549 978 713 q 918 301 918 386 q 940 192 918 226 q 1008 158 963 158 q 1093 188 1053 158 q 1194 290 1133 218 q 1232 310 1211 310 q 1260 293 1250 310 q 1271 247 1271 276 q 1244 161 1271 193 q 1111 36 1176 79 q 951 -7 1046 -7 q 794 49 854 -7 q 719 208 735 106 q 417 -7 617 -7 m 626 1267 q 583 1281 600 1267 q 567 1319 567 1294 q 603 1412 567 1364 q 707 1492 639 1460 q 865 1524 775 1524 q 1015 1495 951 1524 q 1110 1422 1078 1467 q 1143 1329 1143 1376 q 1119 1283 1143 1300 q 1061 1267 1096 1267 q 1017 1277 1033 1267 q 990 1313 1001 1288 q 939 1374 969 1357 q 854 1390 908 1390 q 767 1370 800 1390 q 706 1308 733 1350 q 626 1267 678 1267 z "},"Ā":{"ha":1092,"x_min":78,"x_max":1271,"o":"m 417 -7 q 244 40 321 -7 q 122 177 167 88 q 78 389 78 267 q 168 780 78 600 q 435 1069 258 960 q 858 1178 611 1178 q 995 1168 922 1178 q 1128 1139 1068 1158 q 1167 1083 1167 1128 q 1140 1015 1167 1047 q 1076 983 1113 983 q 1060 985 1065 983 q 936 1009 988 1001 q 828 1017 885 1017 q 528 931 651 1017 q 343 706 404 846 q 282 403 282 565 q 328 220 282 285 q 450 156 375 156 q 599 225 535 156 q 715 450 663 294 q 819 872 768 606 q 853 925 828 911 q 919 939 878 939 q 1018 875 1018 939 q 1014 847 1018 864 q 948 549 978 713 q 918 301 918 386 q 940 192 918 226 q 1008 158 963 158 q 1093 188 1053 158 q 1194 290 1133 218 q 1232 310 1211 310 q 1260 293 1250 310 q 1271 247 1271 276 q 1244 161 1271 193 q 1111 36 1176 79 q 951 -7 1046 -7 q 794 49 854 -7 q 719 208 735 106 q 417 -7 617 -7 m 675 1267 q 613 1328 613 1267 q 632 1383 613 1363 q 686 1403 651 1403 l 996 1403 q 1042 1388 1026 1403 q 1058 1346 1058 1374 q 1039 1288 1058 1308 q 985 1267 1019 1267 l 675 1267 z "},"Ą":{"ha":1092,"x_min":78,"x_max":1271,"o":"m 994 -353 q 840 -301 899 -353 q 781 -164 781 -249 q 864 7 781 -62 q 767 81 804 29 q 719 208 731 132 q 417 -7 617 -7 q 244 40 321 -7 q 122 177 167 88 q 78 389 78 267 q 168 780 78 600 q 435 1069 258 960 q 858 1178 611 1178 q 995 1168 922 1178 q 1128 1139 1068 1158 q 1167 1083 1167 1128 q 1140 1015 1167 1047 q 1076 983 1113 983 q 1060 985 1065 983 q 936 1009 988 1001 q 828 1017 885 1017 q 528 931 651 1017 q 343 706 404 846 q 282 403 282 565 q 328 220 282 285 q 450 156 375 156 q 599 225 535 156 q 715 450 663 294 q 819 872 768 606 q 853 925 828 911 q 919 939 878 939 q 1018 875 1018 939 q 1014 847 1018 864 q 948 549 978 713 q 918 301 918 386 q 940 192 918 226 q 1008 158 963 158 q 1093 188 1053 158 q 1194 290 1133 218 q 1232 310 1211 310 q 1260 293 1250 310 q 1271 247 1271 276 q 1266 200 1271 221 q 1244 161 1261 179 q 1049 0 1163 65 q 956 -69 985 -36 q 928 -140 928 -103 q 953 -201 928 -181 q 1014 -222 978 -222 q 1079 -212 1050 -222 q 1117 -204 1103 -204 q 1144 -217 1136 -204 q 1153 -257 1153 -231 q 1138 -306 1153 -286 q 1088 -339 1122 -326 q 1044 -349 1071 -344 q 994 -353 1017 -353 z "},"Å":{"ha":1092,"x_min":78,"x_max":1271,"o":"m 417 -7 q 244 40 321 -7 q 122 177 167 88 q 78 389 78 267 q 168 780 78 600 q 435 1069 258 960 q 858 1178 611 1178 q 995 1168 922 1178 q 1128 1139 1068 1158 q 1167 1083 1167 1128 q 1140 1015 1167 1047 q 1076 983 1113 983 q 1060 985 1065 983 q 936 1009 988 1001 q 828 1017 885 1017 q 528 931 651 1017 q 343 706 404 846 q 282 403 282 565 q 328 220 282 285 q 450 156 375 156 q 599 225 535 156 q 715 450 663 294 q 819 872 768 606 q 853 925 828 911 q 919 939 878 939 q 1018 875 1018 939 q 1014 847 1018 864 q 948 549 978 713 q 918 301 918 386 q 940 192 918 226 q 1008 158 963 158 q 1093 188 1053 158 q 1194 290 1133 218 q 1232 310 1211 310 q 1260 293 1250 310 q 1271 247 1271 276 q 1244 161 1271 193 q 1111 36 1176 79 q 951 -7 1046 -7 q 794 49 854 -7 q 719 208 735 106 q 417 -7 617 -7 m 849 1267 q 722 1316 775 1267 q 669 1450 669 1365 q 697 1559 669 1513 q 769 1631 724 1606 q 865 1656 814 1656 q 992 1606 939 1656 q 1044 1472 1044 1557 q 1017 1363 1044 1410 q 945 1292 990 1317 q 849 1267 900 1267 m 854 1389 q 901 1410 882 1389 q 921 1465 921 1431 q 903 1515 921 1496 q 860 1533 885 1533 q 813 1513 832 1533 q 793 1457 793 1492 q 811 1408 793 1426 q 854 1389 829 1389 z "},"Ǻ":{"ha":1092,"x_min":78,"x_max":1353,"o":"m 1103 1565 q 1071 1578 1083 1565 q 1058 1608 1058 1590 q 1081 1650 1058 1629 l 1225 1781 q 1276 1801 1247 1801 q 1330 1779 1307 1801 q 1353 1726 1353 1757 q 1338 1680 1353 1703 q 1290 1643 1322 1657 l 1128 1571 q 1103 1565 1117 1565 m 849 1267 q 722 1316 775 1267 q 669 1450 669 1365 q 697 1559 669 1513 q 769 1631 724 1606 q 865 1656 814 1656 q 992 1606 939 1656 q 1044 1472 1044 1557 q 1017 1363 1044 1410 q 945 1292 990 1317 q 849 1267 900 1267 m 854 1389 q 901 1410 882 1389 q 921 1465 921 1431 q 903 1515 921 1496 q 860 1533 885 1533 q 813 1513 832 1533 q 793 1457 793 1492 q 811 1408 793 1426 q 854 1389 829 1389 m 417 -7 q 244 40 321 -7 q 122 177 167 88 q 78 389 78 267 q 168 780 78 600 q 435 1069 258 960 q 858 1178 611 1178 q 995 1168 922 1178 q 1128 1139 1068 1158 q 1167 1083 1167 1128 q 1140 1015 1167 1047 q 1076 983 1113 983 q 1060 985 1065 983 q 936 1009 988 1001 q 828 1017 885 1017 q 528 931 651 1017 q 343 706 404 846 q 282 403 282 565 q 328 220 282 285 q 450 156 375 156 q 599 225 535 156 q 715 450 663 294 q 819 872 768 606 q 853 925 828 911 q 919 939 878 939 q 1018 875 1018 939 q 1014 847 1018 864 q 948 549 978 713 q 918 301 918 386 q 940 192 918 226 q 1008 158 963 158 q 1093 188 1053 158 q 1194 290 1133 218 q 1232 310 1211 310 q 1260 293 1250 310 q 1271 247 1271 276 q 1244 161 1271 193 q 1111 36 1176 79 q 951 -7 1046 -7 q 794 49 854 -7 q 719 208 735 106 q 417 -7 617 -7 z "},"Ã":{"ha":1092,"x_min":78,"x_max":1271,"o":"m 417 -7 q 244 40 321 -7 q 122 177 167 88 q 78 389 78 267 q 168 780 78 600 q 435 1069 258 960 q 858 1178 611 1178 q 995 1168 922 1178 q 1128 1139 1068 1158 q 1167 1083 1167 1128 q 1140 1015 1167 1047 q 1076 983 1113 983 q 1060 985 1065 983 q 936 1009 988 1001 q 828 1017 885 1017 q 528 931 651 1017 q 343 706 404 846 q 282 403 282 565 q 328 220 282 285 q 450 156 375 156 q 599 225 535 156 q 715 450 663 294 q 819 872 768 606 q 853 925 828 911 q 919 939 878 939 q 1018 875 1018 939 q 1014 847 1018 864 q 948 549 978 713 q 918 301 918 386 q 940 192 918 226 q 1008 158 963 158 q 1093 188 1053 158 q 1194 290 1133 218 q 1232 310 1211 310 q 1260 293 1250 310 q 1271 247 1271 276 q 1244 161 1271 193 q 1111 36 1176 79 q 951 -7 1046 -7 q 794 49 854 -7 q 719 208 735 106 q 417 -7 617 -7 m 974 1267 q 932 1274 951 1267 q 882 1303 913 1282 l 733 1406 l 672 1318 q 644 1295 661 1303 q 608 1288 626 1288 q 563 1301 582 1288 q 544 1342 544 1315 q 596 1454 544 1379 q 731 1543 657 1543 q 773 1536 754 1543 q 822 1507 792 1529 l 971 1404 l 1032 1492 q 1060 1515 1043 1507 q 1096 1522 1078 1522 q 1141 1508 1122 1522 q 1160 1468 1160 1494 q 1149 1427 1160 1450 q 1108 1356 1138 1404 q 1046 1288 1081 1310 q 974 1267 1011 1267 z "},"Æ":{"ha":1410,"x_min":78,"x_max":1585,"o":"m 1515 253 q 1543 260 1528 260 q 1574 244 1563 260 q 1585 203 1585 228 q 1572 145 1585 171 q 1526 96 1558 119 q 1362 22 1464 51 q 1165 -7 1260 -7 q 894 60 994 -7 q 764 240 794 128 q 433 -7 654 -7 q 249 40 329 -7 q 123 177 168 88 q 78 389 78 267 q 159 762 78 592 q 385 1040 240 932 q 710 1169 529 1147 q 739 1171 721 1171 q 829 1083 829 1171 q 816 1035 829 1054 q 776 1014 803 1017 q 506 911 618 996 q 338 694 394 826 q 282 403 282 561 q 328 220 282 285 q 450 156 375 156 q 635 270 565 156 q 764 599 706 385 l 876 1010 q 945 1125 897 1086 q 1064 1167 993 1164 l 1136 1171 q 1411 1179 1311 1179 q 1481 1162 1461 1179 q 1500 1104 1500 1144 q 1475 1031 1500 1061 q 1400 1000 1450 1000 q 1209 996 1307 1000 q 1067 986 1111 992 q 986 671 1033 886 q 1078 674 1050 674 q 1329 681 1226 681 q 1387 663 1371 681 q 1403 613 1403 646 q 1378 541 1403 569 q 1311 511 1354 513 l 1154 507 q 953 501 1082 504 q 938 381 938 433 q 1197 160 938 160 q 1344 183 1269 160 q 1515 253 1419 206 z "},"Ǽ":{"ha":1410,"x_min":78,"x_max":1585,"o":"m 1515 253 q 1543 260 1528 260 q 1574 244 1563 260 q 1585 203 1585 228 q 1572 145 1585 171 q 1526 96 1558 119 q 1362 22 1464 51 q 1165 -7 1260 -7 q 894 60 994 -7 q 764 240 794 128 q 433 -7 654 -7 q 249 40 329 -7 q 123 177 168 88 q 78 389 78 267 q 159 762 78 592 q 385 1040 240 932 q 710 1169 529 1147 q 739 1171 721 1171 q 829 1083 829 1171 q 816 1035 829 1054 q 776 1014 803 1017 q 506 911 618 996 q 338 694 394 826 q 282 403 282 561 q 328 220 282 285 q 450 156 375 156 q 635 270 565 156 q 764 599 706 385 l 876 1010 q 945 1125 897 1086 q 1064 1167 993 1164 l 1136 1171 q 1411 1179 1311 1179 q 1481 1162 1461 1179 q 1500 1104 1500 1144 q 1475 1031 1500 1061 q 1400 1000 1450 1000 q 1209 996 1307 1000 q 1067 986 1111 992 q 986 671 1033 886 q 1078 674 1050 674 q 1329 681 1226 681 q 1387 663 1371 681 q 1403 613 1403 646 q 1378 541 1403 569 q 1311 511 1354 513 l 1154 507 q 953 501 1082 504 q 938 381 938 433 q 1197 160 938 160 q 1344 183 1269 160 q 1515 253 1419 206 m 988 1267 q 950 1281 965 1267 q 935 1317 935 1296 q 961 1367 935 1344 l 1200 1571 q 1261 1594 1228 1594 q 1324 1569 1297 1594 q 1350 1507 1350 1543 q 1276 1408 1350 1447 l 1017 1274 q 988 1267 1004 1267 z "},"B":{"ha":1149,"x_min":28,"x_max":1206,"o":"m 1206 889 q 1122 685 1206 771 q 879 563 1039 600 q 1010 485 965 539 q 1054 363 1054 432 q 985 172 1054 253 q 785 48 917 92 q 467 4 653 4 q 356 8 397 4 q 322 -50 354 -31 q 240 -69 290 -69 q 172 -47 190 -69 q 156 18 153 -25 q 204 426 168 213 q 296 838 240 639 q 335 886 306 872 q 411 900 364 900 q 496 853 496 900 q 488 808 496 833 q 415 515 451 700 q 364 161 379 329 q 472 156 431 156 q 758 212 667 156 q 849 356 849 268 q 797 458 849 417 q 622 504 744 500 q 583 518 594 506 q 572 558 572 531 q 589 624 572 599 q 650 650 606 649 q 828 679 749 653 q 954 753 908 706 q 1000 865 1000 801 q 921 992 1000 946 q 678 1039 842 1039 q 390 1001 529 1039 q 154 904 251 963 q 79 878 110 878 q 41 895 54 878 q 28 939 28 913 q 42 999 28 974 q 113 1056 57 1024 q 386 1160 229 1122 q 707 1197 543 1197 q 1082 1113 958 1197 q 1206 889 1206 1028 z "},"C":{"ha":953,"x_min":89,"x_max":1128,"o":"m 629 -7 q 342 53 464 -7 q 154 225 219 114 q 89 483 89 336 q 166 846 89 688 q 375 1091 243 1004 q 668 1178 507 1178 q 896 1101 818 1178 q 974 897 974 1024 q 944 761 974 813 q 858 710 914 710 q 797 728 819 710 q 775 781 775 746 q 781 826 775 793 q 789 893 789 868 q 654 1019 789 1019 q 479 960 563 1019 q 344 784 396 900 q 293 508 293 668 q 386 251 293 342 q 661 160 479 160 q 844 183 751 160 q 1049 253 936 206 q 1083 261 1069 261 q 1117 244 1106 261 q 1128 201 1128 228 q 1036 76 1128 117 q 831 13 938 33 q 629 -7 725 -7 z "},"Ć":{"ha":953,"x_min":89,"x_max":1128,"o":"m 629 -7 q 342 53 464 -7 q 154 225 219 114 q 89 483 89 336 q 166 846 89 688 q 375 1091 243 1004 q 668 1178 507 1178 q 896 1101 818 1178 q 974 897 974 1024 q 944 761 974 813 q 858 710 914 710 q 797 728 819 710 q 775 781 775 746 q 781 826 775 793 q 789 893 789 868 q 654 1019 789 1019 q 479 960 563 1019 q 344 784 396 900 q 293 508 293 668 q 386 251 293 342 q 661 160 479 160 q 844 183 751 160 q 1049 253 936 206 q 1083 261 1069 261 q 1117 244 1106 261 q 1128 201 1128 228 q 1036 76 1128 117 q 831 13 938 33 q 629 -7 725 -7 m 678 1267 q 640 1281 656 1267 q 625 1317 625 1296 q 651 1367 625 1344 l 890 1571 q 951 1594 918 1594 q 1014 1569 988 1594 q 1040 1507 1040 1543 q 967 1408 1040 1447 l 707 1274 q 678 1267 694 1267 z "},"Č":{"ha":953,"x_min":89,"x_max":1128,"o":"m 629 -7 q 342 53 464 -7 q 154 225 219 114 q 89 483 89 336 q 166 846 89 688 q 375 1091 243 1004 q 668 1178 507 1178 q 896 1101 818 1178 q 974 897 974 1024 q 944 761 974 813 q 858 710 914 710 q 797 728 819 710 q 775 781 775 746 q 781 826 775 793 q 789 893 789 868 q 654 1019 789 1019 q 479 960 563 1019 q 344 784 396 900 q 293 508 293 668 q 386 251 293 342 q 661 160 479 160 q 844 183 751 160 q 1049 253 936 206 q 1083 261 1069 261 q 1117 244 1106 261 q 1128 201 1128 228 q 1036 76 1128 117 q 831 13 938 33 q 629 -7 725 -7 m 679 1267 q 615 1289 640 1267 q 564 1363 590 1311 l 494 1500 q 481 1551 481 1528 q 500 1597 481 1581 q 549 1613 519 1613 q 596 1601 578 1613 q 624 1563 614 1590 l 690 1388 l 799 1558 q 838 1601 818 1589 q 889 1613 857 1613 q 933 1599 915 1613 q 950 1563 950 1586 q 926 1504 950 1536 l 810 1344 q 750 1285 781 1304 q 679 1267 719 1267 z "},"Ç":{"ha":953,"x_min":89,"x_max":1128,"o":"m 629 -7 q 342 53 464 -7 q 154 225 219 114 q 89 483 89 336 q 166 846 89 688 q 375 1091 243 1004 q 668 1178 507 1178 q 896 1101 818 1178 q 974 897 974 1024 q 944 761 974 813 q 858 710 914 710 q 797 728 819 710 q 775 781 775 746 q 781 826 775 793 q 789 893 789 868 q 654 1019 789 1019 q 479 960 563 1019 q 344 784 396 900 q 293 508 293 668 q 386 251 293 342 q 661 160 479 160 q 844 183 751 160 q 1049 253 936 206 q 1083 261 1069 261 q 1117 244 1106 261 q 1128 201 1128 228 q 1036 76 1128 117 q 831 13 938 33 q 629 -7 725 -7 m 424 -353 q 338 -346 371 -353 q 297 -325 310 -340 q 283 -281 283 -310 q 297 -232 283 -247 q 339 -217 311 -217 q 357 -218 350 -217 q 431 -224 394 -224 q 517 -201 486 -224 q 549 -131 549 -178 q 519 -76 549 -96 q 438 -56 489 -56 q 382 -46 401 -56 q 363 -12 363 -36 q 364 0 363 -4 q 386 41 369 28 q 438 54 403 54 l 474 54 q 631 8 572 54 q 689 -119 689 -37 q 617 -288 689 -224 q 424 -353 546 -353 z "},"Ĉ":{"ha":953,"x_min":89,"x_max":1128,"o":"m 629 -7 q 342 53 464 -7 q 154 225 219 114 q 89 483 89 336 q 166 846 89 688 q 375 1091 243 1004 q 668 1178 507 1178 q 896 1101 818 1178 q 974 897 974 1024 q 944 761 974 813 q 858 710 914 710 q 797 728 819 710 q 775 781 775 746 q 781 826 775 793 q 789 893 789 868 q 654 1019 789 1019 q 479 960 563 1019 q 344 784 396 900 q 293 508 293 668 q 386 251 293 342 q 661 160 479 160 q 844 183 751 160 q 1049 253 936 206 q 1083 261 1069 261 q 1117 244 1106 261 q 1128 201 1128 228 q 1036 76 1128 117 q 831 13 938 33 q 629 -7 725 -7 m 711 1518 l 600 1321 q 560 1279 585 1293 q 508 1265 535 1265 q 458 1281 479 1265 q 438 1324 438 1297 q 456 1375 438 1347 l 583 1565 q 729 1643 635 1643 q 798 1621 772 1643 q 844 1547 824 1599 l 910 1379 q 918 1340 918 1358 q 894 1287 918 1307 q 839 1267 871 1267 q 795 1280 815 1267 q 768 1317 775 1293 l 711 1518 z "},"Ċ":{"ha":953,"x_min":89,"x_max":1128,"o":"m 629 -7 q 342 53 464 -7 q 154 225 219 114 q 89 483 89 336 q 166 846 89 688 q 375 1091 243 1004 q 668 1178 507 1178 q 896 1101 818 1178 q 974 897 974 1024 q 944 761 974 813 q 858 710 914 710 q 797 728 819 710 q 775 781 775 746 q 781 826 775 793 q 789 893 789 868 q 654 1019 789 1019 q 479 960 563 1019 q 344 784 396 900 q 293 508 293 668 q 386 251 293 342 q 661 160 479 160 q 844 183 751 160 q 1049 253 936 206 q 1083 261 1069 261 q 1117 244 1106 261 q 1128 201 1128 228 q 1036 76 1128 117 q 831 13 938 33 q 629 -7 725 -7 m 682 1267 q 593 1295 624 1267 q 563 1372 563 1324 q 602 1456 563 1422 q 699 1489 642 1489 q 784 1463 751 1489 q 817 1390 817 1438 q 779 1300 817 1333 q 682 1267 742 1267 z "},"D":{"ha":1161,"x_min":63,"x_max":1135,"o":"m 428 -7 q 246 7 347 -7 q 169 36 190 14 q 151 108 149 58 q 197 448 161 246 q 285 838 233 650 q 324 886 294 872 q 400 900 353 900 q 485 853 485 900 q 476 808 485 833 q 404 510 440 697 q 353 154 368 324 q 447 150 394 150 q 810 297 690 150 q 931 690 931 444 q 836 946 931 856 q 569 1036 742 1036 q 349 1001 458 1036 q 153 910 240 967 q 114 897 135 897 q 76 917 90 897 q 63 967 63 938 q 74 1022 63 1000 q 111 1061 85 1043 q 336 1160 207 1126 q 585 1194 465 1194 q 878 1135 754 1194 q 1068 963 1001 1076 q 1135 688 1135 849 q 1051 322 1135 478 q 808 79 968 165 q 428 -7 649 -7 z "},"Ǆ":{"ha":2126,"x_min":114,"x_max":2306,"o":"m 392 -7 q 304 -4 342 -7 q 210 7 267 -1 q 133 36 154 14 q 115 108 111 58 q 162 451 126 250 q 249 838 197 651 q 361 903 267 903 q 446 853 446 903 q 438 808 446 833 q 368 510 403 696 q 318 154 333 324 q 411 150 372 150 q 774 295 654 150 q 894 679 894 440 q 802 946 894 856 q 561 1036 710 1036 q 447 1026 503 1036 q 310 992 390 1017 q 268 983 285 983 q 218 1040 218 983 q 242 1109 218 1085 q 339 1158 267 1133 q 576 1194 440 1194 q 858 1131 740 1194 q 1037 953 975 1068 q 1099 686 1099 839 q 1015 322 1099 478 q 772 79 932 165 q 392 -7 613 -7 m 2267 310 q 2295 293 2285 310 q 2306 247 2306 276 q 2279 161 2306 193 q 2128 31 2201 68 q 1953 -7 2056 -7 q 1819 11 1881 -7 q 1671 65 1758 29 q 1538 117 1596 97 q 1422 20 1474 47 q 1314 -7 1371 -7 q 1192 28 1238 -7 q 1146 121 1146 64 q 1174 200 1146 164 q 1254 257 1203 236 q 1374 278 1306 278 q 1432 276 1413 278 q 1924 992 1704 615 q 1681 1013 1804 1013 q 1447 976 1521 1013 q 1372 860 1372 939 q 1378 819 1372 836 q 1394 781 1383 803 q 1407 744 1407 756 q 1381 698 1407 717 q 1322 679 1356 679 q 1265 700 1288 679 q 1223 765 1239 724 q 1207 857 1207 806 q 1342 1097 1207 1019 q 1697 1175 1476 1175 q 1922 1163 1807 1175 q 2136 1122 2036 1150 q 2192 1091 2178 1111 q 2206 1039 2206 1071 q 2186 981 2206 1001 q 2132 960 2167 960 l 2122 960 q 1818 490 1972 715 q 1644 247 1694 311 q 1785 214 1725 229 q 1903 185 1858 194 q 1982 176 1949 176 q 2120 203 2063 176 q 2229 290 2178 231 q 2267 310 2246 310 m 1763 1267 q 1699 1289 1724 1267 q 1647 1363 1674 1311 l 1578 1500 q 1564 1551 1564 1528 q 1583 1597 1564 1581 q 1632 1613 1603 1613 q 1679 1601 1661 1613 q 1707 1563 1697 1590 l 1774 1388 l 1882 1558 q 1921 1601 1901 1589 q 1972 1613 1940 1613 q 2016 1599 1999 1613 q 2033 1563 2033 1586 q 2010 1504 2033 1536 l 1893 1344 q 1833 1285 1864 1304 q 1763 1267 1803 1267 z "},"Ð":{"ha":1140,"x_min":21,"x_max":1115,"o":"m 589 1194 q 873 1131 754 1194 q 1053 953 992 1068 q 1115 686 1115 839 q 1031 330 1115 488 q 788 83 947 172 q 408 -7 628 -7 q 215 7 317 -7 q 140 36 161 14 q 124 108 119 58 q 186 532 142 300 l 90 532 q 21 596 21 532 q 62 677 21 653 q 192 701 103 701 l 224 701 q 338 1108 274 917 q 362 1153 347 1136 q 404 1178 376 1171 q 589 1194 472 1194 m 426 150 q 698 222 589 150 q 859 413 807 293 q 911 679 911 532 q 818 949 911 858 q 571 1039 725 1039 q 510 1038 525 1039 q 417 700 464 899 q 543 699 457 699 q 663 681 632 699 q 694 622 694 663 q 676 554 694 579 q 607 529 658 529 q 454 532 563 529 l 382 533 q 325 154 340 325 q 426 150 368 150 z "},"Ď":{"ha":1161,"x_min":63,"x_max":1135,"o":"m 428 -7 q 246 7 347 -7 q 169 36 190 14 q 151 108 149 58 q 197 448 161 246 q 285 838 233 650 q 324 886 294 872 q 400 900 353 900 q 485 853 485 900 q 476 808 485 833 q 404 510 440 697 q 353 154 368 324 q 447 150 394 150 q 810 297 690 150 q 931 690 931 444 q 836 946 931 856 q 569 1036 742 1036 q 349 1001 458 1036 q 153 910 240 967 q 114 897 135 897 q 76 917 90 897 q 63 967 63 938 q 74 1022 63 1000 q 111 1061 85 1043 q 336 1160 207 1126 q 585 1194 465 1194 q 878 1135 754 1194 q 1068 963 1001 1076 q 1135 688 1135 849 q 1051 322 1135 478 q 808 79 968 165 q 428 -7 649 -7 m 626 1267 q 563 1289 588 1267 q 511 1363 538 1311 l 442 1500 q 428 1551 428 1528 q 447 1597 428 1581 q 496 1613 467 1613 q 543 1601 525 1613 q 571 1563 561 1590 l 638 1388 l 746 1558 q 785 1601 765 1589 q 836 1613 804 1613 q 880 1599 863 1613 q 897 1563 897 1586 q 874 1504 897 1536 l 757 1344 q 697 1285 728 1304 q 626 1267 667 1267 z "},"Đ":{"ha":1140,"x_min":21,"x_max":1115,"o":"m 589 1194 q 873 1131 754 1194 q 1053 953 992 1068 q 1115 686 1115 839 q 1031 330 1115 488 q 788 83 947 172 q 408 -7 628 -7 q 215 7 317 -7 q 140 36 161 14 q 124 108 119 58 q 186 532 142 300 l 90 532 q 21 596 21 532 q 62 677 21 653 q 192 701 103 701 l 224 701 q 338 1108 274 917 q 362 1153 347 1136 q 404 1178 376 1171 q 589 1194 472 1194 m 426 150 q 698 222 589 150 q 859 413 807 293 q 911 679 911 532 q 818 949 911 858 q 571 1039 725 1039 q 510 1038 525 1039 q 417 700 464 899 q 543 699 457 699 q 663 681 632 699 q 694 622 694 663 q 676 554 694 579 q 607 529 658 529 q 454 532 563 529 l 382 533 q 325 154 340 325 q 426 150 368 150 z "},"ǅ":{"ha":1654,"x_min":114,"x_max":1753,"o":"m 392 -7 q 304 -4 342 -7 q 210 7 267 -1 q 133 36 154 14 q 115 108 111 58 q 162 451 126 250 q 249 838 197 651 q 361 903 267 903 q 446 853 446 903 q 438 808 446 833 q 368 510 403 696 q 318 154 333 324 q 411 150 372 150 q 774 295 654 150 q 894 679 894 440 q 802 946 894 856 q 561 1036 710 1036 q 447 1026 503 1036 q 310 992 390 1017 q 268 983 285 983 q 218 1040 218 983 q 242 1109 218 1085 q 339 1158 267 1133 q 576 1194 440 1194 q 858 1131 740 1194 q 1037 953 975 1068 q 1099 686 1099 839 q 1015 322 1099 478 q 772 79 932 165 q 392 -7 613 -7 m 1624 151 q 1670 130 1654 153 q 1686 74 1686 107 q 1670 13 1686 39 q 1626 -14 1654 -14 q 1533 -12 1576 -14 q 1456 -10 1489 -11 q 1275 -4 1328 -4 q 1222 -17 1257 -4 q 1161 -31 1178 -31 q 1088 64 1088 -31 q 1133 209 1088 128 q 1253 367 1179 290 q 1406 494 1326 443 l 1210 489 q 1163 510 1179 488 q 1147 565 1147 533 q 1163 624 1147 599 q 1207 650 1179 650 q 1358 640 1268 650 q 1424 635 1374 639 q 1518 631 1475 631 q 1571 642 1532 631 q 1598 649 1578 643 q 1632 654 1618 654 q 1669 635 1654 654 q 1683 575 1683 615 q 1662 504 1683 531 q 1597 457 1640 478 q 1483 381 1549 435 q 1360 260 1418 326 q 1274 136 1301 194 l 1624 151 m 1451 738 q 1386 763 1410 738 q 1350 842 1363 788 l 1289 1092 q 1285 1122 1285 1108 q 1308 1176 1285 1157 q 1363 1194 1331 1194 q 1414 1178 1394 1194 q 1439 1119 1433 1163 l 1471 874 l 1592 1119 q 1636 1178 1613 1163 q 1689 1193 1660 1193 q 1735 1180 1718 1193 q 1753 1142 1753 1167 q 1738 1092 1753 1118 l 1582 824 q 1526 759 1557 781 q 1451 738 1494 738 z "},"E":{"ha":953,"x_min":43,"x_max":1128,"o":"m 1049 253 q 1083 261 1069 261 q 1117 244 1106 261 q 1128 201 1128 228 q 1108 131 1128 160 q 1039 78 1088 101 q 826 16 957 39 q 569 -7 696 -7 q 276 33 394 -7 q 101 142 158 72 q 43 299 43 211 q 120 502 43 418 q 347 624 197 586 q 222 707 265 647 q 178 840 178 767 q 241 1017 178 940 q 411 1136 304 1094 q 646 1178 518 1178 q 904 1103 818 1178 q 990 911 990 1029 q 960 778 990 829 q 875 728 931 728 q 814 745 836 728 q 792 797 792 763 q 799 849 792 821 q 806 911 806 894 q 768 992 806 961 q 643 1024 731 1024 q 454 974 525 1024 q 383 839 383 924 q 437 731 383 774 q 611 685 490 689 q 654 671 642 683 q 667 629 667 658 q 583 536 667 538 q 392 504 468 533 q 283 430 317 475 q 249 333 249 385 q 329 203 249 247 q 585 160 410 160 q 828 187 700 160 q 1049 253 957 214 z "},"É":{"ha":953,"x_min":43,"x_max":1128,"o":"m 1049 253 q 1083 261 1069 261 q 1117 244 1106 261 q 1128 201 1128 228 q 1108 131 1128 160 q 1039 78 1088 101 q 826 16 957 39 q 569 -7 696 -7 q 276 33 394 -7 q 101 142 158 72 q 43 299 43 211 q 120 502 43 418 q 347 624 197 586 q 222 707 265 647 q 178 840 178 767 q 241 1017 178 940 q 411 1136 304 1094 q 646 1178 518 1178 q 904 1103 818 1178 q 990 911 990 1029 q 960 778 990 829 q 875 728 931 728 q 814 745 836 728 q 792 797 792 763 q 799 849 792 821 q 806 911 806 894 q 768 992 806 961 q 643 1024 731 1024 q 454 974 525 1024 q 383 839 383 924 q 437 731 383 774 q 611 685 490 689 q 654 671 642 683 q 667 629 667 658 q 583 536 667 538 q 392 504 468 533 q 283 430 317 475 q 249 333 249 385 q 329 203 249 247 q 585 160 410 160 q 828 187 700 160 q 1049 253 957 214 m 658 1267 q 621 1281 636 1267 q 606 1317 606 1296 q 632 1367 606 1344 l 871 1571 q 932 1594 899 1594 q 994 1569 968 1594 q 1021 1507 1021 1543 q 947 1408 1021 1447 l 688 1274 q 658 1267 675 1267 z "},"Ĕ":{"ha":953,"x_min":43,"x_max":1128,"o":"m 1049 253 q 1083 261 1069 261 q 1117 244 1106 261 q 1128 201 1128 228 q 1108 131 1128 160 q 1039 78 1088 101 q 826 16 957 39 q 569 -7 696 -7 q 276 33 394 -7 q 101 142 158 72 q 43 299 43 211 q 120 502 43 418 q 347 624 197 586 q 222 707 265 647 q 178 840 178 767 q 241 1017 178 940 q 411 1136 304 1094 q 646 1178 518 1178 q 904 1103 818 1178 q 990 911 990 1029 q 960 778 990 829 q 875 728 931 728 q 814 745 836 728 q 792 797 792 763 q 799 849 792 821 q 806 911 806 894 q 768 992 806 961 q 643 1024 731 1024 q 454 974 525 1024 q 383 839 383 924 q 437 731 383 774 q 611 685 490 689 q 654 671 642 683 q 667 629 667 658 q 583 536 667 538 q 392 504 468 533 q 283 430 317 475 q 249 333 249 385 q 329 203 249 247 q 585 160 410 160 q 828 187 700 160 q 1049 253 957 214 m 667 1267 q 517 1295 581 1267 q 422 1369 454 1324 q 389 1461 389 1414 q 413 1507 389 1490 q 471 1524 436 1524 q 515 1513 499 1524 q 542 1478 531 1503 q 593 1417 563 1433 q 678 1400 624 1400 q 765 1420 732 1400 q 826 1482 799 1440 q 906 1524 854 1524 q 949 1510 932 1524 q 965 1471 965 1496 q 929 1378 965 1426 q 825 1299 893 1331 q 667 1267 757 1267 z "},"Ě":{"ha":953,"x_min":43,"x_max":1128,"o":"m 1049 253 q 1083 261 1069 261 q 1117 244 1106 261 q 1128 201 1128 228 q 1108 131 1128 160 q 1039 78 1088 101 q 826 16 957 39 q 569 -7 696 -7 q 276 33 394 -7 q 101 142 158 72 q 43 299 43 211 q 120 502 43 418 q 347 624 197 586 q 222 707 265 647 q 178 840 178 767 q 241 1017 178 940 q 411 1136 304 1094 q 646 1178 518 1178 q 904 1103 818 1178 q 990 911 990 1029 q 960 778 990 829 q 875 728 931 728 q 814 745 836 728 q 792 797 792 763 q 799 849 792 821 q 806 911 806 894 q 768 992 806 961 q 643 1024 731 1024 q 454 974 525 1024 q 383 839 383 924 q 437 731 383 774 q 611 685 490 689 q 654 671 642 683 q 667 629 667 658 q 583 536 667 538 q 392 504 468 533 q 283 430 317 475 q 249 333 249 385 q 329 203 249 247 q 585 160 410 160 q 828 187 700 160 q 1049 253 957 214 m 660 1267 q 596 1289 621 1267 q 544 1363 571 1311 l 475 1500 q 461 1551 461 1528 q 481 1597 461 1581 q 529 1613 500 1613 q 576 1601 558 1613 q 604 1563 594 1590 l 671 1388 l 779 1558 q 818 1601 799 1589 q 869 1613 838 1613 q 913 1599 896 1613 q 931 1563 931 1586 q 907 1504 931 1536 l 790 1344 q 731 1285 761 1304 q 660 1267 700 1267 z "},"Ê":{"ha":953,"x_min":43,"x_max":1128,"o":"m 1049 253 q 1083 261 1069 261 q 1117 244 1106 261 q 1128 201 1128 228 q 1108 131 1128 160 q 1039 78 1088 101 q 826 16 957 39 q 569 -7 696 -7 q 276 33 394 -7 q 101 142 158 72 q 43 299 43 211 q 120 502 43 418 q 347 624 197 586 q 222 707 265 647 q 178 840 178 767 q 241 1017 178 940 q 411 1136 304 1094 q 646 1178 518 1178 q 904 1103 818 1178 q 990 911 990 1029 q 960 778 990 829 q 875 728 931 728 q 814 745 836 728 q 792 797 792 763 q 799 849 792 821 q 806 911 806 894 q 768 992 806 961 q 643 1024 731 1024 q 454 974 525 1024 q 383 839 383 924 q 437 731 383 774 q 611 685 490 689 q 654 671 642 683 q 667 629 667 658 q 583 536 667 538 q 392 504 468 533 q 283 430 317 475 q 249 333 249 385 q 329 203 249 247 q 585 160 410 160 q 828 187 700 160 q 1049 253 957 214 m 692 1518 l 581 1321 q 540 1279 565 1293 q 489 1265 515 1265 q 439 1281 460 1265 q 418 1324 418 1297 q 436 1375 418 1347 l 564 1565 q 710 1643 615 1643 q 778 1621 753 1643 q 825 1547 804 1599 l 890 1379 q 899 1340 899 1358 q 875 1287 899 1307 q 819 1267 851 1267 q 776 1280 796 1267 q 749 1317 756 1293 l 692 1518 z "},"Ế":{"ha":953,"x_min":43,"x_max":1128,"o":"m 1049 253 q 1083 261 1069 261 q 1117 244 1106 261 q 1128 201 1128 228 q 1108 131 1128 160 q 1039 78 1088 101 q 826 16 957 39 q 569 -7 696 -7 q 276 33 394 -7 q 101 142 158 72 q 43 299 43 211 q 120 502 43 418 q 347 624 197 586 q 222 707 265 647 q 178 840 178 767 q 241 1017 178 940 q 411 1136 304 1094 q 646 1178 518 1178 q 904 1103 818 1178 q 990 911 990 1029 q 960 778 990 829 q 875 728 931 728 q 814 745 836 728 q 792 797 792 763 q 799 849 792 821 q 806 911 806 894 q 768 992 806 961 q 643 1024 731 1024 q 454 974 525 1024 q 383 839 383 924 q 437 731 383 774 q 611 685 490 689 q 654 671 642 683 q 667 629 667 658 q 583 536 667 538 q 392 504 468 533 q 283 430 317 475 q 249 333 249 385 q 329 203 249 247 q 585 160 410 160 q 828 187 700 160 q 1049 253 957 214 m 878 1526 q 846 1539 858 1526 q 833 1569 833 1551 q 856 1611 833 1589 l 965 1721 q 1017 1743 988 1743 q 1070 1720 1047 1743 q 1093 1667 1093 1697 q 1078 1619 1093 1642 q 1031 1583 1064 1597 l 903 1532 q 878 1526 886 1526 m 489 1260 q 442 1271 461 1260 q 424 1301 424 1282 q 450 1354 424 1324 l 564 1485 q 710 1547 619 1547 q 778 1529 753 1547 q 825 1471 804 1511 l 879 1364 q 892 1319 892 1339 q 868 1275 892 1290 q 814 1260 844 1260 q 776 1267 790 1260 q 753 1292 761 1274 l 685 1436 l 576 1294 q 489 1260 549 1260 z "},"Ệ":{"ha":953,"x_min":43,"x_max":1128,"o":"m 1049 253 q 1083 261 1069 261 q 1117 244 1106 261 q 1128 201 1128 228 q 1108 131 1128 160 q 1039 78 1088 101 q 826 16 957 39 q 569 -7 696 -7 q 276 33 394 -7 q 101 142 158 72 q 43 299 43 211 q 120 502 43 418 q 347 624 197 586 q 222 707 265 647 q 178 840 178 767 q 241 1017 178 940 q 411 1136 304 1094 q 646 1178 518 1178 q 904 1103 818 1178 q 990 911 990 1029 q 960 778 990 829 q 875 728 931 728 q 814 745 836 728 q 792 797 792 763 q 799 849 792 821 q 806 911 806 894 q 768 992 806 961 q 643 1024 731 1024 q 454 974 525 1024 q 383 839 383 924 q 437 731 383 774 q 611 685 490 689 q 654 671 642 683 q 667 629 667 658 q 583 536 667 538 q 392 504 468 533 q 283 430 317 475 q 249 333 249 385 q 329 203 249 247 q 585 160 410 160 q 828 187 700 160 q 1049 253 957 214 m 481 -322 q 392 -294 422 -322 q 361 -217 361 -265 q 401 -133 361 -167 q 497 -100 440 -100 q 583 -126 550 -100 q 615 -199 615 -151 q 578 -289 615 -256 q 481 -322 540 -322 m 692 1518 l 581 1321 q 540 1279 565 1293 q 489 1265 515 1265 q 439 1281 460 1265 q 418 1324 418 1297 q 436 1375 418 1347 l 564 1565 q 710 1643 615 1643 q 778 1621 753 1643 q 825 1547 804 1599 l 890 1379 q 899 1340 899 1358 q 875 1287 899 1307 q 819 1267 851 1267 q 776 1280 796 1267 q 749 1317 756 1293 l 692 1518 z "},"Ề":{"ha":953,"x_min":43,"x_max":1128,"o":"m 1049 253 q 1083 261 1069 261 q 1117 244 1106 261 q 1128 201 1128 228 q 1108 131 1128 160 q 1039 78 1088 101 q 826 16 957 39 q 569 -7 696 -7 q 276 33 394 -7 q 101 142 158 72 q 43 299 43 211 q 120 502 43 418 q 347 624 197 586 q 222 707 265 647 q 178 840 178 767 q 241 1017 178 940 q 411 1136 304 1094 q 646 1178 518 1178 q 904 1103 818 1178 q 990 911 990 1029 q 960 778 990 829 q 875 728 931 728 q 814 745 836 728 q 792 797 792 763 q 799 849 792 821 q 806 911 806 894 q 768 992 806 961 q 643 1024 731 1024 q 454 974 525 1024 q 383 839 383 924 q 437 731 383 774 q 611 685 490 689 q 654 671 642 683 q 667 629 667 658 q 583 536 667 538 q 392 504 468 533 q 283 430 317 475 q 249 333 249 385 q 329 203 249 247 q 585 160 410 160 q 828 187 700 160 q 1049 253 957 214 m 515 1526 q 490 1532 507 1526 l 363 1583 q 315 1619 329 1597 q 300 1667 300 1642 q 323 1720 300 1697 q 376 1743 346 1743 q 428 1721 406 1743 l 538 1611 q 560 1569 560 1589 q 547 1539 560 1551 q 515 1526 535 1526 m 489 1260 q 442 1271 461 1260 q 424 1301 424 1282 q 450 1354 424 1324 l 564 1485 q 710 1547 619 1547 q 778 1529 753 1547 q 825 1471 804 1511 l 879 1364 q 892 1319 892 1339 q 868 1275 892 1290 q 814 1260 844 1260 q 776 1267 790 1260 q 753 1292 761 1274 l 685 1436 l 576 1294 q 489 1260 549 1260 z "},"Ể":{"ha":953,"x_min":43,"x_max":1128,"o":"m 1049 253 q 1083 261 1069 261 q 1117 244 1106 261 q 1128 201 1128 228 q 1108 131 1128 160 q 1039 78 1088 101 q 826 16 957 39 q 569 -7 696 -7 q 276 33 394 -7 q 101 142 158 72 q 43 299 43 211 q 120 502 43 418 q 347 624 197 586 q 222 707 265 647 q 178 840 178 767 q 241 1017 178 940 q 411 1136 304 1094 q 646 1178 518 1178 q 904 1103 818 1178 q 990 911 990 1029 q 960 778 990 829 q 875 728 931 728 q 814 745 836 728 q 792 797 792 763 q 799 849 792 821 q 806 911 806 894 q 768 992 806 961 q 643 1024 731 1024 q 454 974 525 1024 q 383 839 383 924 q 437 731 383 774 q 611 685 490 689 q 654 671 642 683 q 667 629 667 658 q 583 536 667 538 q 392 504 468 533 q 283 430 317 475 q 249 333 249 385 q 329 203 249 247 q 585 160 410 160 q 828 187 700 160 q 1049 253 957 214 m 913 1440 q 876 1451 886 1440 q 865 1486 865 1463 q 921 1539 865 1539 q 974 1553 956 1539 q 992 1588 992 1567 q 936 1632 992 1632 q 888 1629 914 1632 q 857 1626 863 1626 q 831 1635 838 1626 q 824 1669 824 1644 q 837 1706 824 1694 q 878 1724 850 1717 q 939 1729 900 1729 q 1104 1601 1104 1729 q 1058 1483 1104 1526 q 929 1440 1011 1440 l 913 1440 m 489 1260 q 442 1271 461 1260 q 424 1301 424 1282 q 450 1354 424 1324 l 564 1485 q 710 1547 619 1547 q 778 1529 753 1547 q 825 1471 804 1511 l 879 1364 q 892 1319 892 1339 q 868 1275 892 1290 q 814 1260 844 1260 q 776 1267 790 1260 q 753 1292 761 1274 l 685 1436 l 576 1294 q 489 1260 549 1260 z "},"Ễ":{"ha":953,"x_min":43,"x_max":1128,"o":"m 1049 253 q 1083 261 1069 261 q 1117 244 1106 261 q 1128 201 1128 228 q 1108 131 1128 160 q 1039 78 1088 101 q 826 16 957 39 q 569 -7 696 -7 q 276 33 394 -7 q 101 142 158 72 q 43 299 43 211 q 120 502 43 418 q 347 624 197 586 q 222 707 265 647 q 178 840 178 767 q 241 1017 178 940 q 411 1136 304 1094 q 646 1178 518 1178 q 904 1103 818 1178 q 990 911 990 1029 q 960 778 990 829 q 875 728 931 728 q 814 745 836 728 q 792 797 792 763 q 799 849 792 821 q 806 911 806 894 q 768 992 806 961 q 643 1024 731 1024 q 454 974 525 1024 q 383 839 383 924 q 437 731 383 774 q 611 685 490 689 q 654 671 642 683 q 667 629 667 658 q 583 536 667 538 q 392 504 468 533 q 283 430 317 475 q 249 333 249 385 q 329 203 249 247 q 585 160 410 160 q 828 187 700 160 q 1049 253 957 214 m 813 1554 q 776 1560 792 1554 q 735 1582 760 1565 l 608 1665 l 556 1594 q 501 1569 536 1569 q 463 1581 479 1569 q 447 1614 447 1593 q 492 1704 447 1642 q 606 1775 542 1775 q 642 1769 626 1775 q 683 1746 658 1764 l 810 1664 l 863 1733 q 887 1752 872 1746 q 918 1758 901 1758 q 956 1747 940 1758 q 971 1715 971 1736 q 961 1683 971 1700 q 926 1625 951 1665 q 813 1554 881 1554 m 489 1260 q 442 1271 461 1260 q 424 1301 424 1282 q 450 1354 424 1324 l 564 1485 q 710 1547 619 1547 q 778 1529 753 1547 q 825 1471 804 1511 l 879 1364 q 892 1319 892 1339 q 868 1275 892 1290 q 814 1260 844 1260 q 776 1267 790 1260 q 753 1292 761 1274 l 685 1436 l 576 1294 q 489 1260 549 1260 z "},"Ȅ":{"ha":953,"x_min":43,"x_max":1128,"o":"m 1049 253 q 1083 261 1069 261 q 1117 244 1106 261 q 1128 201 1128 228 q 1108 131 1128 160 q 1039 78 1088 101 q 826 16 957 39 q 569 -7 696 -7 q 276 33 394 -7 q 101 142 158 72 q 43 299 43 211 q 120 502 43 418 q 347 624 197 586 q 222 707 265 647 q 178 840 178 767 q 241 1017 178 940 q 411 1136 304 1094 q 646 1178 518 1178 q 904 1103 818 1178 q 990 911 990 1029 q 960 778 990 829 q 875 728 931 728 q 814 745 836 728 q 792 797 792 763 q 799 849 792 821 q 806 911 806 894 q 768 992 806 961 q 643 1024 731 1024 q 454 974 525 1024 q 383 839 383 924 q 437 731 383 774 q 611 685 490 689 q 654 671 642 683 q 667 629 667 658 q 583 536 667 538 q 392 504 468 533 q 283 430 317 475 q 249 333 249 385 q 329 203 249 247 q 585 160 410 160 q 828 187 700 160 q 1049 253 957 214 m 535 1267 q 482 1297 501 1267 l 393 1442 q 371 1510 371 1478 q 397 1571 371 1547 q 457 1594 424 1594 q 502 1580 482 1594 q 531 1536 522 1565 l 588 1339 q 590 1319 590 1325 q 574 1281 590 1296 q 535 1267 557 1267 m 786 1267 q 733 1297 753 1267 l 644 1442 q 622 1510 622 1478 q 649 1571 622 1547 q 708 1594 675 1594 q 753 1580 733 1594 q 782 1536 774 1565 l 839 1339 q 842 1319 842 1325 q 825 1281 842 1296 q 786 1267 808 1267 z "},"Ë":{"ha":953,"x_min":43,"x_max":1128,"o":"m 1049 253 q 1083 261 1069 261 q 1117 244 1106 261 q 1128 201 1128 228 q 1108 131 1128 160 q 1039 78 1088 101 q 826 16 957 39 q 569 -7 696 -7 q 276 33 394 -7 q 101 142 158 72 q 43 299 43 211 q 120 502 43 418 q 347 624 197 586 q 222 707 265 647 q 178 840 178 767 q 241 1017 178 940 q 411 1136 304 1094 q 646 1178 518 1178 q 904 1103 818 1178 q 990 911 990 1029 q 960 778 990 829 q 875 728 931 728 q 814 745 836 728 q 792 797 792 763 q 799 849 792 821 q 806 911 806 894 q 768 992 806 961 q 643 1024 731 1024 q 454 974 525 1024 q 383 839 383 924 q 437 731 383 774 q 611 685 490 689 q 654 671 642 683 q 667 629 667 658 q 583 536 667 538 q 392 504 468 533 q 283 430 317 475 q 249 333 249 385 q 329 203 249 247 q 585 160 410 160 q 828 187 700 160 q 1049 253 957 214 m 521 1267 q 450 1292 476 1267 q 424 1369 424 1318 q 454 1458 424 1426 q 536 1490 485 1490 q 607 1465 581 1490 q 633 1388 633 1439 q 603 1299 633 1331 q 521 1267 572 1267 m 810 1267 q 739 1292 765 1267 q 713 1369 713 1318 q 743 1458 713 1426 q 825 1490 774 1490 q 896 1465 869 1490 q 922 1388 922 1439 q 892 1299 922 1331 q 810 1267 861 1267 z "},"Ė":{"ha":953,"x_min":43,"x_max":1128,"o":"m 1049 253 q 1083 261 1069 261 q 1117 244 1106 261 q 1128 201 1128 228 q 1108 131 1128 160 q 1039 78 1088 101 q 826 16 957 39 q 569 -7 696 -7 q 276 33 394 -7 q 101 142 158 72 q 43 299 43 211 q 120 502 43 418 q 347 624 197 586 q 222 707 265 647 q 178 840 178 767 q 241 1017 178 940 q 411 1136 304 1094 q 646 1178 518 1178 q 904 1103 818 1178 q 990 911 990 1029 q 960 778 990 829 q 875 728 931 728 q 814 745 836 728 q 792 797 792 763 q 799 849 792 821 q 806 911 806 894 q 768 992 806 961 q 643 1024 731 1024 q 454 974 525 1024 q 383 839 383 924 q 437 731 383 774 q 611 685 490 689 q 654 671 642 683 q 667 629 667 658 q 583 536 667 538 q 392 504 468 533 q 283 430 317 475 q 249 333 249 385 q 329 203 249 247 q 585 160 410 160 q 828 187 700 160 q 1049 253 957 214 m 663 1267 q 574 1295 604 1267 q 543 1372 543 1324 q 583 1456 543 1422 q 679 1489 622 1489 q 765 1463 732 1489 q 797 1390 797 1438 q 760 1300 797 1333 q 663 1267 722 1267 z "},"Ẹ":{"ha":953,"x_min":43,"x_max":1128,"o":"m 1049 253 q 1083 261 1069 261 q 1117 244 1106 261 q 1128 201 1128 228 q 1108 131 1128 160 q 1039 78 1088 101 q 826 16 957 39 q 569 -7 696 -7 q 276 33 394 -7 q 101 142 158 72 q 43 299 43 211 q 120 502 43 418 q 347 624 197 586 q 222 707 265 647 q 178 840 178 767 q 241 1017 178 940 q 411 1136 304 1094 q 646 1178 518 1178 q 904 1103 818 1178 q 990 911 990 1029 q 960 778 990 829 q 875 728 931 728 q 814 745 836 728 q 792 797 792 763 q 799 849 792 821 q 806 911 806 894 q 768 992 806 961 q 643 1024 731 1024 q 454 974 525 1024 q 383 839 383 924 q 437 731 383 774 q 611 685 490 689 q 654 671 642 683 q 667 629 667 658 q 583 536 667 538 q 392 504 468 533 q 283 430 317 475 q 249 333 249 385 q 329 203 249 247 q 585 160 410 160 q 828 187 700 160 q 1049 253 957 214 m 481 -322 q 392 -294 422 -322 q 361 -217 361 -265 q 401 -133 361 -167 q 497 -100 440 -100 q 583 -126 550 -100 q 615 -199 615 -151 q 578 -289 615 -256 q 481 -322 540 -322 z "},"È":{"ha":953,"x_min":43,"x_max":1128,"o":"m 1049 253 q 1083 261 1069 261 q 1117 244 1106 261 q 1128 201 1128 228 q 1108 131 1128 160 q 1039 78 1088 101 q 826 16 957 39 q 569 -7 696 -7 q 276 33 394 -7 q 101 142 158 72 q 43 299 43 211 q 120 502 43 418 q 347 624 197 586 q 222 707 265 647 q 178 840 178 767 q 241 1017 178 940 q 411 1136 304 1094 q 646 1178 518 1178 q 904 1103 818 1178 q 990 911 990 1029 q 960 778 990 829 q 875 728 931 728 q 814 745 836 728 q 792 797 792 763 q 799 849 792 821 q 806 911 806 894 q 768 992 806 961 q 643 1024 731 1024 q 454 974 525 1024 q 383 839 383 924 q 437 731 383 774 q 611 685 490 689 q 654 671 642 683 q 667 629 667 658 q 583 536 667 538 q 392 504 468 533 q 283 430 317 475 q 249 333 249 385 q 329 203 249 247 q 585 160 410 160 q 828 187 700 160 q 1049 253 957 214 m 640 1267 q 611 1274 624 1267 l 351 1408 q 278 1507 278 1447 q 304 1569 278 1543 q 367 1594 331 1594 q 428 1571 400 1594 l 667 1367 q 693 1317 693 1344 q 678 1281 693 1296 q 640 1267 663 1267 z "},"Ẻ":{"ha":953,"x_min":43,"x_max":1128,"o":"m 1049 253 q 1083 261 1069 261 q 1117 244 1106 261 q 1128 201 1128 228 q 1108 131 1128 160 q 1039 78 1088 101 q 826 16 957 39 q 569 -7 696 -7 q 276 33 394 -7 q 101 142 158 72 q 43 299 43 211 q 120 502 43 418 q 347 624 197 586 q 222 707 265 647 q 178 840 178 767 q 241 1017 178 940 q 411 1136 304 1094 q 646 1178 518 1178 q 904 1103 818 1178 q 990 911 990 1029 q 960 778 990 829 q 875 728 931 728 q 814 745 836 728 q 792 797 792 763 q 799 849 792 821 q 806 911 806 894 q 768 992 806 961 q 643 1024 731 1024 q 454 974 525 1024 q 383 839 383 924 q 437 731 383 774 q 611 685 490 689 q 654 671 642 683 q 667 629 667 658 q 583 536 667 538 q 392 504 468 533 q 283 430 317 475 q 249 333 249 385 q 329 203 249 247 q 585 160 410 160 q 828 187 700 160 q 1049 253 957 214 m 642 1267 q 599 1279 611 1267 q 586 1317 586 1292 q 604 1368 586 1354 q 653 1382 622 1382 q 714 1399 693 1382 q 735 1440 735 1415 q 719 1478 735 1464 q 669 1492 703 1492 q 614 1488 644 1492 q 576 1485 583 1485 q 546 1496 554 1485 q 538 1536 538 1507 q 553 1579 538 1565 q 601 1600 569 1593 q 674 1607 635 1607 q 868 1456 868 1607 q 813 1317 868 1368 q 663 1267 758 1267 l 642 1267 z "},"Ȇ":{"ha":953,"x_min":43,"x_max":1128,"o":"m 1049 253 q 1083 261 1069 261 q 1117 244 1106 261 q 1128 201 1128 228 q 1108 131 1128 160 q 1039 78 1088 101 q 826 16 957 39 q 569 -7 696 -7 q 276 33 394 -7 q 101 142 158 72 q 43 299 43 211 q 120 502 43 418 q 347 624 197 586 q 222 707 265 647 q 178 840 178 767 q 241 1017 178 940 q 411 1136 304 1094 q 646 1178 518 1178 q 904 1103 818 1178 q 990 911 990 1029 q 960 778 990 829 q 875 728 931 728 q 814 745 836 728 q 792 797 792 763 q 799 849 792 821 q 806 911 806 894 q 768 992 806 961 q 643 1024 731 1024 q 454 974 525 1024 q 383 839 383 924 q 437 731 383 774 q 611 685 490 689 q 654 671 642 683 q 667 629 667 658 q 583 536 667 538 q 392 504 468 533 q 283 430 317 475 q 249 333 249 385 q 329 203 249 247 q 585 160 410 160 q 828 187 700 160 q 1049 253 957 214 m 451 1267 q 408 1281 425 1267 q 392 1319 392 1294 q 428 1412 392 1364 q 532 1492 464 1460 q 690 1524 600 1524 q 840 1495 776 1524 q 935 1422 903 1467 q 968 1329 968 1376 q 944 1283 968 1300 q 886 1267 921 1267 q 842 1277 858 1267 q 815 1313 826 1288 q 764 1374 794 1357 q 679 1390 733 1390 q 592 1370 625 1390 q 531 1308 558 1350 q 451 1267 503 1267 z "},"Ē":{"ha":953,"x_min":43,"x_max":1128,"o":"m 1049 253 q 1083 261 1069 261 q 1117 244 1106 261 q 1128 201 1128 228 q 1108 131 1128 160 q 1039 78 1088 101 q 826 16 957 39 q 569 -7 696 -7 q 276 33 394 -7 q 101 142 158 72 q 43 299 43 211 q 120 502 43 418 q 347 624 197 586 q 222 707 265 647 q 178 840 178 767 q 241 1017 178 940 q 411 1136 304 1094 q 646 1178 518 1178 q 904 1103 818 1178 q 990 911 990 1029 q 960 778 990 829 q 875 728 931 728 q 814 745 836 728 q 792 797 792 763 q 799 849 792 821 q 806 911 806 894 q 768 992 806 961 q 643 1024 731 1024 q 454 974 525 1024 q 383 839 383 924 q 437 731 383 774 q 611 685 490 689 q 654 671 642 683 q 667 629 667 658 q 583 536 667 538 q 392 504 468 533 q 283 430 317 475 q 249 333 249 385 q 329 203 249 247 q 585 160 410 160 q 828 187 700 160 q 1049 253 957 214 m 500 1267 q 438 1328 438 1267 q 457 1383 438 1363 q 511 1403 476 1403 l 821 1403 q 867 1388 851 1403 q 883 1346 883 1374 q 864 1288 883 1308 q 810 1267 844 1267 l 500 1267 z "},"Ę":{"ha":953,"x_min":43,"x_max":1128,"o":"m 1049 253 q 1083 261 1069 261 q 1117 244 1106 261 q 1128 201 1128 228 q 1108 131 1128 160 q 1039 78 1088 101 q 826 16 957 39 q 569 -7 696 -7 q 276 33 394 -7 q 101 142 158 72 q 43 299 43 211 q 120 502 43 418 q 347 624 197 586 q 222 707 265 647 q 178 840 178 767 q 241 1017 178 940 q 411 1136 304 1094 q 646 1178 518 1178 q 904 1103 818 1178 q 990 911 990 1029 q 960 778 990 829 q 875 728 931 728 q 814 745 836 728 q 792 797 792 763 q 799 849 792 821 q 806 911 806 894 q 768 992 806 961 q 643 1024 731 1024 q 454 974 525 1024 q 383 839 383 924 q 437 731 383 774 q 611 685 490 689 q 654 671 642 683 q 667 629 667 658 q 583 536 667 538 q 392 504 468 533 q 283 430 317 475 q 249 333 249 385 q 329 203 249 247 q 585 160 410 160 q 828 187 700 160 q 1049 253 957 214 m 675 -353 q 519 -302 578 -353 q 461 -164 461 -251 q 508 -19 461 -86 q 644 94 556 47 l 703 14 q 631 -60 654 -19 q 608 -140 608 -100 q 633 -201 608 -181 q 694 -222 658 -222 q 760 -212 731 -222 q 797 -204 783 -204 q 825 -217 817 -204 q 833 -257 833 -231 q 818 -306 833 -286 q 768 -339 803 -326 q 724 -349 751 -344 q 675 -353 697 -353 z "},"Ẽ":{"ha":953,"x_min":43,"x_max":1128,"o":"m 1049 253 q 1083 261 1069 261 q 1117 244 1106 261 q 1128 201 1128 228 q 1108 131 1128 160 q 1039 78 1088 101 q 826 16 957 39 q 569 -7 696 -7 q 276 33 394 -7 q 101 142 158 72 q 43 299 43 211 q 120 502 43 418 q 347 624 197 586 q 222 707 265 647 q 178 840 178 767 q 241 1017 178 940 q 411 1136 304 1094 q 646 1178 518 1178 q 904 1103 818 1178 q 990 911 990 1029 q 960 778 990 829 q 875 728 931 728 q 814 745 836 728 q 792 797 792 763 q 799 849 792 821 q 806 911 806 894 q 768 992 806 961 q 643 1024 731 1024 q 454 974 525 1024 q 383 839 383 924 q 437 731 383 774 q 611 685 490 689 q 654 671 642 683 q 667 629 667 658 q 583 536 667 538 q 392 504 468 533 q 283 430 317 475 q 249 333 249 385 q 329 203 249 247 q 585 160 410 160 q 828 187 700 160 q 1049 253 957 214 m 799 1267 q 757 1274 776 1267 q 707 1303 738 1282 l 558 1406 l 497 1318 q 469 1295 486 1303 q 433 1288 451 1288 q 388 1301 407 1288 q 369 1342 369 1315 q 421 1454 369 1379 q 556 1543 482 1543 q 598 1536 579 1543 q 647 1507 617 1529 l 796 1404 l 857 1492 q 885 1515 868 1507 q 921 1522 903 1522 q 966 1508 947 1522 q 985 1468 985 1494 q 974 1427 985 1450 q 933 1356 963 1404 q 871 1288 906 1310 q 799 1267 836 1267 z "},"F":{"ha":989,"x_min":-1,"x_max":1300,"o":"m 1232 1151 q 1285 1128 1271 1146 q 1300 1081 1300 1110 q 1197 992 1300 985 l 1149 996 q 985 1007 1067 1003 q 815 1011 904 1011 l 753 1011 q 718 636 736 806 l 957 640 q 1026 622 1008 640 q 1043 574 1043 604 q 1015 499 1043 526 q 936 472 988 472 l 699 472 l 690 413 q 566 86 661 183 q 304 -11 471 -11 q 131 30 210 -11 q 14 129 51 71 q -1 186 -1 153 q 15 244 -1 219 q 54 269 31 269 q 87 258 71 269 q 128 215 103 247 q 293 128 194 128 q 426 192 372 128 q 494 396 479 257 l 503 472 l 436 472 q 381 490 404 472 q 358 542 358 508 q 381 608 358 585 q 446 631 403 631 q 522 632 485 631 q 558 1003 539 785 q 347 954 408 989 q 286 851 286 919 q 314 761 286 804 q 322 736 322 749 q 294 692 322 711 q 232 674 267 674 q 168 696 194 674 q 136 753 151 710 q 121 849 121 796 q 298 1099 121 1021 q 815 1176 475 1176 q 1232 1151 1051 1176 z "},"G":{"ha":1126,"x_min":89,"x_max":1278,"o":"m 1239 307 q 1267 290 1257 307 q 1278 246 1278 272 q 1268 196 1278 214 q 1238 164 1258 178 q 976 -14 1156 110 q 836 -467 922 -301 q 618 -632 750 -632 q 503 -588 547 -632 q 458 -474 458 -544 q 488 -342 458 -408 q 597 -187 517 -275 q 822 13 676 -100 l 826 39 q 611 -7 717 -7 q 338 53 456 -7 q 154 225 219 114 q 89 483 89 336 q 167 847 89 689 q 381 1091 244 1004 q 688 1178 518 1178 q 931 1102 850 1178 q 1013 901 1013 1026 q 983 770 1013 819 q 897 721 953 721 q 837 739 860 721 q 814 789 814 757 q 819 836 814 803 q 828 897 828 875 q 792 988 828 956 q 674 1019 757 1019 q 485 961 572 1019 q 346 787 399 903 q 293 508 293 671 q 384 251 293 342 q 647 160 475 160 q 847 203 743 160 l 867 372 l 725 372 q 665 391 686 372 q 644 453 644 410 q 665 514 644 492 q 721 536 686 536 l 981 536 q 1031 516 1011 536 q 1047 458 1051 496 q 1019 257 1043 414 l 1004 151 q 1207 296 1115 235 q 1239 307 1225 307 m 633 -497 q 713 -415 669 -497 q 793 -151 756 -333 q 641 -315 688 -242 q 594 -443 594 -387 q 633 -497 594 -497 z "},"Ğ":{"ha":1126,"x_min":89,"x_max":1278,"o":"m 1239 307 q 1267 290 1257 307 q 1278 246 1278 272 q 1268 196 1278 214 q 1238 164 1258 178 q 976 -14 1156 110 q 836 -467 922 -301 q 618 -632 750 -632 q 503 -588 547 -632 q 458 -474 458 -544 q 488 -342 458 -408 q 597 -187 517 -275 q 822 13 676 -100 l 826 39 q 611 -7 717 -7 q 338 53 456 -7 q 154 225 219 114 q 89 483 89 336 q 167 847 89 689 q 381 1091 244 1004 q 688 1178 518 1178 q 931 1102 850 1178 q 1013 901 1013 1026 q 983 770 1013 819 q 897 721 953 721 q 837 739 860 721 q 814 789 814 757 q 819 836 814 803 q 828 897 828 875 q 792 988 828 956 q 674 1019 757 1019 q 485 961 572 1019 q 346 787 399 903 q 293 508 293 671 q 384 251 293 342 q 647 160 475 160 q 847 203 743 160 l 867 372 l 725 372 q 665 391 686 372 q 644 453 644 410 q 665 514 644 492 q 721 536 686 536 l 981 536 q 1031 516 1011 536 q 1047 458 1051 496 q 1019 257 1043 414 l 1004 151 q 1207 296 1115 235 q 1239 307 1225 307 m 633 -497 q 713 -415 669 -497 q 793 -151 756 -333 q 641 -315 688 -242 q 594 -443 594 -387 q 633 -497 594 -497 m 707 1267 q 558 1295 621 1267 q 462 1369 494 1324 q 429 1461 429 1414 q 453 1507 429 1490 q 511 1524 476 1524 q 555 1513 539 1524 q 582 1478 571 1503 q 633 1417 603 1433 q 718 1400 664 1400 q 806 1420 772 1400 q 867 1482 839 1440 q 946 1524 894 1524 q 989 1510 972 1524 q 1006 1471 1006 1496 q 969 1378 1006 1426 q 865 1299 933 1331 q 707 1267 797 1267 z "},"Ǧ":{"ha":1126,"x_min":89,"x_max":1278,"o":"m 1239 307 q 1267 290 1257 307 q 1278 246 1278 272 q 1268 196 1278 214 q 1238 164 1258 178 q 976 -14 1156 110 q 836 -467 922 -301 q 618 -632 750 -632 q 503 -588 547 -632 q 458 -474 458 -544 q 488 -342 458 -408 q 597 -187 517 -275 q 822 13 676 -100 l 826 39 q 611 -7 717 -7 q 338 53 456 -7 q 154 225 219 114 q 89 483 89 336 q 167 847 89 689 q 381 1091 244 1004 q 688 1178 518 1178 q 931 1102 850 1178 q 1013 901 1013 1026 q 983 770 1013 819 q 897 721 953 721 q 837 739 860 721 q 814 789 814 757 q 819 836 814 803 q 828 897 828 875 q 792 988 828 956 q 674 1019 757 1019 q 485 961 572 1019 q 346 787 399 903 q 293 508 293 671 q 384 251 293 342 q 647 160 475 160 q 847 203 743 160 l 867 372 l 725 372 q 665 391 686 372 q 644 453 644 410 q 665 514 644 492 q 721 536 686 536 l 981 536 q 1031 516 1011 536 q 1047 458 1051 496 q 1019 257 1043 414 l 1004 151 q 1207 296 1115 235 q 1239 307 1225 307 m 633 -497 q 713 -415 669 -497 q 793 -151 756 -333 q 641 -315 688 -242 q 594 -443 594 -387 q 633 -497 594 -497 m 700 1267 q 636 1289 661 1267 q 585 1363 611 1311 l 515 1500 q 501 1551 501 1528 q 521 1597 501 1581 q 569 1613 540 1613 q 617 1601 599 1613 q 644 1563 635 1590 l 711 1388 l 819 1558 q 858 1601 839 1589 q 910 1613 878 1613 q 953 1599 936 1613 q 971 1563 971 1586 q 947 1504 971 1536 l 831 1344 q 771 1285 801 1304 q 700 1267 740 1267 z "},"Ĝ":{"ha":1126,"x_min":89,"x_max":1278,"o":"m 1239 307 q 1267 290 1257 307 q 1278 246 1278 272 q 1268 196 1278 214 q 1238 164 1258 178 q 976 -14 1156 110 q 836 -467 922 -301 q 618 -632 750 -632 q 503 -588 547 -632 q 458 -474 458 -544 q 488 -342 458 -408 q 597 -187 517 -275 q 822 13 676 -100 l 826 39 q 611 -7 717 -7 q 338 53 456 -7 q 154 225 219 114 q 89 483 89 336 q 167 847 89 689 q 381 1091 244 1004 q 688 1178 518 1178 q 931 1102 850 1178 q 1013 901 1013 1026 q 983 770 1013 819 q 897 721 953 721 q 837 739 860 721 q 814 789 814 757 q 819 836 814 803 q 828 897 828 875 q 792 988 828 956 q 674 1019 757 1019 q 485 961 572 1019 q 346 787 399 903 q 293 508 293 671 q 384 251 293 342 q 647 160 475 160 q 847 203 743 160 l 867 372 l 725 372 q 665 391 686 372 q 644 453 644 410 q 665 514 644 492 q 721 536 686 536 l 981 536 q 1031 516 1011 536 q 1047 458 1051 496 q 1019 257 1043 414 l 1004 151 q 1207 296 1115 235 q 1239 307 1225 307 m 633 -497 q 713 -415 669 -497 q 793 -151 756 -333 q 641 -315 688 -242 q 594 -443 594 -387 q 633 -497 594 -497 m 732 1518 l 621 1321 q 581 1279 606 1293 q 529 1265 556 1265 q 479 1281 500 1265 q 458 1324 458 1297 q 476 1375 458 1347 l 604 1565 q 750 1643 656 1643 q 819 1621 793 1643 q 865 1547 844 1599 l 931 1379 q 939 1340 939 1358 q 915 1287 939 1307 q 860 1267 892 1267 q 816 1280 836 1267 q 789 1317 796 1293 l 732 1518 z "},"Ģ":{"ha":1126,"x_min":89,"x_max":1278,"o":"m 1239 307 q 1267 290 1257 307 q 1278 246 1278 272 q 1268 196 1278 214 q 1238 164 1258 178 q 976 -14 1156 110 q 836 -467 922 -301 q 618 -632 750 -632 q 503 -588 547 -632 q 458 -474 458 -544 q 488 -342 458 -408 q 597 -187 517 -275 q 822 13 676 -100 l 826 39 q 611 -7 717 -7 q 338 53 456 -7 q 154 225 219 114 q 89 483 89 336 q 167 847 89 689 q 381 1091 244 1004 q 688 1178 518 1178 q 931 1102 850 1178 q 1013 901 1013 1026 q 983 770 1013 819 q 897 721 953 721 q 837 739 860 721 q 814 789 814 757 q 819 836 814 803 q 828 897 828 875 q 792 988 828 956 q 674 1019 757 1019 q 485 961 572 1019 q 346 787 399 903 q 293 508 293 671 q 384 251 293 342 q 647 160 475 160 q 847 203 743 160 l 867 372 l 725 372 q 665 391 686 372 q 644 453 644 410 q 665 514 644 492 q 721 536 686 536 l 981 536 q 1031 516 1011 536 q 1047 458 1051 496 q 1019 257 1043 414 l 1004 151 q 1207 296 1115 235 q 1239 307 1225 307 m 633 -497 q 713 -415 669 -497 q 793 -151 756 -333 q 641 -315 688 -242 q 594 -443 594 -387 q 633 -497 594 -497 m 342 -353 q 299 -337 317 -353 q 282 -296 281 -322 l 286 -154 q 312 -90 288 -111 q 369 -69 336 -69 q 430 -90 404 -69 q 456 -147 456 -110 q 447 -189 456 -167 l 407 -307 q 381 -341 400 -329 q 342 -353 363 -353 z "},"Ġ":{"ha":1126,"x_min":89,"x_max":1278,"o":"m 1239 307 q 1267 290 1257 307 q 1278 246 1278 272 q 1268 196 1278 214 q 1238 164 1258 178 q 976 -14 1156 110 q 836 -467 922 -301 q 618 -632 750 -632 q 503 -588 547 -632 q 458 -474 458 -544 q 488 -342 458 -408 q 597 -187 517 -275 q 822 13 676 -100 l 826 39 q 611 -7 717 -7 q 338 53 456 -7 q 154 225 219 114 q 89 483 89 336 q 167 847 89 689 q 381 1091 244 1004 q 688 1178 518 1178 q 931 1102 850 1178 q 1013 901 1013 1026 q 983 770 1013 819 q 897 721 953 721 q 837 739 860 721 q 814 789 814 757 q 819 836 814 803 q 828 897 828 875 q 792 988 828 956 q 674 1019 757 1019 q 485 961 572 1019 q 346 787 399 903 q 293 508 293 671 q 384 251 293 342 q 647 160 475 160 q 847 203 743 160 l 867 372 l 725 372 q 665 391 686 372 q 644 453 644 410 q 665 514 644 492 q 721 536 686 536 l 981 536 q 1031 516 1011 536 q 1047 458 1051 496 q 1019 257 1043 414 l 1004 151 q 1207 296 1115 235 q 1239 307 1225 307 m 633 -497 q 713 -415 669 -497 q 793 -151 756 -333 q 641 -315 688 -242 q 594 -443 594 -387 q 633 -497 594 -497 m 703 1267 q 614 1295 644 1267 q 583 1372 583 1324 q 623 1456 583 1422 q 719 1489 663 1489 q 805 1463 772 1489 q 838 1390 838 1438 q 800 1300 838 1333 q 703 1267 763 1267 z "},"H":{"ha":1213,"x_min":-22,"x_max":1392,"o":"m 1353 310 q 1381 293 1371 310 q 1392 247 1392 276 q 1365 161 1392 193 q 1072 -7 1228 -7 q 857 97 938 -7 q 776 396 776 201 q 781 490 776 443 q 581 465 689 474 q 482 458 508 460 q 404 111 454 317 q 293 -10 375 -10 q 204 71 204 -10 q 211 121 204 89 q 286 443 258 311 l 219 440 q 153 456 174 440 q 132 508 132 472 q 158 576 132 554 q 246 600 185 597 l 319 603 q 356 901 356 799 q 336 990 356 967 q 285 1014 317 1014 q 65 851 188 1014 q 25 828 47 828 q -8 846 6 828 q -22 892 -22 864 q 13 983 -22 935 q 167 1123 74 1068 q 356 1178 260 1178 q 495 1116 446 1178 q 544 924 544 1054 q 511 611 544 808 l 647 618 q 797 632 735 622 q 874 918 822 785 q 1001 1135 925 1051 q 1172 1218 1078 1218 q 1282 1163 1242 1218 q 1322 1019 1322 1108 q 971 542 1322 675 q 967 426 967 486 q 1003 219 967 281 q 1104 158 1039 158 q 1208 188 1161 158 q 1315 290 1256 218 q 1353 310 1332 310 m 1165 1097 q 1101 1042 1135 1097 q 1036 890 1067 986 q 988 681 1006 794 q 1151 811 1099 726 q 1204 1029 1204 896 q 1193 1079 1204 1061 q 1165 1097 1182 1097 z "},"Ħ":{"ha":1189,"x_min":78,"x_max":1222,"o":"m 1078 832 q 1053 682 1068 758 l 1093 682 q 1158 663 1138 682 q 1178 611 1178 643 q 1153 539 1178 564 q 1060 514 1128 514 l 1025 514 l 1022 496 q 991 280 1007 403 q 969 90 975 157 q 939 16 965 39 q 865 -7 913 -7 q 769 76 769 -7 q 783 212 769 121 q 822 457 796 303 l 828 493 l 832 514 l 581 514 l 390 511 l 388 496 q 356 280 372 403 q 335 90 340 157 q 304 16 331 39 q 231 -7 278 -7 q 135 76 135 -7 q 148 212 135 121 q 188 457 161 303 l 193 493 l 196 507 l 151 506 q 78 571 78 506 q 104 647 78 621 q 194 672 131 672 l 225 672 l 225 675 q 249 826 239 746 l 194 825 q 122 881 122 825 q 149 946 122 924 q 239 968 175 968 l 267 968 q 278 1081 276 1042 q 310 1155 282 1132 q 390 1178 338 1178 q 478 1094 478 1178 q 465 969 478 1051 l 650 971 q 901 974 743 971 q 913 1081 903 986 q 944 1155 917 1132 q 1025 1178 972 1178 q 1113 1094 1113 1178 q 1101 976 1113 1057 l 1138 976 q 1202 960 1182 976 q 1222 915 1222 943 q 1197 853 1222 875 q 1104 832 1172 832 l 1078 832 m 860 679 q 883 832 872 747 l 625 832 l 443 831 l 418 678 l 417 674 l 606 675 l 860 679 z "},"Ĥ":{"ha":1213,"x_min":-22,"x_max":1392,"o":"m 1353 310 q 1381 293 1371 310 q 1392 247 1392 276 q 1365 161 1392 193 q 1072 -7 1228 -7 q 857 97 938 -7 q 776 396 776 201 q 781 490 776 443 q 581 465 689 474 q 482 458 508 460 q 404 111 454 317 q 293 -10 375 -10 q 204 71 204 -10 q 211 121 204 89 q 286 443 258 311 l 219 440 q 153 456 174 440 q 132 508 132 472 q 158 576 132 554 q 246 600 185 597 l 319 603 q 356 901 356 799 q 336 990 356 967 q 285 1014 317 1014 q 65 851 188 1014 q 25 828 47 828 q -8 846 6 828 q -22 892 -22 864 q 13 983 -22 935 q 167 1123 74 1068 q 356 1178 260 1178 q 495 1116 446 1178 q 544 924 544 1054 q 511 611 544 808 l 647 618 q 797 632 735 622 q 874 918 822 785 q 1001 1135 925 1051 q 1172 1218 1078 1218 q 1282 1163 1242 1218 q 1322 1019 1322 1108 q 971 542 1322 675 q 967 426 967 486 q 1003 219 967 281 q 1104 158 1039 158 q 1208 188 1161 158 q 1315 290 1256 218 q 1353 310 1332 310 m 1165 1097 q 1101 1042 1135 1097 q 1036 890 1067 986 q 988 681 1006 794 q 1151 811 1099 726 q 1204 1029 1204 896 q 1193 1079 1204 1061 q 1165 1097 1182 1097 m 779 1518 l 668 1321 q 628 1279 653 1293 q 576 1265 603 1265 q 526 1281 547 1265 q 506 1324 506 1297 q 524 1375 506 1347 l 651 1565 q 797 1643 703 1643 q 866 1621 840 1643 q 913 1547 892 1599 l 978 1379 q 986 1340 986 1358 q 963 1287 986 1307 q 907 1267 939 1267 q 863 1280 883 1267 q 836 1317 843 1293 l 779 1518 z "},"I":{"ha":688,"x_min":-24,"x_max":772,"o":"m 686 1169 q 747 1152 722 1169 q 772 1110 772 1135 q 744 1038 772 1065 q 665 1011 717 1011 q 543 1010 585 1011 q 518 860 540 993 q 488 678 493 711 l 458 496 q 410 154 428 292 q 489 156 439 156 q 589 136 563 156 q 615 78 615 117 q 587 17 615 42 q 507 -8 558 -8 q 397 -6 472 -8 q 306 -3 328 -3 q 114 -18 218 -3 q 49 -25 68 -25 q -3 -8 18 -25 q -24 40 -24 8 q 21 118 -24 90 q 146 147 65 146 l 211 149 l 215 179 q 264 493 249 401 l 294 675 q 344 1007 322 836 l 228 1006 q 159 1022 178 1006 q 140 1067 140 1038 q 276 1168 140 1161 q 432 1171 340 1171 l 686 1169 z "},"Í":{"ha":688,"x_min":-24,"x_max":843,"o":"m 686 1169 q 747 1152 722 1169 q 772 1110 772 1135 q 744 1038 772 1065 q 665 1011 717 1011 q 543 1010 585 1011 q 518 860 540 993 q 488 678 493 711 l 458 496 q 410 154 428 292 q 489 156 439 156 q 589 136 563 156 q 615 78 615 117 q 587 17 615 42 q 507 -8 558 -8 q 397 -6 472 -8 q 306 -3 328 -3 q 114 -18 218 -3 q 49 -25 68 -25 q -3 -8 18 -25 q -24 40 -24 8 q 21 118 -24 90 q 146 147 65 146 l 211 149 l 215 179 q 264 493 249 401 l 294 675 q 344 1007 322 836 l 228 1006 q 159 1022 178 1006 q 140 1067 140 1038 q 276 1168 140 1161 q 432 1171 340 1171 l 686 1169 m 481 1267 q 443 1281 458 1267 q 428 1317 428 1296 q 454 1367 428 1344 l 693 1571 q 754 1594 721 1594 q 817 1569 790 1594 q 843 1507 843 1543 q 769 1408 843 1447 l 510 1274 q 481 1267 497 1267 z "},"Ĭ":{"ha":688,"x_min":-24,"x_max":788,"o":"m 686 1169 q 747 1152 722 1169 q 772 1110 772 1135 q 744 1038 772 1065 q 665 1011 717 1011 q 543 1010 585 1011 q 518 860 540 993 q 488 678 493 711 l 458 496 q 410 154 428 292 q 489 156 439 156 q 589 136 563 156 q 615 78 615 117 q 587 17 615 42 q 507 -8 558 -8 q 397 -6 472 -8 q 306 -3 328 -3 q 114 -18 218 -3 q 49 -25 68 -25 q -3 -8 18 -25 q -24 40 -24 8 q 21 118 -24 90 q 146 147 65 146 l 211 149 l 215 179 q 264 493 249 401 l 294 675 q 344 1007 322 836 l 228 1006 q 159 1022 178 1006 q 140 1067 140 1038 q 276 1168 140 1161 q 432 1171 340 1171 l 686 1169 m 489 1267 q 340 1295 403 1267 q 244 1369 276 1324 q 211 1461 211 1414 q 235 1507 211 1490 q 293 1524 258 1524 q 337 1513 321 1524 q 364 1478 353 1503 q 415 1417 385 1433 q 500 1400 446 1400 q 588 1420 554 1400 q 649 1482 621 1440 q 728 1524 676 1524 q 771 1510 754 1524 q 788 1471 788 1496 q 751 1378 788 1426 q 647 1299 715 1331 q 489 1267 579 1267 z "},"Î":{"ha":688,"x_min":-24,"x_max":772,"o":"m 686 1169 q 747 1152 722 1169 q 772 1110 772 1135 q 744 1038 772 1065 q 665 1011 717 1011 q 543 1010 585 1011 q 518 860 540 993 q 488 678 493 711 l 458 496 q 410 154 428 292 q 489 156 439 156 q 589 136 563 156 q 615 78 615 117 q 587 17 615 42 q 507 -8 558 -8 q 397 -6 472 -8 q 306 -3 328 -3 q 114 -18 218 -3 q 49 -25 68 -25 q -3 -8 18 -25 q -24 40 -24 8 q 21 118 -24 90 q 146 147 65 146 l 211 149 l 215 179 q 264 493 249 401 l 294 675 q 344 1007 322 836 l 228 1006 q 159 1022 178 1006 q 140 1067 140 1038 q 276 1168 140 1161 q 432 1171 340 1171 l 686 1169 m 514 1518 l 403 1321 q 363 1279 388 1293 q 311 1265 338 1265 q 261 1281 282 1265 q 240 1324 240 1297 q 258 1375 240 1347 l 386 1565 q 532 1643 438 1643 q 601 1621 575 1643 q 647 1547 626 1599 l 713 1379 q 721 1340 721 1358 q 697 1287 721 1307 q 642 1267 674 1267 q 598 1280 618 1267 q 571 1317 578 1293 l 514 1518 z "},"Ȉ":{"ha":688,"x_min":-24,"x_max":772,"o":"m 686 1169 q 747 1152 722 1169 q 772 1110 772 1135 q 744 1038 772 1065 q 665 1011 717 1011 q 543 1010 585 1011 q 518 860 540 993 q 488 678 493 711 l 458 496 q 410 154 428 292 q 489 156 439 156 q 589 136 563 156 q 615 78 615 117 q 587 17 615 42 q 507 -8 558 -8 q 397 -6 472 -8 q 306 -3 328 -3 q 114 -18 218 -3 q 49 -25 68 -25 q -3 -8 18 -25 q -24 40 -24 8 q 21 118 -24 90 q 146 147 65 146 l 211 149 l 215 179 q 264 493 249 401 l 294 675 q 344 1007 322 836 l 228 1006 q 159 1022 178 1006 q 140 1067 140 1038 q 276 1168 140 1161 q 432 1171 340 1171 l 686 1169 m 357 1267 q 304 1297 324 1267 l 215 1442 q 193 1510 193 1478 q 219 1571 193 1547 q 279 1594 246 1594 q 324 1580 304 1594 q 353 1536 344 1565 l 410 1339 q 413 1319 413 1325 q 396 1281 413 1296 q 357 1267 379 1267 m 608 1267 q 556 1297 575 1267 l 467 1442 q 444 1510 444 1478 q 471 1571 444 1547 q 531 1594 497 1594 q 576 1580 556 1594 q 604 1536 596 1565 l 661 1339 q 664 1319 664 1325 q 647 1281 664 1296 q 608 1267 631 1267 z "},"Ï":{"ha":688,"x_min":-24,"x_max":772,"o":"m 686 1169 q 747 1152 722 1169 q 772 1110 772 1135 q 744 1038 772 1065 q 665 1011 717 1011 q 543 1010 585 1011 q 518 860 540 993 q 488 678 493 711 l 458 496 q 410 154 428 292 q 489 156 439 156 q 589 136 563 156 q 615 78 615 117 q 587 17 615 42 q 507 -8 558 -8 q 397 -6 472 -8 q 306 -3 328 -3 q 114 -18 218 -3 q 49 -25 68 -25 q -3 -8 18 -25 q -24 40 -24 8 q 21 118 -24 90 q 146 147 65 146 l 211 149 l 215 179 q 264 493 249 401 l 294 675 q 344 1007 322 836 l 228 1006 q 159 1022 178 1006 q 140 1067 140 1038 q 276 1168 140 1161 q 432 1171 340 1171 l 686 1169 m 343 1267 q 272 1292 299 1267 q 246 1369 246 1318 q 276 1458 246 1426 q 358 1490 307 1490 q 429 1465 403 1490 q 456 1388 456 1439 q 425 1299 456 1331 q 343 1267 394 1267 m 632 1267 q 561 1292 588 1267 q 535 1369 535 1318 q 565 1458 535 1426 q 647 1490 596 1490 q 718 1465 692 1490 q 744 1388 744 1439 q 714 1299 744 1331 q 632 1267 683 1267 z "},"İ":{"ha":688,"x_min":-24,"x_max":772,"o":"m 686 1169 q 747 1152 722 1169 q 772 1110 772 1135 q 744 1038 772 1065 q 665 1011 717 1011 q 543 1010 585 1011 q 518 860 540 993 q 488 678 493 711 l 458 496 q 410 154 428 292 q 489 156 439 156 q 589 136 563 156 q 615 78 615 117 q 587 17 615 42 q 507 -8 558 -8 q 397 -6 472 -8 q 306 -3 328 -3 q 114 -18 218 -3 q 49 -25 68 -25 q -3 -8 18 -25 q -24 40 -24 8 q 21 118 -24 90 q 146 147 65 146 l 211 149 l 215 179 q 264 493 249 401 l 294 675 q 344 1007 322 836 l 228 1006 q 159 1022 178 1006 q 140 1067 140 1038 q 276 1168 140 1161 q 432 1171 340 1171 l 686 1169 m 485 1267 q 396 1295 426 1267 q 365 1372 365 1324 q 405 1456 365 1422 q 501 1489 444 1489 q 587 1463 554 1489 q 619 1390 619 1438 q 582 1300 619 1333 q 485 1267 544 1267 z "},"Ị":{"ha":688,"x_min":-24,"x_max":772,"o":"m 686 1169 q 747 1152 722 1169 q 772 1110 772 1135 q 744 1038 772 1065 q 665 1011 717 1011 q 543 1010 585 1011 q 518 860 540 993 q 488 678 493 711 l 458 496 q 410 154 428 292 q 489 156 439 156 q 589 136 563 156 q 615 78 615 117 q 587 17 615 42 q 507 -8 558 -8 q 397 -6 472 -8 q 306 -3 328 -3 q 114 -18 218 -3 q 49 -25 68 -25 q -3 -8 18 -25 q -24 40 -24 8 q 21 118 -24 90 q 146 147 65 146 l 211 149 l 215 179 q 264 493 249 401 l 294 675 q 344 1007 322 836 l 228 1006 q 159 1022 178 1006 q 140 1067 140 1038 q 276 1168 140 1161 q 432 1171 340 1171 l 686 1169 m 271 -322 q 182 -294 213 -322 q 151 -217 151 -265 q 191 -133 151 -167 q 288 -100 231 -100 q 373 -126 340 -100 q 406 -199 406 -151 q 368 -289 406 -256 q 271 -322 331 -322 z "},"Ì":{"ha":688,"x_min":-24,"x_max":772,"o":"m 686 1169 q 747 1152 722 1169 q 772 1110 772 1135 q 744 1038 772 1065 q 665 1011 717 1011 q 543 1010 585 1011 q 518 860 540 993 q 488 678 493 711 l 458 496 q 410 154 428 292 q 489 156 439 156 q 589 136 563 156 q 615 78 615 117 q 587 17 615 42 q 507 -8 558 -8 q 397 -6 472 -8 q 306 -3 328 -3 q 114 -18 218 -3 q 49 -25 68 -25 q -3 -8 18 -25 q -24 40 -24 8 q 21 118 -24 90 q 146 147 65 146 l 211 149 l 215 179 q 264 493 249 401 l 294 675 q 344 1007 322 836 l 228 1006 q 159 1022 178 1006 q 140 1067 140 1038 q 276 1168 140 1161 q 432 1171 340 1171 l 686 1169 m 463 1267 q 433 1274 446 1267 l 174 1408 q 100 1507 100 1447 q 126 1569 100 1543 q 189 1594 153 1594 q 250 1571 222 1594 l 489 1367 q 515 1317 515 1344 q 500 1281 515 1296 q 463 1267 485 1267 z "},"Ỉ":{"ha":688,"x_min":-24,"x_max":772,"o":"m 686 1169 q 747 1152 722 1169 q 772 1110 772 1135 q 744 1038 772 1065 q 665 1011 717 1011 q 543 1010 585 1011 q 518 860 540 993 q 488 678 493 711 l 458 496 q 410 154 428 292 q 489 156 439 156 q 589 136 563 156 q 615 78 615 117 q 587 17 615 42 q 507 -8 558 -8 q 397 -6 472 -8 q 306 -3 328 -3 q 114 -18 218 -3 q 49 -25 68 -25 q -3 -8 18 -25 q -24 40 -24 8 q 21 118 -24 90 q 146 147 65 146 l 211 149 l 215 179 q 264 493 249 401 l 294 675 q 344 1007 322 836 l 228 1006 q 159 1022 178 1006 q 140 1067 140 1038 q 276 1168 140 1161 q 432 1171 340 1171 l 686 1169 m 464 1267 q 421 1279 433 1267 q 408 1317 408 1292 q 426 1368 408 1354 q 475 1382 444 1382 q 536 1399 515 1382 q 557 1440 557 1415 q 541 1478 557 1464 q 492 1492 525 1492 q 436 1488 467 1492 q 399 1485 406 1485 q 368 1496 376 1485 q 360 1536 360 1507 q 376 1579 360 1565 q 424 1600 392 1593 q 496 1607 457 1607 q 690 1456 690 1607 q 635 1317 690 1368 q 485 1267 581 1267 l 464 1267 z "},"Ȋ":{"ha":688,"x_min":-24,"x_max":790,"o":"m 686 1169 q 747 1152 722 1169 q 772 1110 772 1135 q 744 1038 772 1065 q 665 1011 717 1011 q 543 1010 585 1011 q 518 860 540 993 q 488 678 493 711 l 458 496 q 410 154 428 292 q 489 156 439 156 q 589 136 563 156 q 615 78 615 117 q 587 17 615 42 q 507 -8 558 -8 q 397 -6 472 -8 q 306 -3 328 -3 q 114 -18 218 -3 q 49 -25 68 -25 q -3 -8 18 -25 q -24 40 -24 8 q 21 118 -24 90 q 146 147 65 146 l 211 149 l 215 179 q 264 493 249 401 l 294 675 q 344 1007 322 836 l 228 1006 q 159 1022 178 1006 q 140 1067 140 1038 q 276 1168 140 1161 q 432 1171 340 1171 l 686 1169 m 274 1267 q 231 1281 247 1267 q 214 1319 214 1294 q 250 1412 214 1364 q 354 1492 286 1460 q 513 1524 422 1524 q 662 1495 599 1524 q 758 1422 725 1467 q 790 1329 790 1376 q 767 1283 790 1300 q 708 1267 743 1267 q 665 1277 681 1267 q 638 1313 649 1288 q 586 1374 617 1357 q 501 1390 556 1390 q 414 1370 447 1390 q 353 1308 381 1350 q 274 1267 325 1267 z "},"Ī":{"ha":688,"x_min":-24,"x_max":772,"o":"m 686 1169 q 747 1152 722 1169 q 772 1110 772 1135 q 744 1038 772 1065 q 665 1011 717 1011 q 543 1010 585 1011 q 518 860 540 993 q 488 678 493 711 l 458 496 q 410 154 428 292 q 489 156 439 156 q 589 136 563 156 q 615 78 615 117 q 587 17 615 42 q 507 -8 558 -8 q 397 -6 472 -8 q 306 -3 328 -3 q 114 -18 218 -3 q 49 -25 68 -25 q -3 -8 18 -25 q -24 40 -24 8 q 21 118 -24 90 q 146 147 65 146 l 211 149 l 215 179 q 264 493 249 401 l 294 675 q 344 1007 322 836 l 228 1006 q 159 1022 178 1006 q 140 1067 140 1038 q 276 1168 140 1161 q 432 1171 340 1171 l 686 1169 m 322 1267 q 260 1328 260 1267 q 279 1383 260 1363 q 333 1403 299 1403 l 643 1403 q 690 1388 674 1403 q 706 1346 706 1374 q 686 1288 706 1308 q 632 1267 667 1267 l 322 1267 z "},"Į":{"ha":688,"x_min":-24,"x_max":772,"o":"m 686 1169 q 747 1152 722 1169 q 772 1110 772 1135 q 744 1038 772 1065 q 665 1011 717 1011 q 543 1010 585 1011 q 518 860 540 993 q 488 678 493 711 l 458 496 q 410 154 428 292 q 489 156 439 156 q 589 136 563 156 q 615 78 615 117 q 587 17 615 42 q 507 -8 558 -8 q 397 -6 472 -8 q 306 -3 328 -3 q 114 -18 218 -3 q 49 -25 68 -25 q -3 -8 18 -25 q -24 40 -24 8 q 21 118 -24 90 q 146 147 65 146 l 211 149 l 215 179 q 264 493 249 401 l 294 675 q 344 1007 322 836 l 228 1006 q 159 1022 178 1006 q 140 1067 140 1038 q 276 1168 140 1161 q 432 1171 340 1171 l 686 1169 m 353 -353 q 197 -302 256 -353 q 139 -164 139 -251 q 186 -19 139 -86 q 322 94 233 47 l 381 14 q 309 -60 332 -19 q 286 -140 286 -100 q 311 -201 286 -181 q 372 -222 336 -222 q 438 -212 408 -222 q 475 -204 461 -204 q 503 -217 494 -204 q 511 -257 511 -231 q 496 -306 511 -286 q 446 -339 481 -326 q 402 -349 429 -344 q 353 -353 375 -353 z "},"Ĩ":{"ha":688,"x_min":-24,"x_max":807,"o":"m 686 1169 q 747 1152 722 1169 q 772 1110 772 1135 q 744 1038 772 1065 q 665 1011 717 1011 q 543 1010 585 1011 q 518 860 540 993 q 488 678 493 711 l 458 496 q 410 154 428 292 q 489 156 439 156 q 589 136 563 156 q 615 78 615 117 q 587 17 615 42 q 507 -8 558 -8 q 397 -6 472 -8 q 306 -3 328 -3 q 114 -18 218 -3 q 49 -25 68 -25 q -3 -8 18 -25 q -24 40 -24 8 q 21 118 -24 90 q 146 147 65 146 l 211 149 l 215 179 q 264 493 249 401 l 294 675 q 344 1007 322 836 l 228 1006 q 159 1022 178 1006 q 140 1067 140 1038 q 276 1168 140 1161 q 432 1171 340 1171 l 686 1169 m 621 1267 q 579 1274 599 1267 q 529 1303 560 1282 l 381 1406 l 319 1318 q 291 1295 308 1303 q 256 1288 274 1288 q 210 1301 229 1288 q 192 1342 192 1315 q 243 1454 192 1379 q 378 1543 304 1543 q 420 1536 401 1543 q 469 1507 439 1529 l 618 1404 l 679 1492 q 708 1515 690 1507 q 743 1522 725 1522 q 788 1508 769 1522 q 807 1468 807 1494 q 796 1427 807 1450 q 756 1356 785 1404 q 693 1288 728 1310 q 621 1267 658 1267 z "},"J":{"ha":1032,"x_min":99,"x_max":1064,"o":"m 1064 1065 q 1047 1003 1064 1024 q 990 982 1029 982 q 978 881 988 953 q 963 772 964 783 q 447 -149 839 -149 q 267 -83 332 -149 q 203 81 203 -18 q 353 392 203 257 q 747 617 503 528 q 771 793 763 715 l 796 1003 q 640 1011 713 1011 q 356 974 447 1011 q 264 851 264 936 q 292 761 264 810 q 300 732 300 747 q 270 680 300 703 q 206 657 240 657 q 138 694 161 657 q 99 843 99 758 q 682 1176 99 1176 q 985 1143 851 1176 q 1064 1065 1064 1124 m 465 0 q 601 103 533 0 q 721 463 669 206 q 382 99 382 314 q 404 26 382 51 q 465 0 426 0 z "},"Ĵ":{"ha":1032,"x_min":99,"x_max":1064,"o":"m 1064 1065 q 1047 1003 1064 1024 q 990 982 1029 982 q 978 881 988 953 q 963 772 964 783 q 447 -149 839 -149 q 267 -83 332 -149 q 203 81 203 -18 q 353 392 203 257 q 747 617 503 528 q 771 793 763 715 l 796 1003 q 640 1011 713 1011 q 356 974 447 1011 q 264 851 264 936 q 292 761 264 810 q 300 732 300 747 q 270 680 300 703 q 206 657 240 657 q 138 694 161 657 q 99 843 99 758 q 682 1176 99 1176 q 985 1143 851 1176 q 1064 1065 1064 1124 m 465 0 q 601 103 533 0 q 721 463 669 206 q 382 99 382 314 q 404 26 382 51 q 465 0 426 0 m 654 1518 l 543 1321 q 503 1279 528 1293 q 451 1265 478 1265 q 401 1281 422 1265 q 381 1324 381 1297 q 399 1375 381 1347 l 526 1565 q 672 1643 578 1643 q 741 1621 715 1643 q 788 1547 767 1599 l 853 1379 q 861 1340 861 1358 q 838 1287 861 1307 q 782 1267 814 1267 q 738 1280 758 1267 q 711 1317 718 1293 l 654 1518 z "},"K":{"ha":1301,"x_min":36,"x_max":1481,"o":"m 1442 310 q 1470 293 1460 310 q 1481 247 1481 276 q 1454 161 1481 193 q 1319 37 1388 81 q 1158 -7 1251 -7 q 990 53 1056 -7 q 868 242 925 114 q 799 378 826 333 q 746 442 772 424 q 679 465 719 461 l 664 363 q 551 76 635 164 q 319 -11 467 -11 q 149 35 224 -11 q 46 154 75 82 q 36 208 36 179 q 56 281 36 250 q 106 311 75 311 q 136 302 124 311 q 160 271 149 293 q 235 158 203 190 q 317 126 268 126 q 412 177 372 126 q 468 333 451 228 l 488 465 l 465 465 q 415 483 433 465 q 397 533 397 501 q 416 591 397 569 q 463 613 435 613 l 508 613 q 522 707 518 681 l 565 1019 q 497 1024 529 1024 q 318 983 379 1024 q 257 865 257 942 q 265 809 257 831 q 285 761 272 788 q 290 736 290 750 q 262 683 290 706 q 199 660 233 660 q 133 699 154 660 q 92 857 92 772 q 140 1017 92 944 q 285 1133 188 1089 q 525 1176 382 1176 q 640 1169 588 1176 q 754 1143 692 1163 q 822 1065 822 1122 q 757 989 822 989 l 703 615 q 967 755 865 632 q 1138 1089 1069 878 q 1180 1149 1150 1128 q 1256 1169 1210 1169 q 1316 1152 1294 1169 q 1338 1103 1338 1135 q 1332 1071 1338 1093 q 1133 707 1263 842 q 851 528 1004 572 q 938 490 904 515 q 996 428 972 465 q 1050 326 1019 392 q 1131 197 1093 235 q 1218 158 1168 158 q 1303 188 1263 158 q 1404 290 1343 218 q 1442 310 1421 310 z "},"Ķ":{"ha":1301,"x_min":36,"x_max":1481,"o":"m 1442 310 q 1470 293 1460 310 q 1481 247 1481 276 q 1454 161 1481 193 q 1319 37 1388 81 q 1158 -7 1251 -7 q 990 53 1056 -7 q 868 242 925 114 q 799 378 826 333 q 746 442 772 424 q 679 465 719 461 l 664 363 q 551 76 635 164 q 319 -11 467 -11 q 149 35 224 -11 q 46 154 75 82 q 36 208 36 179 q 56 281 36 250 q 106 311 75 311 q 136 302 124 311 q 160 271 149 293 q 235 158 203 190 q 317 126 268 126 q 412 177 372 126 q 468 333 451 228 l 488 465 l 465 465 q 415 483 433 465 q 397 533 397 501 q 416 591 397 569 q 463 613 435 613 l 508 613 q 522 707 518 681 l 565 1019 q 497 1024 529 1024 q 318 983 379 1024 q 257 865 257 942 q 265 809 257 831 q 285 761 272 788 q 290 736 290 750 q 262 683 290 706 q 199 660 233 660 q 133 699 154 660 q 92 857 92 772 q 140 1017 92 944 q 285 1133 188 1089 q 525 1176 382 1176 q 640 1169 588 1176 q 754 1143 692 1163 q 822 1065 822 1122 q 757 989 822 989 l 703 615 q 967 755 865 632 q 1138 1089 1069 878 q 1180 1149 1150 1128 q 1256 1169 1210 1169 q 1316 1152 1294 1169 q 1338 1103 1338 1135 q 1332 1071 1338 1093 q 1133 707 1263 842 q 851 528 1004 572 q 938 490 904 515 q 996 428 972 465 q 1050 326 1019 392 q 1131 197 1093 235 q 1218 158 1168 158 q 1303 188 1263 158 q 1404 290 1343 218 q 1442 310 1421 310 m 667 -383 q 624 -368 642 -383 q 607 -326 606 -353 l 611 -185 q 637 -121 613 -142 q 694 -100 661 -100 q 755 -120 729 -100 q 781 -178 781 -140 q 772 -219 781 -197 l 732 -337 q 706 -372 725 -360 q 667 -383 688 -383 z "},"L":{"ha":935,"x_min":-57,"x_max":1114,"o":"m 1075 310 q 1103 293 1093 310 q 1114 247 1114 276 q 1088 161 1114 193 q 937 31 1010 68 q 761 -7 864 -7 q 628 11 689 -7 q 479 65 567 29 q 326 122 400 100 q 114 -7 256 -7 q -10 28 36 -7 q -57 119 -57 64 q 8 233 -57 188 q 182 278 74 278 l 200 278 l 225 682 q 275 911 233 821 q 390 1065 317 1001 q 536 1149 454 1121 q 710 1178 618 1178 q 940 1100 860 1178 q 1021 897 1021 1022 q 990 760 1021 813 q 906 708 960 708 q 844 727 867 708 q 822 781 822 746 q 828 826 822 793 q 836 896 836 865 q 802 988 836 954 q 699 1022 768 1022 q 510 942 576 1022 q 425 692 443 863 l 393 376 q 375 261 386 310 q 597 213 464 246 q 717 185 675 193 q 790 176 758 176 q 928 203 871 176 q 1038 290 986 231 q 1075 310 1054 310 z "},"Ǉ":{"ha":1772,"x_min":-57,"x_max":1804,"o":"m 1804 1065 q 1787 1003 1804 1024 q 1731 982 1769 982 q 1718 881 1728 953 q 1703 772 1704 783 q 1188 -149 1579 -149 q 1024 -98 1086 -149 q 947 36 961 -47 q 761 -7 869 -7 q 628 11 689 -7 q 479 65 567 29 q 326 122 400 100 q 114 -7 256 -7 q -10 28 36 -7 q -57 119 -57 64 q 8 233 -57 188 q 182 278 74 278 l 200 278 l 226 710 q 294 955 235 849 q 453 1119 354 1061 q 676 1178 551 1178 q 832 1142 767 1178 q 931 1042 897 1106 q 965 897 965 978 q 935 760 965 813 q 850 708 904 708 q 789 727 811 708 q 767 781 767 746 q 772 826 767 793 q 781 896 781 865 q 750 988 781 953 q 661 1022 719 1022 q 505 945 567 1022 q 428 719 443 868 l 393 376 q 375 261 386 310 q 597 213 464 246 q 717 185 675 193 q 790 176 758 176 q 975 229 900 176 q 1163 450 1028 353 q 1488 617 1299 547 q 1511 793 1503 715 l 1536 1003 q 1436 1011 1465 1011 q 1269 971 1339 1011 q 1199 851 1199 931 q 1226 761 1199 810 q 1235 732 1235 747 q 1205 680 1235 703 q 1140 657 1175 657 q 1072 694 1096 657 q 1033 843 1033 758 q 1097 1032 1033 957 q 1262 1142 1161 1107 q 1478 1176 1363 1176 q 1592 1167 1522 1176 q 1725 1143 1663 1158 q 1804 1065 1804 1124 m 1206 0 q 1342 103 1274 0 q 1461 463 1410 206 q 1122 99 1122 314 q 1144 26 1122 51 q 1206 0 1167 0 z "},"Ĺ":{"ha":935,"x_min":-57,"x_max":1114,"o":"m 1075 310 q 1103 293 1093 310 q 1114 247 1114 276 q 1088 161 1114 193 q 937 31 1010 68 q 761 -7 864 -7 q 628 11 689 -7 q 479 65 567 29 q 326 122 400 100 q 114 -7 256 -7 q -10 28 36 -7 q -57 119 -57 64 q 8 233 -57 188 q 182 278 74 278 l 200 278 l 225 682 q 275 911 233 821 q 390 1065 317 1001 q 536 1149 454 1121 q 710 1178 618 1178 q 940 1100 860 1178 q 1021 897 1021 1022 q 990 760 1021 813 q 906 708 960 708 q 844 727 867 708 q 822 781 822 746 q 828 826 822 793 q 836 896 836 865 q 802 988 836 954 q 699 1022 768 1022 q 510 942 576 1022 q 425 692 443 863 l 393 376 q 375 261 386 310 q 597 213 464 246 q 717 185 675 193 q 790 176 758 176 q 928 203 871 176 q 1038 290 986 231 q 1075 310 1054 310 m 710 1267 q 672 1281 688 1267 q 657 1317 657 1296 q 683 1367 657 1344 l 922 1571 q 983 1594 950 1594 q 1046 1569 1019 1594 q 1072 1507 1072 1543 q 999 1408 1072 1447 l 739 1274 q 710 1267 726 1267 z "},"Ľ":{"ha":935,"x_min":-57,"x_max":1240,"o":"m 1075 310 q 1103 293 1093 310 q 1114 247 1114 276 q 1088 161 1114 193 q 937 31 1010 68 q 761 -7 864 -7 q 628 11 689 -7 q 479 65 567 29 q 326 122 400 100 q 114 -7 256 -7 q -10 28 36 -7 q -57 119 -57 64 q 8 233 -57 188 q 182 278 74 278 l 200 278 l 225 682 q 275 911 233 821 q 390 1065 317 1001 q 536 1149 454 1121 q 710 1178 618 1178 q 940 1100 860 1178 q 1021 897 1021 1022 q 990 760 1021 813 q 906 708 960 708 q 844 727 867 708 q 822 781 822 746 q 828 826 822 793 q 836 896 836 865 q 802 988 836 954 q 699 1022 768 1022 q 510 942 576 1022 q 425 692 443 863 l 393 376 q 375 261 386 310 q 597 213 464 246 q 717 185 675 193 q 790 176 758 176 q 928 203 871 176 q 1038 290 986 231 q 1075 310 1054 310 m 1117 846 q 1078 860 1093 846 q 1064 903 1063 875 l 1072 1086 q 1101 1153 1074 1132 q 1164 1174 1128 1174 q 1219 1153 1197 1174 q 1240 1096 1240 1133 q 1233 1051 1240 1071 l 1179 892 q 1117 846 1164 846 z "},"Ļ":{"ha":935,"x_min":-57,"x_max":1114,"o":"m 1075 310 q 1103 293 1093 310 q 1114 247 1114 276 q 1088 161 1114 193 q 937 31 1010 68 q 761 -7 864 -7 q 628 11 689 -7 q 479 65 567 29 q 326 122 400 100 q 114 -7 256 -7 q -10 28 36 -7 q -57 119 -57 64 q 8 233 -57 188 q 182 278 74 278 l 200 278 l 225 682 q 275 911 233 821 q 390 1065 317 1001 q 536 1149 454 1121 q 710 1178 618 1178 q 940 1100 860 1178 q 1021 897 1021 1022 q 990 760 1021 813 q 906 708 960 708 q 844 727 867 708 q 822 781 822 746 q 828 826 822 793 q 836 896 836 865 q 802 988 836 954 q 699 1022 768 1022 q 510 942 576 1022 q 425 692 443 863 l 393 376 q 375 261 386 310 q 597 213 464 246 q 717 185 675 193 q 790 176 758 176 q 928 203 871 176 q 1038 290 986 231 q 1075 310 1054 310 m 410 -383 q 367 -368 385 -383 q 350 -326 349 -353 l 354 -185 q 380 -121 356 -142 q 438 -100 404 -100 q 498 -120 472 -100 q 524 -178 524 -140 q 515 -219 524 -197 l 475 -337 q 449 -372 468 -360 q 410 -383 431 -383 z "},"Ŀ":{"ha":935,"x_min":-57,"x_max":1114,"o":"m 1075 310 q 1103 293 1093 310 q 1114 247 1114 276 q 1088 161 1114 193 q 937 31 1010 68 q 761 -7 864 -7 q 628 11 689 -7 q 479 65 567 29 q 326 122 400 100 q 114 -7 256 -7 q -10 28 36 -7 q -57 119 -57 64 q 8 233 -57 188 q 182 278 74 278 l 200 278 l 225 682 q 275 911 233 821 q 390 1065 317 1001 q 536 1149 454 1121 q 710 1178 618 1178 q 940 1100 860 1178 q 1021 897 1021 1022 q 990 760 1021 813 q 906 708 960 708 q 844 727 867 708 q 822 781 822 746 q 828 826 822 793 q 836 896 836 865 q 802 988 836 954 q 699 1022 768 1022 q 510 942 576 1022 q 425 692 443 863 l 393 376 q 375 261 386 310 q 597 213 464 246 q 717 185 675 193 q 790 176 758 176 q 928 203 871 176 q 1038 290 986 231 q 1075 310 1054 310 m 660 432 q 572 459 601 432 q 543 535 543 486 q 581 616 543 583 q 676 649 619 649 q 760 624 728 649 q 792 553 792 599 q 756 465 792 497 q 660 432 719 432 z "},"ǈ":{"ha":1288,"x_min":-57,"x_max":1439,"o":"m 1075 310 q 1103 293 1093 310 q 1114 247 1114 276 q 1088 161 1114 193 q 937 31 1010 68 q 761 -7 864 -7 q 628 11 689 -7 q 479 65 567 29 q 326 122 400 100 q 114 -7 256 -7 q -10 28 36 -7 q -57 119 -57 64 q 8 233 -57 188 q 182 278 74 278 l 200 278 l 225 682 q 275 911 233 821 q 390 1065 317 1001 q 536 1149 454 1121 q 710 1178 618 1178 q 940 1100 860 1178 q 1021 897 1021 1022 q 990 760 1021 813 q 906 708 960 708 q 844 727 867 708 q 822 781 822 746 q 828 826 822 793 q 836 896 836 865 q 802 988 836 954 q 699 1022 768 1022 q 510 942 576 1022 q 425 692 443 863 l 393 376 q 375 261 386 310 q 597 213 464 246 q 717 185 675 193 q 790 176 758 176 q 928 203 871 176 q 1038 290 986 231 q 1075 310 1054 310 m 1150 739 q 1063 766 1092 739 q 1033 842 1033 793 q 1072 923 1033 890 q 1167 956 1110 956 q 1250 931 1218 956 q 1282 860 1282 906 q 1246 772 1282 804 q 1150 739 1210 739 m 1400 307 q 1428 290 1418 307 q 1439 246 1439 272 q 1429 196 1439 214 q 1399 164 1419 178 q 1139 -12 1301 100 q 999 -467 1085 -301 q 779 -632 913 -632 q 663 -588 707 -632 q 619 -474 619 -544 q 696 -263 619 -375 q 983 13 772 -151 l 993 83 q 1024 346 1013 217 q 1050 569 1032 421 q 1081 628 1056 610 q 1157 647 1106 647 q 1212 635 1199 647 q 1225 600 1225 622 q 1179 247 1225 536 l 1165 151 q 1368 296 1276 235 q 1400 307 1386 307 m 794 -497 q 874 -415 831 -497 q 954 -151 917 -333 q 802 -315 849 -242 q 756 -443 756 -387 q 794 -497 756 -497 z "},"Ł":{"ha":935,"x_min":-57,"x_max":1114,"o":"m 392 1174 q 347 1191 363 1174 q 331 1232 331 1208 q 351 1289 331 1265 q 436 1339 372 1313 q 599 1387 504 1367 q 797 1407 694 1407 q 994 1378 931 1407 q 1058 1308 1058 1349 q 1038 1261 1058 1278 q 985 1244 1018 1244 q 933 1250 975 1244 q 888 1256 926 1251 q 800 1261 849 1261 q 627 1244 699 1261 q 474 1197 556 1226 q 392 1174 414 1174 m 1075 310 q 1103 293 1093 310 q 1114 247 1114 276 q 1088 161 1114 193 q 937 31 1010 68 q 761 -7 864 -7 q 628 11 689 -7 q 479 65 567 29 q 326 122 400 100 q 114 -7 256 -7 q -10 28 36 -7 q -57 119 -57 64 q 8 233 -57 188 q 182 278 74 278 l 200 278 l 225 682 q 276 888 233 801 q 390 1038 318 975 q 536 1122 454 1093 q 710 1150 618 1150 q 940 1072 860 1150 q 1021 869 1021 994 q 990 733 1021 785 q 906 681 960 681 q 844 699 867 681 q 822 753 822 718 q 828 799 822 765 q 836 868 836 838 q 802 960 836 926 q 699 994 768 994 q 425 692 456 994 l 393 376 q 375 261 386 310 q 597 213 464 246 q 717 185 675 193 q 790 176 758 176 q 928 203 871 176 q 1038 290 986 231 q 1075 310 1054 310 z "},"M":{"ha":1711,"x_min":-1,"x_max":1890,"o":"m 322 -7 q 249 16 271 -7 q 226 103 226 39 q 235 213 226 146 q 265 399 244 281 q 322 776 301 617 q 335 943 335 876 q 289 1006 335 1006 q 202 969 253 1006 q 90 851 151 932 q 47 825 71 825 q 13 844 28 825 q -1 886 -1 863 q 8 931 -1 908 q 38 983 17 954 q 186 1127 104 1076 q 350 1178 268 1178 q 467 1129 426 1178 q 508 988 508 1081 q 501 899 508 950 q 489 817 494 849 q 481 772 483 785 q 658 1088 560 999 q 875 1178 757 1178 q 1017 1114 965 1178 q 1069 933 1069 1050 q 1057 819 1069 888 q 1219 1094 1126 1011 q 1433 1178 1313 1178 q 1583 1115 1531 1178 q 1635 940 1635 1053 q 1617 792 1635 879 l 1532 394 q 1518 275 1518 325 q 1545 188 1518 217 q 1621 158 1572 158 q 1710 189 1667 158 q 1814 290 1754 219 q 1851 310 1831 310 q 1880 293 1869 310 q 1890 247 1890 276 q 1864 161 1890 193 q 1721 33 1792 74 q 1572 -7 1650 -7 q 1388 63 1454 -7 q 1321 251 1321 133 q 1354 489 1321 333 l 1410 743 q 1419 788 1413 756 q 1431 848 1426 819 q 1435 904 1435 876 q 1416 977 1435 953 q 1363 1001 1397 1001 q 1226 917 1297 1001 q 1090 639 1154 833 q 985 133 1025 444 q 951 22 975 50 q 872 -7 926 -7 q 803 15 825 -7 q 782 99 782 38 q 797 248 782 156 q 836 465 813 340 q 900 899 900 801 q 880 976 900 951 q 819 1001 860 1001 q 679 924 751 1001 q 538 651 607 847 q 424 119 469 454 q 395 21 414 49 q 322 -7 376 -7 z "},"N":{"ha":1228,"x_min":-1,"x_max":1407,"o":"m 322 -7 q 249 16 271 -7 q 226 103 226 39 q 235 207 226 146 q 264 392 243 268 q 286 527 267 408 q 321 776 306 646 q 335 943 335 888 q 289 1006 335 1006 q 202 969 254 1006 q 90 851 150 932 q 47 825 71 825 q 13 844 28 825 q -1 886 -1 863 q 7 931 -1 910 q 38 983 15 953 q 189 1127 106 1076 q 364 1178 272 1178 q 478 1131 440 1178 q 517 993 517 1083 q 494 760 517 913 q 671 1072 564 965 q 922 1178 778 1178 q 1094 1113 1036 1178 q 1151 940 1151 1049 q 1133 792 1151 879 l 1049 394 q 1035 275 1035 325 q 1062 188 1035 217 q 1138 158 1089 158 q 1227 189 1183 158 q 1331 290 1271 219 q 1368 310 1347 310 q 1397 293 1386 310 q 1407 247 1407 276 q 1381 161 1407 193 q 1238 33 1308 74 q 1089 -7 1167 -7 q 904 63 971 -7 q 838 251 838 133 q 845 351 838 297 q 871 489 853 406 l 926 743 q 936 788 929 756 q 947 848 943 819 q 951 904 951 876 q 926 975 951 949 q 856 1001 901 1001 q 689 913 772 1001 q 535 626 606 824 q 424 119 464 428 q 395 21 414 49 q 322 -7 376 -7 z "},"Ǌ":{"ha":2079,"x_min":-1,"x_max":2111,"o":"m 2111 1065 q 2094 1003 2111 1024 q 2038 982 2076 982 q 2025 881 2035 953 q 2010 772 2011 783 q 1494 -149 1886 -149 q 1328 -95 1390 -149 q 1253 43 1265 -42 q 1089 -7 1176 -7 q 904 63 971 -7 q 838 251 838 133 q 845 351 838 297 q 871 489 853 406 l 926 743 q 936 788 929 756 q 947 848 943 819 q 951 904 951 876 q 926 975 951 949 q 856 1001 901 1001 q 689 913 772 1001 q 535 626 606 824 q 424 119 464 428 q 395 21 414 49 q 322 -7 376 -7 q 249 16 271 -7 q 226 103 226 39 q 235 207 226 146 q 264 392 243 268 q 286 527 267 408 q 321 776 306 646 q 335 943 335 888 q 289 1006 335 1006 q 202 969 254 1006 q 90 851 150 932 q 47 825 71 825 q 13 844 28 825 q -1 886 -1 863 q 7 931 -1 910 q 38 983 15 953 q 189 1127 106 1076 q 364 1178 272 1178 q 478 1131 440 1178 q 517 993 517 1083 q 494 760 517 913 q 671 1072 564 965 q 922 1178 778 1178 q 1094 1113 1036 1178 q 1151 940 1151 1049 q 1133 792 1151 879 l 1049 394 q 1035 275 1035 325 q 1062 188 1035 217 q 1138 158 1089 158 q 1209 178 1174 158 q 1286 240 1244 197 q 1477 455 1343 360 q 1794 617 1611 550 q 1818 793 1810 715 l 1843 1003 q 1688 1011 1760 1011 q 1485 972 1561 1011 q 1408 851 1408 932 q 1436 761 1408 810 q 1444 732 1444 747 q 1415 680 1444 703 q 1350 657 1385 657 q 1282 694 1306 657 q 1243 843 1243 758 q 1381 1094 1243 1013 q 1729 1176 1518 1176 q 2032 1143 1899 1176 q 2111 1065 2111 1124 m 1513 0 q 1649 103 1581 0 q 1768 463 1717 206 q 1429 99 1429 314 q 1451 26 1429 51 q 1513 0 1474 0 z "},"Ń":{"ha":1228,"x_min":-1,"x_max":1407,"o":"m 322 -7 q 249 16 271 -7 q 226 103 226 39 q 235 207 226 146 q 264 392 243 268 q 286 527 267 408 q 321 776 306 646 q 335 943 335 888 q 289 1006 335 1006 q 202 969 254 1006 q 90 851 150 932 q 47 825 71 825 q 13 844 28 825 q -1 886 -1 863 q 7 931 -1 910 q 38 983 15 953 q 189 1127 106 1076 q 364 1178 272 1178 q 478 1131 440 1178 q 517 993 517 1083 q 494 760 517 913 q 671 1072 564 965 q 922 1178 778 1178 q 1094 1113 1036 1178 q 1151 940 1151 1049 q 1133 792 1151 879 l 1049 394 q 1035 275 1035 325 q 1062 188 1035 217 q 1138 158 1089 158 q 1227 189 1183 158 q 1331 290 1271 219 q 1368 310 1347 310 q 1397 293 1386 310 q 1407 247 1407 276 q 1381 161 1407 193 q 1238 33 1308 74 q 1089 -7 1167 -7 q 904 63 971 -7 q 838 251 838 133 q 845 351 838 297 q 871 489 853 406 l 926 743 q 936 788 929 756 q 947 848 943 819 q 951 904 951 876 q 926 975 951 949 q 856 1001 901 1001 q 689 913 772 1001 q 535 626 606 824 q 424 119 464 428 q 395 21 414 49 q 322 -7 376 -7 m 776 1267 q 739 1281 754 1267 q 724 1317 724 1296 q 750 1367 724 1344 l 989 1571 q 1050 1594 1017 1594 q 1113 1569 1086 1594 q 1139 1507 1139 1543 q 1065 1408 1139 1447 l 806 1274 q 776 1267 793 1267 z "},"Ň":{"ha":1228,"x_min":-1,"x_max":1407,"o":"m 322 -7 q 249 16 271 -7 q 226 103 226 39 q 235 207 226 146 q 264 392 243 268 q 286 527 267 408 q 321 776 306 646 q 335 943 335 888 q 289 1006 335 1006 q 202 969 254 1006 q 90 851 150 932 q 47 825 71 825 q 13 844 28 825 q -1 886 -1 863 q 7 931 -1 910 q 38 983 15 953 q 189 1127 106 1076 q 364 1178 272 1178 q 478 1131 440 1178 q 517 993 517 1083 q 494 760 517 913 q 671 1072 564 965 q 922 1178 778 1178 q 1094 1113 1036 1178 q 1151 940 1151 1049 q 1133 792 1151 879 l 1049 394 q 1035 275 1035 325 q 1062 188 1035 217 q 1138 158 1089 158 q 1227 189 1183 158 q 1331 290 1271 219 q 1368 310 1347 310 q 1397 293 1386 310 q 1407 247 1407 276 q 1381 161 1407 193 q 1238 33 1308 74 q 1089 -7 1167 -7 q 904 63 971 -7 q 838 251 838 133 q 845 351 838 297 q 871 489 853 406 l 926 743 q 936 788 929 756 q 947 848 943 819 q 951 904 951 876 q 926 975 951 949 q 856 1001 901 1001 q 689 913 772 1001 q 535 626 606 824 q 424 119 464 428 q 395 21 414 49 q 322 -7 376 -7 m 778 1267 q 714 1289 739 1267 q 663 1363 689 1311 l 593 1500 q 579 1551 579 1528 q 599 1597 579 1581 q 647 1613 618 1613 q 694 1601 676 1613 q 722 1563 713 1590 l 789 1388 l 897 1558 q 936 1601 917 1589 q 988 1613 956 1613 q 1031 1599 1014 1613 q 1049 1563 1049 1586 q 1025 1504 1049 1536 l 908 1344 q 849 1285 879 1304 q 778 1267 818 1267 z "},"Ņ":{"ha":1228,"x_min":-1,"x_max":1407,"o":"m 322 -7 q 249 16 271 -7 q 226 103 226 39 q 235 207 226 146 q 264 392 243 268 q 286 527 267 408 q 321 776 306 646 q 335 943 335 888 q 289 1006 335 1006 q 202 969 254 1006 q 90 851 150 932 q 47 825 71 825 q 13 844 28 825 q -1 886 -1 863 q 7 931 -1 910 q 38 983 15 953 q 189 1127 106 1076 q 364 1178 272 1178 q 478 1131 440 1178 q 517 993 517 1083 q 494 760 517 913 q 671 1072 564 965 q 922 1178 778 1178 q 1094 1113 1036 1178 q 1151 940 1151 1049 q 1133 792 1151 879 l 1049 394 q 1035 275 1035 325 q 1062 188 1035 217 q 1138 158 1089 158 q 1227 189 1183 158 q 1331 290 1271 219 q 1368 310 1347 310 q 1397 293 1386 310 q 1407 247 1407 276 q 1381 161 1407 193 q 1238 33 1308 74 q 1089 -7 1167 -7 q 904 63 971 -7 q 838 251 838 133 q 845 351 838 297 q 871 489 853 406 l 926 743 q 936 788 929 756 q 947 848 943 819 q 951 904 951 876 q 926 975 951 949 q 856 1001 901 1001 q 689 913 772 1001 q 535 626 606 824 q 424 119 464 428 q 395 21 414 49 q 322 -7 376 -7 m 560 -383 q 517 -368 535 -383 q 500 -326 499 -353 l 504 -185 q 530 -121 506 -142 q 588 -100 554 -100 q 648 -120 622 -100 q 674 -178 674 -140 q 665 -219 674 -197 l 625 -337 q 599 -372 618 -360 q 560 -383 581 -383 z "},"Ŋ":{"ha":1228,"x_min":-1,"x_max":1407,"o":"m 1368 310 q 1397 293 1386 310 q 1407 247 1407 276 q 1381 161 1407 193 q 1251 38 1315 82 q 1113 -7 1188 -7 q 954 35 1028 -7 q 783 -353 882 -224 q 535 -482 685 -482 q 375 -446 451 -482 q 251 -342 299 -410 q 233 -289 233 -315 q 258 -231 233 -256 q 314 -206 282 -206 q 382 -244 354 -206 q 550 -344 454 -344 q 640 -307 601 -344 q 716 -159 678 -269 q 800 167 754 -49 l 888 576 q 903 643 907 656 q 936 808 926 754 q 946 906 946 863 q 923 975 946 949 q 856 1001 900 1001 q 689 913 772 1001 q 535 626 606 824 q 424 119 464 428 q 395 21 414 49 q 322 -7 376 -7 q 250 22 274 -7 q 226 117 226 51 q 237 224 226 153 q 261 379 247 296 q 321 776 300 601 q 335 943 335 888 q 289 1006 335 1006 q 202 969 254 1006 q 90 851 150 932 q 47 825 71 825 q 13 844 28 825 q -1 886 -1 863 q 7 931 -1 910 q 38 983 15 953 q 189 1127 106 1076 q 364 1178 272 1178 q 478 1131 440 1178 q 517 993 517 1083 q 494 760 517 913 q 671 1072 564 965 q 922 1178 778 1178 q 1090 1115 1035 1178 q 1144 947 1144 1051 q 1128 783 1144 871 q 1089 597 1113 694 l 997 203 q 1144 161 1076 161 q 1230 190 1189 161 q 1331 290 1271 219 q 1368 310 1347 310 z "},"ǋ":{"ha":1581,"x_min":-1,"x_max":1732,"o":"m 322 -7 q 249 16 271 -7 q 226 103 226 39 q 235 207 226 146 q 264 392 243 268 q 286 527 267 408 q 321 776 306 646 q 335 943 335 888 q 289 1006 335 1006 q 202 969 254 1006 q 90 851 150 932 q 47 825 71 825 q 13 844 28 825 q -1 886 -1 863 q 7 931 -1 910 q 38 983 15 953 q 189 1127 106 1076 q 364 1178 272 1178 q 478 1131 440 1178 q 517 993 517 1083 q 494 760 517 913 q 671 1072 564 965 q 922 1178 778 1178 q 1094 1113 1036 1178 q 1151 940 1151 1049 q 1133 792 1151 879 l 1049 394 q 1035 275 1035 325 q 1062 188 1035 217 q 1138 158 1089 158 q 1227 189 1183 158 q 1331 290 1271 219 q 1368 310 1347 310 q 1397 293 1386 310 q 1407 247 1407 276 q 1381 161 1407 193 q 1238 33 1308 74 q 1089 -7 1167 -7 q 904 63 971 -7 q 838 251 838 133 q 845 351 838 297 q 871 489 853 406 l 926 743 q 936 788 929 756 q 947 848 943 819 q 951 904 951 876 q 926 975 951 949 q 856 1001 901 1001 q 689 913 772 1001 q 535 626 606 824 q 424 119 464 428 q 395 21 414 49 q 322 -7 376 -7 m 1443 739 q 1356 766 1385 739 q 1326 842 1326 793 q 1365 923 1326 890 q 1460 956 1403 956 q 1543 931 1511 956 q 1575 860 1575 906 q 1539 772 1575 804 q 1443 739 1503 739 m 1693 307 q 1722 290 1711 307 q 1732 246 1732 272 q 1722 196 1732 214 q 1692 164 1713 178 q 1432 -12 1594 100 q 1292 -467 1378 -301 q 1072 -632 1206 -632 q 956 -588 1000 -632 q 913 -474 913 -544 q 989 -263 913 -375 q 1276 13 1065 -151 l 1286 83 q 1317 346 1306 217 q 1343 569 1325 421 q 1374 628 1349 610 q 1450 647 1399 647 q 1505 635 1492 647 q 1518 600 1518 622 q 1472 247 1518 536 l 1458 151 q 1661 296 1569 235 q 1693 307 1679 307 m 1088 -497 q 1167 -415 1124 -497 q 1247 -151 1210 -333 q 1095 -315 1142 -242 q 1049 -443 1049 -387 q 1088 -497 1049 -497 z "},"Ñ":{"ha":1228,"x_min":-1,"x_max":1407,"o":"m 322 -7 q 249 16 271 -7 q 226 103 226 39 q 235 207 226 146 q 264 392 243 268 q 286 527 267 408 q 321 776 306 646 q 335 943 335 888 q 289 1006 335 1006 q 202 969 254 1006 q 90 851 150 932 q 47 825 71 825 q 13 844 28 825 q -1 886 -1 863 q 7 931 -1 910 q 38 983 15 953 q 189 1127 106 1076 q 364 1178 272 1178 q 478 1131 440 1178 q 517 993 517 1083 q 494 760 517 913 q 671 1072 564 965 q 922 1178 778 1178 q 1094 1113 1036 1178 q 1151 940 1151 1049 q 1133 792 1151 879 l 1049 394 q 1035 275 1035 325 q 1062 188 1035 217 q 1138 158 1089 158 q 1227 189 1183 158 q 1331 290 1271 219 q 1368 310 1347 310 q 1397 293 1386 310 q 1407 247 1407 276 q 1381 161 1407 193 q 1238 33 1308 74 q 1089 -7 1167 -7 q 904 63 971 -7 q 838 251 838 133 q 845 351 838 297 q 871 489 853 406 l 926 743 q 936 788 929 756 q 947 848 943 819 q 951 904 951 876 q 926 975 951 949 q 856 1001 901 1001 q 689 913 772 1001 q 535 626 606 824 q 424 119 464 428 q 395 21 414 49 q 322 -7 376 -7 m 917 1267 q 875 1274 894 1267 q 825 1303 856 1282 l 676 1406 l 615 1318 q 587 1295 604 1303 q 551 1288 569 1288 q 506 1301 525 1288 q 488 1342 488 1315 q 539 1454 488 1379 q 674 1543 600 1543 q 716 1536 697 1543 q 765 1507 735 1529 l 914 1404 l 975 1492 q 1003 1515 986 1507 q 1039 1522 1021 1522 q 1084 1508 1065 1522 q 1103 1468 1103 1494 q 1092 1427 1103 1450 q 1051 1356 1081 1404 q 989 1288 1024 1310 q 917 1267 954 1267 z "},"O":{"ha":1133,"x_min":89,"x_max":1108,"o":"m 528 -7 q 305 49 404 -7 q 147 212 206 104 q 89 469 89 319 q 166 842 89 681 q 376 1090 243 1003 q 669 1178 508 1178 q 892 1122 793 1178 q 1050 959 992 1067 q 1108 701 1108 851 q 1031 329 1108 490 q 822 81 954 168 q 528 -7 689 -7 m 542 157 q 733 224 650 157 q 860 409 815 290 q 904 678 904 528 q 835 928 904 843 q 656 1014 765 1014 q 467 948 549 1014 q 339 763 385 882 q 293 493 293 644 q 363 242 293 328 q 542 157 432 157 z "},"Ó":{"ha":1133,"x_min":89,"x_max":1108,"o":"m 528 -7 q 305 49 404 -7 q 147 212 206 104 q 89 469 89 319 q 166 842 89 681 q 376 1090 243 1003 q 669 1178 508 1178 q 892 1122 793 1178 q 1050 959 992 1067 q 1108 701 1108 851 q 1031 329 1108 490 q 822 81 954 168 q 528 -7 689 -7 m 542 157 q 733 224 650 157 q 860 409 815 290 q 904 678 904 528 q 835 928 904 843 q 656 1014 765 1014 q 467 948 549 1014 q 339 763 385 882 q 293 493 293 644 q 363 242 293 328 q 542 157 432 157 m 682 1267 q 644 1281 660 1267 q 629 1317 629 1296 q 656 1367 629 1344 l 894 1571 q 956 1594 922 1594 q 1018 1569 992 1594 q 1044 1507 1044 1543 q 971 1408 1044 1447 l 711 1274 q 682 1267 699 1267 z "},"Ŏ":{"ha":1133,"x_min":89,"x_max":1108,"o":"m 528 -7 q 305 49 404 -7 q 147 212 206 104 q 89 469 89 319 q 166 842 89 681 q 376 1090 243 1003 q 669 1178 508 1178 q 892 1122 793 1178 q 1050 959 992 1067 q 1108 701 1108 851 q 1031 329 1108 490 q 822 81 954 168 q 528 -7 689 -7 m 542 157 q 733 224 650 157 q 860 409 815 290 q 904 678 904 528 q 835 928 904 843 q 656 1014 765 1014 q 467 948 549 1014 q 339 763 385 882 q 293 493 293 644 q 363 242 293 328 q 542 157 432 157 m 690 1267 q 541 1295 604 1267 q 445 1369 478 1324 q 413 1461 413 1414 q 436 1507 413 1490 q 494 1524 460 1524 q 538 1513 522 1524 q 565 1478 554 1503 q 617 1417 586 1433 q 701 1400 647 1400 q 789 1420 756 1400 q 850 1482 822 1440 q 929 1524 878 1524 q 972 1510 956 1524 q 989 1471 989 1496 q 953 1378 989 1426 q 849 1299 917 1331 q 690 1267 781 1267 z "},"Ô":{"ha":1133,"x_min":89,"x_max":1108,"o":"m 528 -7 q 305 49 404 -7 q 147 212 206 104 q 89 469 89 319 q 166 842 89 681 q 376 1090 243 1003 q 669 1178 508 1178 q 892 1122 793 1178 q 1050 959 992 1067 q 1108 701 1108 851 q 1031 329 1108 490 q 822 81 954 168 q 528 -7 689 -7 m 542 157 q 733 224 650 157 q 860 409 815 290 q 904 678 904 528 q 835 928 904 843 q 656 1014 765 1014 q 467 948 549 1014 q 339 763 385 882 q 293 493 293 644 q 363 242 293 328 q 542 157 432 157 m 715 1518 l 604 1321 q 564 1279 589 1293 q 513 1265 539 1265 q 463 1281 483 1265 q 442 1324 442 1297 q 460 1375 442 1347 l 588 1565 q 733 1643 639 1643 q 802 1621 776 1643 q 849 1547 828 1599 l 914 1379 q 922 1340 922 1358 q 899 1287 922 1307 q 843 1267 875 1267 q 799 1280 819 1267 q 772 1317 779 1293 l 715 1518 z "},"Ố":{"ha":1133,"x_min":89,"x_max":1117,"o":"m 528 -7 q 305 49 404 -7 q 147 212 206 104 q 89 469 89 319 q 166 842 89 681 q 376 1090 243 1003 q 669 1178 508 1178 q 892 1122 793 1178 q 1050 959 992 1067 q 1108 701 1108 851 q 1031 329 1108 490 q 822 81 954 168 q 528 -7 689 -7 m 542 157 q 733 224 650 157 q 860 409 815 290 q 904 678 904 528 q 835 928 904 843 q 656 1014 765 1014 q 467 948 549 1014 q 339 763 385 882 q 293 493 293 644 q 363 242 293 328 q 542 157 432 157 m 901 1526 q 869 1539 882 1526 q 857 1569 857 1551 q 879 1611 857 1589 l 989 1721 q 1040 1743 1011 1743 q 1094 1720 1071 1743 q 1117 1667 1117 1697 q 1102 1619 1117 1642 q 1054 1583 1088 1597 l 926 1532 q 901 1526 910 1526 m 513 1260 q 466 1271 485 1260 q 447 1301 447 1282 q 474 1354 447 1324 l 588 1485 q 733 1547 643 1547 q 802 1529 776 1547 q 849 1471 828 1511 l 903 1364 q 915 1319 915 1339 q 892 1275 915 1290 q 838 1260 868 1260 q 799 1267 814 1260 q 776 1292 785 1274 l 708 1436 l 600 1294 q 513 1260 572 1260 z "},"Ộ":{"ha":1133,"x_min":89,"x_max":1108,"o":"m 528 -7 q 305 49 404 -7 q 147 212 206 104 q 89 469 89 319 q 166 842 89 681 q 376 1090 243 1003 q 669 1178 508 1178 q 892 1122 793 1178 q 1050 959 992 1067 q 1108 701 1108 851 q 1031 329 1108 490 q 822 81 954 168 q 528 -7 689 -7 m 542 157 q 733 224 650 157 q 860 409 815 290 q 904 678 904 528 q 835 928 904 843 q 656 1014 765 1014 q 467 948 549 1014 q 339 763 385 882 q 293 493 293 644 q 363 242 293 328 q 542 157 432 157 m 493 -322 q 404 -294 435 -322 q 374 -217 374 -265 q 413 -133 374 -167 q 510 -100 453 -100 q 595 -126 563 -100 q 628 -199 628 -151 q 590 -289 628 -256 q 493 -322 553 -322 m 715 1518 l 604 1321 q 564 1279 589 1293 q 513 1265 539 1265 q 463 1281 483 1265 q 442 1324 442 1297 q 460 1375 442 1347 l 588 1565 q 733 1643 639 1643 q 802 1621 776 1643 q 849 1547 828 1599 l 914 1379 q 922 1340 922 1358 q 899 1287 922 1307 q 843 1267 875 1267 q 799 1280 819 1267 q 772 1317 779 1293 l 715 1518 z "},"Ồ":{"ha":1133,"x_min":89,"x_max":1108,"o":"m 528 -7 q 305 49 404 -7 q 147 212 206 104 q 89 469 89 319 q 166 842 89 681 q 376 1090 243 1003 q 669 1178 508 1178 q 892 1122 793 1178 q 1050 959 992 1067 q 1108 701 1108 851 q 1031 329 1108 490 q 822 81 954 168 q 528 -7 689 -7 m 542 157 q 733 224 650 157 q 860 409 815 290 q 904 678 904 528 q 835 928 904 843 q 656 1014 765 1014 q 467 948 549 1014 q 339 763 385 882 q 293 493 293 644 q 363 242 293 328 q 542 157 432 157 m 539 1526 q 514 1532 531 1526 l 386 1583 q 338 1619 353 1597 q 324 1667 324 1642 q 347 1720 324 1697 q 400 1743 369 1743 q 451 1721 429 1743 l 561 1611 q 583 1569 583 1589 q 571 1539 583 1551 q 539 1526 558 1526 m 513 1260 q 466 1271 485 1260 q 447 1301 447 1282 q 474 1354 447 1324 l 588 1485 q 733 1547 643 1547 q 802 1529 776 1547 q 849 1471 828 1511 l 903 1364 q 915 1319 915 1339 q 892 1275 915 1290 q 838 1260 868 1260 q 799 1267 814 1260 q 776 1292 785 1274 l 708 1436 l 600 1294 q 513 1260 572 1260 z "},"Ổ":{"ha":1133,"x_min":89,"x_max":1128,"o":"m 528 -7 q 305 49 404 -7 q 147 212 206 104 q 89 469 89 319 q 166 842 89 681 q 376 1090 243 1003 q 669 1178 508 1178 q 892 1122 793 1178 q 1050 959 992 1067 q 1108 701 1108 851 q 1031 329 1108 490 q 822 81 954 168 q 528 -7 689 -7 m 542 157 q 733 224 650 157 q 860 409 815 290 q 904 678 904 528 q 835 928 904 843 q 656 1014 765 1014 q 467 948 549 1014 q 339 763 385 882 q 293 493 293 644 q 363 242 293 328 q 542 157 432 157 m 936 1440 q 899 1451 910 1440 q 889 1486 889 1463 q 944 1539 889 1539 q 997 1553 979 1539 q 1015 1588 1015 1567 q 960 1632 1015 1632 q 912 1629 938 1632 q 881 1626 886 1626 q 854 1635 861 1626 q 847 1669 847 1644 q 860 1706 847 1694 q 901 1724 874 1717 q 963 1729 924 1729 q 1128 1601 1128 1729 q 1081 1483 1128 1526 q 953 1440 1035 1440 l 936 1440 m 513 1260 q 466 1271 485 1260 q 447 1301 447 1282 q 474 1354 447 1324 l 588 1485 q 733 1547 643 1547 q 802 1529 776 1547 q 849 1471 828 1511 l 903 1364 q 915 1319 915 1339 q 892 1275 915 1290 q 838 1260 868 1260 q 799 1267 814 1260 q 776 1292 785 1274 l 708 1436 l 600 1294 q 513 1260 572 1260 z "},"Ỗ":{"ha":1133,"x_min":89,"x_max":1108,"o":"m 528 -7 q 305 49 404 -7 q 147 212 206 104 q 89 469 89 319 q 166 842 89 681 q 376 1090 243 1003 q 669 1178 508 1178 q 892 1122 793 1178 q 1050 959 992 1067 q 1108 701 1108 851 q 1031 329 1108 490 q 822 81 954 168 q 528 -7 689 -7 m 542 157 q 733 224 650 157 q 860 409 815 290 q 904 678 904 528 q 835 928 904 843 q 656 1014 765 1014 q 467 948 549 1014 q 339 763 385 882 q 293 493 293 644 q 363 242 293 328 q 542 157 432 157 m 836 1554 q 799 1560 815 1554 q 758 1582 783 1565 l 632 1665 l 579 1594 q 525 1569 560 1569 q 487 1581 503 1569 q 471 1614 471 1593 q 515 1704 471 1642 q 629 1775 565 1775 q 666 1769 650 1775 q 707 1746 682 1764 l 833 1664 l 886 1733 q 910 1752 896 1746 q 942 1758 925 1758 q 979 1747 964 1758 q 994 1715 994 1736 q 985 1683 994 1700 q 950 1625 975 1665 q 836 1554 904 1554 m 513 1260 q 466 1271 485 1260 q 447 1301 447 1282 q 474 1354 447 1324 l 588 1485 q 733 1547 643 1547 q 802 1529 776 1547 q 849 1471 828 1511 l 903 1364 q 915 1319 915 1339 q 892 1275 915 1290 q 838 1260 868 1260 q 799 1267 814 1260 q 776 1292 785 1274 l 708 1436 l 600 1294 q 513 1260 572 1260 z "},"Ȍ":{"ha":1133,"x_min":89,"x_max":1108,"o":"m 528 -7 q 305 49 404 -7 q 147 212 206 104 q 89 469 89 319 q 166 842 89 681 q 376 1090 243 1003 q 669 1178 508 1178 q 892 1122 793 1178 q 1050 959 992 1067 q 1108 701 1108 851 q 1031 329 1108 490 q 822 81 954 168 q 528 -7 689 -7 m 542 157 q 733 224 650 157 q 860 409 815 290 q 904 678 904 528 q 835 928 904 843 q 656 1014 765 1014 q 467 948 549 1014 q 339 763 385 882 q 293 493 293 644 q 363 242 293 328 q 542 157 432 157 m 558 1267 q 506 1297 525 1267 l 417 1442 q 394 1510 394 1478 q 421 1571 394 1547 q 481 1594 447 1594 q 526 1580 506 1594 q 554 1536 546 1565 l 611 1339 q 614 1319 614 1325 q 597 1281 614 1296 q 558 1267 581 1267 m 810 1267 q 757 1297 776 1267 l 668 1442 q 646 1510 646 1478 q 672 1571 646 1547 q 732 1594 699 1594 q 777 1580 757 1594 q 806 1536 797 1565 l 863 1339 q 865 1319 865 1325 q 849 1281 865 1296 q 810 1267 832 1267 z "},"Ö":{"ha":1133,"x_min":89,"x_max":1108,"o":"m 528 -7 q 305 49 404 -7 q 147 212 206 104 q 89 469 89 319 q 166 842 89 681 q 376 1090 243 1003 q 669 1178 508 1178 q 892 1122 793 1178 q 1050 959 992 1067 q 1108 701 1108 851 q 1031 329 1108 490 q 822 81 954 168 q 528 -7 689 -7 m 542 157 q 733 224 650 157 q 860 409 815 290 q 904 678 904 528 q 835 928 904 843 q 656 1014 765 1014 q 467 948 549 1014 q 339 763 385 882 q 293 493 293 644 q 363 242 293 328 q 542 157 432 157 m 544 1267 q 474 1292 500 1267 q 447 1369 447 1318 q 478 1458 447 1426 q 560 1490 508 1490 q 631 1465 604 1490 q 657 1388 657 1439 q 626 1299 657 1331 q 544 1267 596 1267 m 833 1267 q 763 1292 789 1267 q 736 1369 736 1318 q 767 1458 736 1426 q 849 1490 797 1490 q 919 1465 893 1490 q 946 1388 946 1439 q 915 1299 946 1331 q 833 1267 885 1267 z "},"Ȫ":{"ha":1133,"x_min":89,"x_max":1108,"o":"m 528 -7 q 305 49 404 -7 q 147 212 206 104 q 89 469 89 319 q 166 842 89 681 q 376 1090 243 1003 q 669 1178 508 1178 q 892 1122 793 1178 q 1050 959 992 1067 q 1108 701 1108 851 q 1031 329 1108 490 q 822 81 954 168 q 528 -7 689 -7 m 542 157 q 733 224 650 157 q 860 409 815 290 q 904 678 904 528 q 835 928 904 843 q 656 1014 765 1014 q 467 948 549 1014 q 339 763 385 882 q 293 493 293 644 q 363 242 293 328 q 542 157 432 157 m 544 1267 q 474 1292 500 1267 q 447 1369 447 1318 q 478 1458 447 1426 q 560 1490 508 1490 q 631 1465 604 1490 q 657 1388 657 1439 q 626 1299 657 1331 q 544 1267 596 1267 m 833 1267 q 763 1292 789 1267 q 736 1369 736 1318 q 767 1458 736 1426 q 849 1490 797 1490 q 919 1465 893 1490 q 946 1388 946 1439 q 915 1299 946 1331 q 833 1267 885 1267 m 563 1590 q 500 1651 500 1590 q 519 1706 500 1686 q 574 1726 539 1726 l 883 1726 q 930 1712 914 1726 q 946 1669 946 1697 q 926 1611 946 1632 q 872 1590 907 1590 l 563 1590 z "},"Ȱ":{"ha":1133,"x_min":89,"x_max":1108,"o":"m 528 -7 q 305 49 404 -7 q 147 212 206 104 q 89 469 89 319 q 166 842 89 681 q 376 1090 243 1003 q 669 1178 508 1178 q 892 1122 793 1178 q 1050 959 992 1067 q 1108 701 1108 851 q 1031 329 1108 490 q 822 81 954 168 q 528 -7 689 -7 m 542 157 q 733 224 650 157 q 860 409 815 290 q 904 678 904 528 q 835 928 904 843 q 656 1014 765 1014 q 467 948 549 1014 q 339 763 385 882 q 293 493 293 644 q 363 242 293 328 q 542 157 432 157 m 686 1267 q 597 1295 628 1267 q 567 1372 567 1324 q 606 1456 567 1422 q 703 1489 646 1489 q 788 1463 756 1489 q 821 1390 821 1438 q 783 1300 821 1333 q 686 1267 746 1267 m 564 1589 q 501 1650 501 1589 q 521 1705 501 1685 q 575 1725 540 1725 l 885 1725 q 931 1710 915 1725 q 947 1668 947 1696 q 928 1610 947 1631 q 874 1589 908 1589 l 564 1589 z "},"Ọ":{"ha":1133,"x_min":89,"x_max":1108,"o":"m 528 -7 q 305 49 404 -7 q 147 212 206 104 q 89 469 89 319 q 166 842 89 681 q 376 1090 243 1003 q 669 1178 508 1178 q 892 1122 793 1178 q 1050 959 992 1067 q 1108 701 1108 851 q 1031 329 1108 490 q 822 81 954 168 q 528 -7 689 -7 m 542 157 q 733 224 650 157 q 860 409 815 290 q 904 678 904 528 q 835 928 904 843 q 656 1014 765 1014 q 467 948 549 1014 q 339 763 385 882 q 293 493 293 644 q 363 242 293 328 q 542 157 432 157 m 493 -322 q 404 -294 435 -322 q 374 -217 374 -265 q 413 -133 374 -167 q 510 -100 453 -100 q 595 -126 563 -100 q 628 -199 628 -151 q 590 -289 628 -256 q 493 -322 553 -322 z "},"Ò":{"ha":1133,"x_min":89,"x_max":1108,"o":"m 528 -7 q 305 49 404 -7 q 147 212 206 104 q 89 469 89 319 q 166 842 89 681 q 376 1090 243 1003 q 669 1178 508 1178 q 892 1122 793 1178 q 1050 959 992 1067 q 1108 701 1108 851 q 1031 329 1108 490 q 822 81 954 168 q 528 -7 689 -7 m 542 157 q 733 224 650 157 q 860 409 815 290 q 904 678 904 528 q 835 928 904 843 q 656 1014 765 1014 q 467 948 549 1014 q 339 763 385 882 q 293 493 293 644 q 363 242 293 328 q 542 157 432 157 m 664 1267 q 635 1274 647 1267 l 375 1408 q 301 1507 301 1447 q 328 1569 301 1543 q 390 1594 354 1594 q 451 1571 424 1594 l 690 1367 q 717 1317 717 1344 q 701 1281 717 1296 q 664 1267 686 1267 z "},"Ỏ":{"ha":1133,"x_min":89,"x_max":1108,"o":"m 528 -7 q 305 49 404 -7 q 147 212 206 104 q 89 469 89 319 q 166 842 89 681 q 376 1090 243 1003 q 669 1178 508 1178 q 892 1122 793 1178 q 1050 959 992 1067 q 1108 701 1108 851 q 1031 329 1108 490 q 822 81 954 168 q 528 -7 689 -7 m 542 157 q 733 224 650 157 q 860 409 815 290 q 904 678 904 528 q 835 928 904 843 q 656 1014 765 1014 q 467 948 549 1014 q 339 763 385 882 q 293 493 293 644 q 363 242 293 328 q 542 157 432 157 m 665 1267 q 622 1279 635 1267 q 610 1317 610 1292 q 628 1368 610 1354 q 676 1382 646 1382 q 738 1399 717 1382 q 758 1440 758 1415 q 742 1478 758 1464 q 693 1492 726 1492 q 638 1488 668 1492 q 600 1485 607 1485 q 569 1496 578 1485 q 561 1536 561 1507 q 577 1579 561 1565 q 625 1600 593 1593 q 697 1607 658 1607 q 892 1456 892 1607 q 837 1317 892 1368 q 686 1267 782 1267 l 665 1267 z "},"Ơ":{"ha":1133,"x_min":89,"x_max":1196,"o":"m 528 -7 q 305 49 404 -7 q 147 212 206 104 q 89 469 89 319 q 166 842 89 681 q 376 1090 243 1003 q 669 1178 508 1178 q 838 1164 744 1178 q 889 1158 879 1158 q 991 1199 958 1158 q 1039 1321 1024 1240 q 1114 1385 1050 1385 q 1174 1363 1151 1385 q 1196 1297 1196 1340 q 1194 1276 1196 1283 q 1136 1116 1183 1185 q 1013 1019 1089 1047 q 1108 701 1108 889 q 1031 329 1108 490 q 822 81 954 168 q 528 -7 689 -7 m 542 157 q 733 224 650 157 q 860 409 815 290 q 904 678 904 528 q 835 928 904 843 q 656 1014 765 1014 q 467 948 549 1014 q 339 763 385 882 q 293 493 293 644 q 363 242 293 328 q 542 157 432 157 z "},"Ớ":{"ha":1133,"x_min":89,"x_max":1196,"o":"m 528 -7 q 305 49 404 -7 q 147 212 206 104 q 89 469 89 319 q 166 842 89 681 q 376 1090 243 1003 q 669 1178 508 1178 q 838 1164 744 1178 q 889 1158 879 1158 q 991 1199 958 1158 q 1039 1321 1024 1240 q 1114 1385 1050 1385 q 1174 1363 1151 1385 q 1196 1297 1196 1340 q 1194 1276 1196 1283 q 1136 1116 1183 1185 q 1013 1019 1089 1047 q 1108 701 1108 889 q 1031 329 1108 490 q 822 81 954 168 q 528 -7 689 -7 m 542 157 q 733 224 650 157 q 860 409 815 290 q 904 678 904 528 q 835 928 904 843 q 656 1014 765 1014 q 467 948 549 1014 q 339 763 385 882 q 293 493 293 644 q 363 242 293 328 q 542 157 432 157 m 682 1267 q 644 1281 660 1267 q 629 1317 629 1296 q 656 1367 629 1344 l 894 1571 q 956 1594 922 1594 q 1018 1569 992 1594 q 1044 1507 1044 1543 q 971 1408 1044 1447 l 711 1274 q 682 1267 699 1267 z "},"Ợ":{"ha":1133,"x_min":89,"x_max":1196,"o":"m 528 -7 q 305 49 404 -7 q 147 212 206 104 q 89 469 89 319 q 166 842 89 681 q 376 1090 243 1003 q 669 1178 508 1178 q 838 1164 744 1178 q 889 1158 879 1158 q 991 1199 958 1158 q 1039 1321 1024 1240 q 1114 1385 1050 1385 q 1174 1363 1151 1385 q 1196 1297 1196 1340 q 1194 1276 1196 1283 q 1136 1116 1183 1185 q 1013 1019 1089 1047 q 1108 701 1108 889 q 1031 329 1108 490 q 822 81 954 168 q 528 -7 689 -7 m 542 157 q 733 224 650 157 q 860 409 815 290 q 904 678 904 528 q 835 928 904 843 q 656 1014 765 1014 q 467 948 549 1014 q 339 763 385 882 q 293 493 293 644 q 363 242 293 328 q 542 157 432 157 m 493 -322 q 404 -294 435 -322 q 374 -217 374 -265 q 413 -133 374 -167 q 510 -100 453 -100 q 595 -126 563 -100 q 628 -199 628 -151 q 590 -289 628 -256 q 493 -322 553 -322 z "},"Ờ":{"ha":1133,"x_min":89,"x_max":1196,"o":"m 528 -7 q 305 49 404 -7 q 147 212 206 104 q 89 469 89 319 q 166 842 89 681 q 376 1090 243 1003 q 669 1178 508 1178 q 838 1164 744 1178 q 889 1158 879 1158 q 991 1199 958 1158 q 1039 1321 1024 1240 q 1114 1385 1050 1385 q 1174 1363 1151 1385 q 1196 1297 1196 1340 q 1194 1276 1196 1283 q 1136 1116 1183 1185 q 1013 1019 1089 1047 q 1108 701 1108 889 q 1031 329 1108 490 q 822 81 954 168 q 528 -7 689 -7 m 542 157 q 733 224 650 157 q 860 409 815 290 q 904 678 904 528 q 835 928 904 843 q 656 1014 765 1014 q 467 948 549 1014 q 339 763 385 882 q 293 493 293 644 q 363 242 293 328 q 542 157 432 157 m 664 1267 q 635 1274 647 1267 l 375 1408 q 301 1507 301 1447 q 328 1569 301 1543 q 390 1594 354 1594 q 451 1571 424 1594 l 690 1367 q 717 1317 717 1344 q 701 1281 717 1296 q 664 1267 686 1267 z "},"Ở":{"ha":1133,"x_min":89,"x_max":1196,"o":"m 528 -7 q 305 49 404 -7 q 147 212 206 104 q 89 469 89 319 q 166 842 89 681 q 376 1090 243 1003 q 669 1178 508 1178 q 838 1164 744 1178 q 889 1158 879 1158 q 991 1199 958 1158 q 1039 1321 1024 1240 q 1114 1385 1050 1385 q 1174 1363 1151 1385 q 1196 1297 1196 1340 q 1194 1276 1196 1283 q 1136 1116 1183 1185 q 1013 1019 1089 1047 q 1108 701 1108 889 q 1031 329 1108 490 q 822 81 954 168 q 528 -7 689 -7 m 542 157 q 733 224 650 157 q 860 409 815 290 q 904 678 904 528 q 835 928 904 843 q 656 1014 765 1014 q 467 948 549 1014 q 339 763 385 882 q 293 493 293 644 q 363 242 293 328 q 542 157 432 157 m 665 1267 q 622 1279 635 1267 q 610 1317 610 1292 q 628 1368 610 1354 q 676 1382 646 1382 q 738 1399 717 1382 q 758 1440 758 1415 q 742 1478 758 1464 q 693 1492 726 1492 q 638 1488 668 1492 q 600 1485 607 1485 q 569 1496 578 1485 q 561 1536 561 1507 q 577 1579 561 1565 q 625 1600 593 1593 q 697 1607 658 1607 q 892 1456 892 1607 q 837 1317 892 1368 q 686 1267 782 1267 l 665 1267 z "},"Ỡ":{"ha":1133,"x_min":89,"x_max":1196,"o":"m 528 -7 q 305 49 404 -7 q 147 212 206 104 q 89 469 89 319 q 166 842 89 681 q 376 1090 243 1003 q 669 1178 508 1178 q 838 1164 744 1178 q 889 1158 879 1158 q 991 1199 958 1158 q 1039 1321 1024 1240 q 1114 1385 1050 1385 q 1174 1363 1151 1385 q 1196 1297 1196 1340 q 1194 1276 1196 1283 q 1136 1116 1183 1185 q 1013 1019 1089 1047 q 1108 701 1108 889 q 1031 329 1108 490 q 822 81 954 168 q 528 -7 689 -7 m 542 157 q 733 224 650 157 q 860 409 815 290 q 904 678 904 528 q 835 928 904 843 q 656 1014 765 1014 q 467 948 549 1014 q 339 763 385 882 q 293 493 293 644 q 363 242 293 328 q 542 157 432 157 m 822 1267 q 781 1274 800 1267 q 731 1303 761 1282 l 582 1406 l 521 1318 q 492 1295 510 1303 q 457 1288 475 1288 q 412 1301 431 1288 q 393 1342 393 1315 q 444 1454 393 1379 q 579 1543 506 1543 q 622 1536 603 1543 q 671 1507 640 1529 l 819 1404 l 881 1492 q 909 1515 892 1507 q 944 1522 926 1522 q 990 1508 971 1522 q 1008 1468 1008 1494 q 997 1427 1008 1450 q 957 1356 986 1404 q 894 1288 929 1310 q 822 1267 860 1267 z "},"Ő":{"ha":1133,"x_min":89,"x_max":1108,"o":"m 528 -7 q 305 49 404 -7 q 147 212 206 104 q 89 469 89 319 q 166 842 89 681 q 376 1090 243 1003 q 669 1178 508 1178 q 892 1122 793 1178 q 1050 959 992 1067 q 1108 701 1108 851 q 1031 329 1108 490 q 822 81 954 168 q 528 -7 689 -7 m 542 157 q 733 224 650 157 q 860 409 815 290 q 904 678 904 528 q 835 928 904 843 q 656 1014 765 1014 q 467 948 549 1014 q 339 763 385 882 q 293 493 293 644 q 363 242 293 328 q 542 157 432 157 m 561 1267 q 522 1281 539 1267 q 506 1319 506 1296 q 508 1339 506 1325 l 565 1536 q 594 1580 574 1565 q 639 1594 614 1594 q 699 1571 672 1594 q 725 1510 725 1547 q 703 1442 725 1478 l 614 1297 q 561 1267 594 1267 m 813 1267 q 774 1281 790 1267 q 757 1319 757 1296 q 760 1339 757 1325 l 817 1536 q 845 1580 825 1565 q 890 1594 865 1594 q 950 1571 924 1594 q 976 1510 976 1547 q 954 1442 976 1478 l 865 1297 q 813 1267 846 1267 z "},"Ȏ":{"ha":1133,"x_min":89,"x_max":1108,"o":"m 528 -7 q 305 49 404 -7 q 147 212 206 104 q 89 469 89 319 q 166 842 89 681 q 376 1090 243 1003 q 669 1178 508 1178 q 892 1122 793 1178 q 1050 959 992 1067 q 1108 701 1108 851 q 1031 329 1108 490 q 822 81 954 168 q 528 -7 689 -7 m 542 157 q 733 224 650 157 q 860 409 815 290 q 904 678 904 528 q 835 928 904 843 q 656 1014 765 1014 q 467 948 549 1014 q 339 763 385 882 q 293 493 293 644 q 363 242 293 328 q 542 157 432 157 m 475 1267 q 432 1281 449 1267 q 415 1319 415 1294 q 451 1412 415 1364 q 556 1492 488 1460 q 714 1524 624 1524 q 863 1495 800 1524 q 959 1422 926 1467 q 992 1329 992 1376 q 968 1283 992 1300 q 910 1267 944 1267 q 866 1277 882 1267 q 839 1313 850 1288 q 788 1374 818 1357 q 703 1390 757 1390 q 615 1370 649 1390 q 554 1308 582 1350 q 475 1267 526 1267 z "},"Ō":{"ha":1133,"x_min":89,"x_max":1108,"o":"m 528 -7 q 305 49 404 -7 q 147 212 206 104 q 89 469 89 319 q 166 842 89 681 q 376 1090 243 1003 q 669 1178 508 1178 q 892 1122 793 1178 q 1050 959 992 1067 q 1108 701 1108 851 q 1031 329 1108 490 q 822 81 954 168 q 528 -7 689 -7 m 542 157 q 733 224 650 157 q 860 409 815 290 q 904 678 904 528 q 835 928 904 843 q 656 1014 765 1014 q 467 948 549 1014 q 339 763 385 882 q 293 493 293 644 q 363 242 293 328 q 542 157 432 157 m 524 1267 q 461 1328 461 1267 q 481 1383 461 1363 q 535 1403 500 1403 l 844 1403 q 891 1388 875 1403 q 907 1346 907 1374 q 888 1288 907 1308 q 833 1267 868 1267 l 524 1267 z "},"Ǫ":{"ha":1133,"x_min":89,"x_max":1108,"o":"m 528 -7 q 305 49 404 -7 q 147 212 206 104 q 89 469 89 319 q 166 842 89 681 q 376 1090 243 1003 q 669 1178 508 1178 q 892 1122 793 1178 q 1050 959 992 1067 q 1108 701 1108 851 q 1031 329 1108 490 q 822 81 954 168 q 528 -7 689 -7 m 542 157 q 733 224 650 157 q 860 409 815 290 q 904 678 904 528 q 835 928 904 843 q 656 1014 765 1014 q 467 948 549 1014 q 339 763 385 882 q 293 493 293 644 q 363 242 293 328 q 542 157 432 157 m 647 -353 q 492 -302 550 -353 q 433 -164 433 -251 q 481 -19 433 -86 q 617 94 528 47 l 675 14 q 603 -60 626 -19 q 581 -140 581 -100 q 606 -201 581 -181 q 667 -222 631 -222 q 732 -212 703 -222 q 769 -204 756 -204 q 797 -217 789 -204 q 806 -257 806 -231 q 790 -306 806 -286 q 740 -339 775 -326 q 697 -349 724 -344 q 647 -353 669 -353 z "},"Ø":{"ha":1133,"x_min":89,"x_max":1108,"o":"m 826 1153 q 1031 991 954 1107 q 1108 701 1108 875 q 1031 329 1108 490 q 822 81 954 168 q 528 -7 689 -7 l 518 -7 l 489 -117 q 465 -146 483 -136 q 421 -156 446 -156 q 367 -140 390 -156 q 343 -97 343 -124 q 346 -79 343 -90 l 372 18 q 166 179 243 63 q 89 469 89 296 q 166 842 89 681 q 376 1090 243 1003 q 669 1178 508 1178 l 679 1178 l 706 1279 q 730 1308 711 1299 q 774 1318 749 1318 q 828 1302 804 1318 q 853 1258 853 1286 q 850 1240 853 1251 l 826 1153 m 293 493 q 326 304 293 381 q 418 190 360 228 l 538 632 l 636 1014 q 457 940 535 1008 q 336 755 379 871 q 293 493 293 639 m 560 157 q 742 231 664 163 q 862 416 819 300 q 904 678 904 532 q 871 867 904 790 q 779 981 838 943 l 682 626 l 560 157 z "},"Ǿ":{"ha":1133,"x_min":89,"x_max":1108,"o":"m 826 1153 q 1031 991 954 1107 q 1108 701 1108 875 q 1031 329 1108 490 q 822 81 954 168 q 528 -7 689 -7 l 518 -7 l 489 -117 q 465 -146 483 -136 q 421 -156 446 -156 q 367 -140 390 -156 q 343 -97 343 -124 q 346 -79 343 -90 l 372 18 q 166 179 243 63 q 89 469 89 296 q 166 842 89 681 q 376 1090 243 1003 q 669 1178 508 1178 l 679 1178 l 706 1279 q 730 1308 711 1299 q 774 1318 749 1318 q 828 1302 804 1318 q 853 1258 853 1286 q 850 1240 853 1251 l 826 1153 m 293 493 q 326 304 293 381 q 418 190 360 228 l 538 632 l 636 1014 q 457 940 535 1008 q 336 755 379 871 q 293 493 293 639 m 560 157 q 742 231 664 163 q 862 416 819 300 q 904 678 904 532 q 871 867 904 790 q 779 981 838 943 l 682 626 l 560 157 m 554 1267 q 517 1281 532 1267 q 501 1317 501 1296 q 528 1367 501 1344 l 767 1571 q 828 1594 794 1594 q 890 1569 864 1594 q 917 1507 917 1543 q 843 1408 917 1447 l 583 1274 q 554 1267 571 1267 z "},"Õ":{"ha":1133,"x_min":89,"x_max":1108,"o":"m 528 -7 q 305 49 404 -7 q 147 212 206 104 q 89 469 89 319 q 166 842 89 681 q 376 1090 243 1003 q 669 1178 508 1178 q 892 1122 793 1178 q 1050 959 992 1067 q 1108 701 1108 851 q 1031 329 1108 490 q 822 81 954 168 q 528 -7 689 -7 m 542 157 q 733 224 650 157 q 860 409 815 290 q 904 678 904 528 q 835 928 904 843 q 656 1014 765 1014 q 467 948 549 1014 q 339 763 385 882 q 293 493 293 644 q 363 242 293 328 q 542 157 432 157 m 822 1267 q 781 1274 800 1267 q 731 1303 761 1282 l 582 1406 l 521 1318 q 492 1295 510 1303 q 457 1288 475 1288 q 412 1301 431 1288 q 393 1342 393 1315 q 444 1454 393 1379 q 579 1543 506 1543 q 622 1536 603 1543 q 671 1507 640 1529 l 819 1404 l 881 1492 q 909 1515 892 1507 q 944 1522 926 1522 q 990 1508 971 1522 q 1008 1468 1008 1494 q 997 1427 1008 1450 q 957 1356 986 1404 q 894 1288 929 1310 q 822 1267 860 1267 z "},"Ȭ":{"ha":1133,"x_min":89,"x_max":1108,"o":"m 528 -7 q 305 49 404 -7 q 147 212 206 104 q 89 469 89 319 q 166 842 89 681 q 376 1090 243 1003 q 669 1178 508 1178 q 892 1122 793 1178 q 1050 959 992 1067 q 1108 701 1108 851 q 1031 329 1108 490 q 822 81 954 168 q 528 -7 689 -7 m 542 157 q 733 224 650 157 q 860 409 815 290 q 904 678 904 528 q 835 928 904 843 q 656 1014 765 1014 q 467 948 549 1014 q 339 763 385 882 q 293 493 293 644 q 363 242 293 328 q 542 157 432 157 m 822 1267 q 781 1274 800 1267 q 731 1303 761 1282 l 582 1406 l 521 1318 q 492 1295 510 1303 q 457 1288 475 1288 q 412 1301 431 1288 q 393 1342 393 1315 q 444 1454 393 1379 q 579 1543 506 1543 q 622 1536 603 1543 q 671 1507 640 1529 l 819 1404 l 881 1492 q 909 1515 892 1507 q 944 1522 926 1522 q 990 1508 971 1522 q 1008 1468 1008 1494 q 997 1427 1008 1450 q 957 1356 986 1404 q 894 1288 929 1310 q 822 1267 860 1267 m 571 1643 q 508 1704 508 1643 q 528 1759 508 1739 q 582 1779 547 1779 l 892 1779 q 938 1765 922 1779 q 954 1722 954 1750 q 935 1664 954 1685 q 881 1643 915 1643 l 571 1643 z "},"Œ":{"ha":1561,"x_min":89,"x_max":1736,"o":"m 1667 253 q 1694 260 1679 260 q 1725 244 1714 260 q 1736 203 1736 228 q 1723 145 1736 171 q 1678 96 1710 119 q 1514 22 1617 51 q 1317 -7 1411 -7 q 1065 49 1161 -7 q 929 200 969 104 q 751 47 854 101 q 528 -7 647 -7 q 305 49 404 -7 q 147 212 206 104 q 89 469 89 319 q 166 842 89 681 q 376 1090 243 1003 q 669 1178 508 1178 q 876 1128 785 1178 q 1021 982 967 1078 l 1028 1010 q 1097 1125 1049 1086 q 1215 1167 1144 1164 l 1288 1171 q 1563 1179 1463 1179 q 1632 1162 1613 1179 q 1651 1104 1651 1144 q 1626 1031 1651 1061 q 1551 1000 1601 1000 q 1360 996 1458 1000 q 1218 986 1263 992 q 1138 671 1185 886 q 1229 674 1201 674 q 1481 681 1378 681 q 1538 663 1522 681 q 1554 613 1554 646 q 1530 541 1554 569 q 1463 511 1506 513 l 1306 507 q 1104 501 1233 504 q 1089 381 1089 433 q 1349 160 1089 160 q 1499 183 1422 160 q 1667 253 1575 206 m 542 157 q 733 224 650 157 q 860 409 815 290 q 904 678 904 528 q 835 928 904 843 q 656 1014 765 1014 q 467 947 550 1014 q 339 761 385 879 q 293 493 293 643 q 363 242 293 328 q 542 157 432 157 z "},"P":{"ha":1118,"x_min":64,"x_max":1143,"o":"m 1143 828 q 1082 611 1143 710 q 904 450 1021 513 q 626 376 788 388 l 567 42 q 378 -151 532 -151 q 222 -101 293 -151 q 107 51 150 -51 q 64 304 64 154 q 155 783 64 586 q 399 1077 246 979 q 738 1175 553 1175 q 959 1129 868 1175 q 1097 1005 1050 1083 q 1143 828 1143 926 m 651 519 q 936 815 936 556 q 876 965 936 907 q 689 1022 815 1022 q 440 932 546 1022 q 276 681 333 842 q 218 315 218 521 q 235 163 218 229 q 280 59 253 96 q 332 22 307 22 q 385 118 367 22 l 431 381 q 383 388 376 389 q 329 413 342 394 q 317 461 317 432 q 334 510 317 492 q 382 528 351 528 q 403 526 396 528 q 454 519 436 521 q 506 810 472 628 q 544 877 514 857 q 614 897 574 897 q 680 880 660 897 q 700 825 700 863 q 697 789 700 803 l 651 519 z "},"Þ":{"ha":1078,"x_min":58,"x_max":1085,"o":"m 1085 703 q 1025 500 1085 593 q 849 349 965 407 q 565 285 732 290 q 519 42 546 175 q 456 -104 500 -57 q 333 -151 411 -151 q 194 -97 257 -151 q 94 55 131 -43 q 58 281 58 153 q 109 613 58 465 q 256 857 160 760 q 482 993 351 954 l 515 1229 q 551 1285 519 1267 q 622 1303 583 1303 q 690 1287 669 1303 q 710 1238 710 1271 q 708 1214 710 1222 l 682 1018 q 903 974 813 1015 q 1039 862 993 932 q 1085 703 1085 792 m 590 428 q 811 512 746 442 q 876 676 876 582 q 824 812 876 761 q 660 868 772 863 q 590 428 626 636 m 288 22 q 340 118 322 22 q 372 296 363 238 q 353 299 364 296 q 300 323 311 306 q 289 369 289 340 q 305 421 289 403 q 351 439 321 439 q 372 438 365 439 l 396 433 q 458 832 432 651 q 275 637 338 776 q 213 288 213 497 q 233 107 213 192 q 288 22 254 22 z "},"Q":{"ha":1133,"x_min":89,"x_max":1224,"o":"m 1194 -133 q 1216 -148 1208 -133 q 1224 -186 1224 -162 q 1200 -274 1224 -231 q 1076 -406 1153 -360 q 918 -453 999 -453 q 781 -427 836 -453 q 686 -351 725 -401 q 611 -217 647 -300 q 549 -88 574 -131 q 499 -26 525 -46 q 431 1 472 -7 q 183 154 276 32 q 89 469 89 276 q 166 842 89 681 q 376 1090 243 1003 q 669 1178 508 1178 q 892 1122 793 1178 q 1050 959 992 1067 q 1108 701 1108 851 q 1056 386 1108 526 q 910 153 1003 246 q 696 21 817 60 q 756 -36 731 1 q 811 -144 782 -74 q 880 -256 843 -222 q 971 -289 917 -289 q 1060 -258 1017 -289 q 1157 -156 1103 -226 q 1194 -133 1174 -133 m 542 157 q 733 224 650 157 q 860 409 815 290 q 904 678 904 528 q 835 928 904 843 q 656 1014 765 1014 q 467 947 550 1014 q 339 761 385 879 q 293 493 293 643 q 363 242 293 328 q 542 157 432 157 z "},"R":{"ha":1222,"x_min":76,"x_max":1401,"o":"m 1363 310 q 1391 293 1381 310 q 1401 247 1401 276 q 1375 161 1401 193 q 1240 37 1308 81 q 1079 -7 1172 -7 q 926 42 989 -7 q 806 208 863 90 q 733 348 760 303 q 681 413 707 393 q 618 436 656 432 q 586 253 613 407 q 572 168 575 183 q 517 38 558 83 q 390 -7 475 -7 q 226 48 297 -7 q 115 201 154 103 q 76 424 76 299 q 158 826 76 657 q 385 1085 239 996 q 724 1175 532 1175 q 947 1135 857 1175 q 1081 1024 1038 1094 q 1125 864 1125 953 q 1088 712 1125 786 q 978 581 1051 638 q 799 496 904 524 q 901 438 865 478 q 974 319 938 397 q 1051 197 1013 236 q 1139 158 1089 158 q 1224 188 1183 158 q 1325 290 1264 218 q 1363 310 1342 310 m 426 438 q 362 460 379 438 q 344 510 344 482 q 366 563 344 543 q 415 582 388 582 l 450 582 q 492 817 472 718 q 608 907 510 907 q 688 836 688 907 q 686 813 688 821 l 644 582 q 781 618 719 586 q 880 707 843 650 q 917 836 917 764 q 857 974 917 924 q 682 1024 797 1024 q 444 956 546 1024 q 285 756 342 889 q 228 433 228 624 q 246 281 228 344 q 290 185 264 217 q 340 153 317 153 q 370 171 358 153 q 389 229 382 189 l 426 438 z "},"Ŕ":{"ha":1222,"x_min":76,"x_max":1401,"o":"m 1363 310 q 1391 293 1381 310 q 1401 247 1401 276 q 1375 161 1401 193 q 1240 37 1308 81 q 1079 -7 1172 -7 q 926 42 989 -7 q 806 208 863 90 q 733 348 760 303 q 681 413 707 393 q 618 436 656 432 q 586 253 613 407 q 572 168 575 183 q 517 38 558 83 q 390 -7 475 -7 q 226 48 297 -7 q 115 201 154 103 q 76 424 76 299 q 158 826 76 657 q 385 1085 239 996 q 724 1175 532 1175 q 947 1135 857 1175 q 1081 1024 1038 1094 q 1125 864 1125 953 q 1088 712 1125 786 q 978 581 1051 638 q 799 496 904 524 q 901 438 865 478 q 974 319 938 397 q 1051 197 1013 236 q 1139 158 1089 158 q 1224 188 1183 158 q 1325 290 1264 218 q 1363 310 1342 310 m 426 438 q 362 460 379 438 q 344 510 344 482 q 366 563 344 543 q 415 582 388 582 l 450 582 q 492 817 472 718 q 608 907 510 907 q 688 836 688 907 q 686 813 688 821 l 644 582 q 781 618 719 586 q 880 707 843 650 q 917 836 917 764 q 857 974 917 924 q 682 1024 797 1024 q 444 956 546 1024 q 285 756 342 889 q 228 433 228 624 q 246 281 228 344 q 290 185 264 217 q 340 153 317 153 q 370 171 358 153 q 389 229 382 189 l 426 438 m 722 1267 q 685 1281 700 1267 q 669 1317 669 1296 q 696 1367 669 1344 l 935 1571 q 996 1594 963 1594 q 1058 1569 1032 1594 q 1085 1507 1085 1543 q 1011 1408 1085 1447 l 751 1274 q 722 1267 739 1267 z "},"Ř":{"ha":1222,"x_min":76,"x_max":1401,"o":"m 1363 310 q 1391 293 1381 310 q 1401 247 1401 276 q 1375 161 1401 193 q 1240 37 1308 81 q 1079 -7 1172 -7 q 926 42 989 -7 q 806 208 863 90 q 733 348 760 303 q 681 413 707 393 q 618 436 656 432 q 586 253 613 407 q 572 168 575 183 q 517 38 558 83 q 390 -7 475 -7 q 226 48 297 -7 q 115 201 154 103 q 76 424 76 299 q 158 826 76 657 q 385 1085 239 996 q 724 1175 532 1175 q 947 1135 857 1175 q 1081 1024 1038 1094 q 1125 864 1125 953 q 1088 712 1125 786 q 978 581 1051 638 q 799 496 904 524 q 901 438 865 478 q 974 319 938 397 q 1051 197 1013 236 q 1139 158 1089 158 q 1224 188 1183 158 q 1325 290 1264 218 q 1363 310 1342 310 m 426 438 q 362 460 379 438 q 344 510 344 482 q 366 563 344 543 q 415 582 388 582 l 450 582 q 492 817 472 718 q 608 907 510 907 q 688 836 688 907 q 686 813 688 821 l 644 582 q 781 618 719 586 q 880 707 843 650 q 917 836 917 764 q 857 974 917 924 q 682 1024 797 1024 q 444 956 546 1024 q 285 756 342 889 q 228 433 228 624 q 246 281 228 344 q 290 185 264 217 q 340 153 317 153 q 370 171 358 153 q 389 229 382 189 l 426 438 m 724 1267 q 660 1289 685 1267 q 608 1363 635 1311 l 539 1500 q 525 1551 525 1528 q 544 1597 525 1581 q 593 1613 564 1613 q 640 1601 622 1613 q 668 1563 658 1590 l 735 1388 l 843 1558 q 882 1601 863 1589 q 933 1613 901 1613 q 977 1599 960 1613 q 994 1563 994 1586 q 971 1504 994 1536 l 854 1344 q 794 1285 825 1304 q 724 1267 764 1267 z "},"Ŗ":{"ha":1222,"x_min":76,"x_max":1401,"o":"m 1363 310 q 1391 293 1381 310 q 1401 247 1401 276 q 1375 161 1401 193 q 1240 37 1308 81 q 1079 -7 1172 -7 q 926 42 989 -7 q 806 208 863 90 q 733 348 760 303 q 681 413 707 393 q 618 436 656 432 q 586 253 613 407 q 572 168 575 183 q 517 38 558 83 q 390 -7 475 -7 q 226 48 297 -7 q 115 201 154 103 q 76 424 76 299 q 158 826 76 657 q 385 1085 239 996 q 724 1175 532 1175 q 947 1135 857 1175 q 1081 1024 1038 1094 q 1125 864 1125 953 q 1088 712 1125 786 q 978 581 1051 638 q 799 496 904 524 q 901 438 865 478 q 974 319 938 397 q 1051 197 1013 236 q 1139 158 1089 158 q 1224 188 1183 158 q 1325 290 1264 218 q 1363 310 1342 310 m 426 438 q 362 460 379 438 q 344 510 344 482 q 366 563 344 543 q 415 582 388 582 l 450 582 q 492 817 472 718 q 608 907 510 907 q 688 836 688 907 q 686 813 688 821 l 644 582 q 781 618 719 586 q 880 707 843 650 q 917 836 917 764 q 857 974 917 924 q 682 1024 797 1024 q 444 956 546 1024 q 285 756 342 889 q 228 433 228 624 q 246 281 228 344 q 290 185 264 217 q 340 153 317 153 q 370 171 358 153 q 389 229 382 189 l 426 438 m 650 -383 q 607 -368 625 -383 q 590 -326 589 -353 l 594 -185 q 620 -121 596 -142 q 678 -100 644 -100 q 738 -120 713 -100 q 764 -178 764 -140 q 756 -219 764 -197 l 715 -337 q 690 -372 708 -360 q 650 -383 671 -383 z "},"Ȑ":{"ha":1222,"x_min":76,"x_max":1401,"o":"m 1363 310 q 1391 293 1381 310 q 1401 247 1401 276 q 1375 161 1401 193 q 1240 37 1308 81 q 1079 -7 1172 -7 q 926 42 989 -7 q 806 208 863 90 q 733 348 760 303 q 681 413 707 393 q 618 436 656 432 q 586 253 613 407 q 572 168 575 183 q 517 38 558 83 q 390 -7 475 -7 q 226 48 297 -7 q 115 201 154 103 q 76 424 76 299 q 158 826 76 657 q 385 1085 239 996 q 724 1175 532 1175 q 947 1135 857 1175 q 1081 1024 1038 1094 q 1125 864 1125 953 q 1088 712 1125 786 q 978 581 1051 638 q 799 496 904 524 q 901 438 865 478 q 974 319 938 397 q 1051 197 1013 236 q 1139 158 1089 158 q 1224 188 1183 158 q 1325 290 1264 218 q 1363 310 1342 310 m 426 438 q 362 460 379 438 q 344 510 344 482 q 366 563 344 543 q 415 582 388 582 l 450 582 q 492 817 472 718 q 608 907 510 907 q 688 836 688 907 q 686 813 688 821 l 644 582 q 781 618 719 586 q 880 707 843 650 q 917 836 917 764 q 857 974 917 924 q 682 1024 797 1024 q 444 956 546 1024 q 285 756 342 889 q 228 433 228 624 q 246 281 228 344 q 290 185 264 217 q 340 153 317 153 q 370 171 358 153 q 389 229 382 189 l 426 438 m 599 1267 q 546 1297 565 1267 l 457 1442 q 435 1510 435 1478 q 461 1571 435 1547 q 521 1594 488 1594 q 566 1580 546 1594 q 594 1536 586 1565 l 651 1339 q 654 1319 654 1325 q 638 1281 654 1296 q 599 1267 621 1267 m 850 1267 q 797 1297 817 1267 l 708 1442 q 686 1510 686 1478 q 713 1571 686 1547 q 772 1594 739 1594 q 817 1580 797 1594 q 846 1536 838 1565 l 903 1339 q 906 1319 906 1325 q 889 1281 906 1296 q 850 1267 872 1267 z "},"Ȓ":{"ha":1222,"x_min":76,"x_max":1401,"o":"m 1363 310 q 1391 293 1381 310 q 1401 247 1401 276 q 1375 161 1401 193 q 1240 37 1308 81 q 1079 -7 1172 -7 q 926 42 989 -7 q 806 208 863 90 q 733 348 760 303 q 681 413 707 393 q 618 436 656 432 q 586 253 613 407 q 572 168 575 183 q 517 38 558 83 q 390 -7 475 -7 q 226 48 297 -7 q 115 201 154 103 q 76 424 76 299 q 158 826 76 657 q 385 1085 239 996 q 724 1175 532 1175 q 947 1135 857 1175 q 1081 1024 1038 1094 q 1125 864 1125 953 q 1088 712 1125 786 q 978 581 1051 638 q 799 496 904 524 q 901 438 865 478 q 974 319 938 397 q 1051 197 1013 236 q 1139 158 1089 158 q 1224 188 1183 158 q 1325 290 1264 218 q 1363 310 1342 310 m 426 438 q 362 460 379 438 q 344 510 344 482 q 366 563 344 543 q 415 582 388 582 l 450 582 q 492 817 472 718 q 608 907 510 907 q 688 836 688 907 q 686 813 688 821 l 644 582 q 781 618 719 586 q 880 707 843 650 q 917 836 917 764 q 857 974 917 924 q 682 1024 797 1024 q 444 956 546 1024 q 285 756 342 889 q 228 433 228 624 q 246 281 228 344 q 290 185 264 217 q 340 153 317 153 q 370 171 358 153 q 389 229 382 189 l 426 438 m 515 1267 q 472 1281 489 1267 q 456 1319 456 1294 q 492 1412 456 1364 q 596 1492 528 1460 q 754 1524 664 1524 q 903 1495 840 1524 q 999 1422 967 1467 q 1032 1329 1032 1376 q 1008 1283 1032 1300 q 950 1267 985 1267 q 906 1277 922 1267 q 879 1313 890 1288 q 828 1374 858 1357 q 743 1390 797 1390 q 656 1370 689 1390 q 594 1308 622 1350 q 515 1267 567 1267 z "},"S":{"ha":963,"x_min":47,"x_max":963,"o":"m 454 -11 q 158 59 269 -11 q 47 274 47 129 q 74 390 47 350 q 151 431 100 431 q 213 411 189 431 q 236 361 236 392 q 232 313 236 333 q 230 293 232 307 q 228 264 228 279 q 291 171 228 201 q 468 140 354 140 q 653 183 586 140 q 719 301 719 225 q 689 383 719 349 q 613 440 658 417 q 483 496 567 463 q 309 575 376 538 q 194 677 242 613 q 146 838 146 742 q 199 1015 146 938 q 353 1136 253 1093 q 590 1179 454 1179 q 776 1149 692 1179 q 912 1058 861 1119 q 963 908 963 997 q 936 776 963 821 q 858 732 910 732 q 798 754 822 732 q 774 807 774 776 q 778 856 774 833 q 782 908 782 897 q 725 997 782 967 q 583 1028 668 1028 q 401 984 464 1028 q 338 861 338 940 q 370 771 338 808 q 451 708 403 733 q 588 649 500 683 q 757 571 693 606 q 866 476 821 536 q 911 329 911 417 q 787 77 911 165 q 454 -11 663 -11 z "},"Ś":{"ha":963,"x_min":47,"x_max":964,"o":"m 454 -11 q 158 59 269 -11 q 47 274 47 129 q 74 390 47 350 q 151 431 100 431 q 213 411 189 431 q 236 361 236 392 q 232 313 236 333 q 230 293 232 307 q 228 264 228 279 q 291 171 228 201 q 468 140 354 140 q 653 183 586 140 q 719 301 719 225 q 689 383 719 349 q 613 440 658 417 q 483 496 567 463 q 309 575 376 538 q 194 677 242 613 q 146 838 146 742 q 199 1015 146 938 q 353 1136 253 1093 q 590 1179 454 1179 q 776 1149 692 1179 q 912 1058 861 1119 q 963 908 963 997 q 936 776 963 821 q 858 732 910 732 q 798 754 822 732 q 774 807 774 776 q 778 856 774 833 q 782 908 782 897 q 725 997 782 967 q 583 1028 668 1028 q 401 984 464 1028 q 338 861 338 940 q 370 771 338 808 q 451 708 403 733 q 588 649 500 683 q 757 571 693 606 q 866 476 821 536 q 911 329 911 417 q 787 77 911 165 q 454 -11 663 -11 m 601 1267 q 564 1281 579 1267 q 549 1317 549 1296 q 575 1367 549 1344 l 814 1571 q 875 1594 842 1594 q 938 1569 911 1594 q 964 1507 964 1543 q 890 1408 964 1447 l 631 1274 q 601 1267 618 1267 z "},"Š":{"ha":963,"x_min":47,"x_max":963,"o":"m 454 -11 q 158 59 269 -11 q 47 274 47 129 q 74 390 47 350 q 151 431 100 431 q 213 411 189 431 q 236 361 236 392 q 232 313 236 333 q 230 293 232 307 q 228 264 228 279 q 291 171 228 201 q 468 140 354 140 q 653 183 586 140 q 719 301 719 225 q 689 383 719 349 q 613 440 658 417 q 483 496 567 463 q 309 575 376 538 q 194 677 242 613 q 146 838 146 742 q 199 1015 146 938 q 353 1136 253 1093 q 590 1179 454 1179 q 776 1149 692 1179 q 912 1058 861 1119 q 963 908 963 997 q 936 776 963 821 q 858 732 910 732 q 798 754 822 732 q 774 807 774 776 q 778 856 774 833 q 782 908 782 897 q 725 997 782 967 q 583 1028 668 1028 q 401 984 464 1028 q 338 861 338 940 q 370 771 338 808 q 451 708 403 733 q 588 649 500 683 q 757 571 693 606 q 866 476 821 536 q 911 329 911 417 q 787 77 911 165 q 454 -11 663 -11 m 603 1267 q 539 1289 564 1267 q 488 1363 514 1311 l 418 1500 q 404 1551 404 1528 q 424 1597 404 1581 q 472 1613 443 1613 q 519 1601 501 1613 q 547 1563 538 1590 l 614 1388 l 722 1558 q 761 1601 742 1589 q 813 1613 781 1613 q 856 1599 839 1613 q 874 1563 874 1586 q 850 1504 874 1536 l 733 1344 q 674 1285 704 1304 q 603 1267 643 1267 z "},"Ş":{"ha":963,"x_min":47,"x_max":963,"o":"m 454 -11 q 158 59 269 -11 q 47 274 47 129 q 74 390 47 350 q 151 431 100 431 q 213 411 189 431 q 236 361 236 392 q 232 313 236 333 q 230 293 232 307 q 228 264 228 279 q 291 171 228 201 q 468 140 354 140 q 653 183 586 140 q 719 301 719 225 q 689 383 719 349 q 613 440 658 417 q 483 496 567 463 q 309 575 376 538 q 194 677 242 613 q 146 838 146 742 q 199 1015 146 938 q 353 1136 253 1093 q 590 1179 454 1179 q 776 1149 692 1179 q 912 1058 861 1119 q 963 908 963 997 q 936 776 963 821 q 858 732 910 732 q 798 754 822 732 q 774 807 774 776 q 778 856 774 833 q 782 908 782 897 q 725 997 782 967 q 583 1028 668 1028 q 401 984 464 1028 q 338 861 338 940 q 370 771 338 808 q 451 708 403 733 q 588 649 500 683 q 757 571 693 606 q 866 476 821 536 q 911 329 911 417 q 787 77 911 165 q 454 -11 663 -11 m 347 -353 q 261 -346 294 -353 q 220 -325 233 -340 q 207 -281 207 -310 q 221 -232 207 -247 q 263 -217 235 -217 q 281 -218 274 -217 q 354 -224 318 -224 q 441 -201 410 -224 q 472 -131 472 -178 q 442 -76 472 -96 q 361 -56 413 -56 q 306 -46 325 -56 q 286 -12 286 -36 q 288 0 286 -4 q 310 41 293 28 q 361 54 326 54 l 397 54 q 554 8 496 54 q 613 -119 613 -37 q 541 -288 613 -224 q 347 -353 469 -353 z "},"Ŝ":{"ha":963,"x_min":47,"x_max":963,"o":"m 454 -11 q 158 59 269 -11 q 47 274 47 129 q 74 390 47 350 q 151 431 100 431 q 213 411 189 431 q 236 361 236 392 q 232 313 236 333 q 230 293 232 307 q 228 264 228 279 q 291 171 228 201 q 468 140 354 140 q 653 183 586 140 q 719 301 719 225 q 689 383 719 349 q 613 440 658 417 q 483 496 567 463 q 309 575 376 538 q 194 677 242 613 q 146 838 146 742 q 199 1015 146 938 q 353 1136 253 1093 q 590 1179 454 1179 q 776 1149 692 1179 q 912 1058 861 1119 q 963 908 963 997 q 936 776 963 821 q 858 732 910 732 q 798 754 822 732 q 774 807 774 776 q 778 856 774 833 q 782 908 782 897 q 725 997 782 967 q 583 1028 668 1028 q 401 984 464 1028 q 338 861 338 940 q 370 771 338 808 q 451 708 403 733 q 588 649 500 683 q 757 571 693 606 q 866 476 821 536 q 911 329 911 417 q 787 77 911 165 q 454 -11 663 -11 m 635 1518 l 524 1321 q 483 1279 508 1293 q 432 1265 458 1265 q 382 1281 403 1265 q 361 1324 361 1297 q 379 1375 361 1347 l 507 1565 q 653 1643 558 1643 q 722 1621 696 1643 q 768 1547 747 1599 l 833 1379 q 842 1340 842 1358 q 818 1287 842 1307 q 763 1267 794 1267 q 719 1280 739 1267 q 692 1317 699 1293 l 635 1518 z "},"Ș":{"ha":963,"x_min":47,"x_max":963,"o":"m 454 -11 q 158 59 269 -11 q 47 274 47 129 q 74 390 47 350 q 151 431 100 431 q 213 411 189 431 q 236 361 236 392 q 232 313 236 333 q 230 293 232 307 q 228 264 228 279 q 291 171 228 201 q 468 140 354 140 q 653 183 586 140 q 719 301 719 225 q 689 383 719 349 q 613 440 658 417 q 483 496 567 463 q 309 575 376 538 q 194 677 242 613 q 146 838 146 742 q 199 1015 146 938 q 353 1136 253 1093 q 590 1179 454 1179 q 776 1149 692 1179 q 912 1058 861 1119 q 963 908 963 997 q 936 776 963 821 q 858 732 910 732 q 798 754 822 732 q 774 807 774 776 q 778 856 774 833 q 782 908 782 897 q 725 997 782 967 q 583 1028 668 1028 q 401 984 464 1028 q 338 861 338 940 q 370 771 338 808 q 451 708 403 733 q 588 649 500 683 q 757 571 693 606 q 866 476 821 536 q 911 329 911 417 q 787 77 911 165 q 454 -11 663 -11 m 410 -383 q 367 -368 385 -383 q 350 -326 349 -353 l 354 -185 q 380 -121 356 -142 q 438 -100 404 -100 q 498 -120 472 -100 q 524 -178 524 -140 q 515 -219 524 -197 l 475 -337 q 449 -372 468 -360 q 410 -383 431 -383 z "},"ẞ":{"ha":1171,"x_min":114,"x_max":1128,"o":"m 829 624 q 1028 535 954 610 q 1101 350 1101 461 q 1042 159 1101 247 q 878 13 982 71 q 646 -61 774 -44 q 611 -64 621 -64 q 540 -45 564 -64 q 515 -1 515 -26 q 530 37 515 19 q 569 60 544 54 q 749 122 675 79 q 858 222 822 165 q 894 339 894 278 q 823 483 894 440 q 619 531 751 526 q 586 549 597 532 q 575 593 575 567 q 589 649 575 624 q 628 681 603 675 q 845 769 772 714 q 918 906 918 825 q 797 1013 918 1013 q 593 904 690 1013 q 423 594 496 796 q 315 119 350 392 q 282 20 306 47 q 210 -7 258 -7 q 138 15 161 -7 q 118 101 114 36 q 178 653 135 360 q 263 1103 221 946 q 381 1183 283 1183 q 439 1168 421 1183 q 457 1122 457 1153 q 453 1086 457 1107 l 428 978 q 369 724 396 854 q 574 1067 450 957 q 860 1178 699 1178 q 997 1149 936 1178 q 1093 1069 1058 1121 q 1128 953 1128 1018 q 1044 752 1128 838 q 829 624 961 667 z "},"Ə":{"ha":1100,"x_min":82,"x_max":1074,"o":"m 621 1178 q 853 1122 751 1178 q 1015 956 956 1067 q 1074 688 1074 846 q 1000 325 1074 483 q 799 80 926 167 q 514 -7 671 -7 q 291 47 389 -7 q 138 206 193 101 q 82 456 82 311 q 113 574 82 533 q 200 614 144 614 l 868 614 q 869 678 869 635 q 792 926 869 843 q 593 1008 715 1008 q 430 974 513 1008 q 271 868 347 939 q 231 847 247 847 q 199 869 211 847 q 188 922 188 890 q 198 982 188 953 q 228 1031 208 1011 q 403 1141 301 1104 q 621 1178 504 1178 m 531 154 q 726 237 644 154 q 844 461 808 319 l 286 461 q 355 226 288 297 q 531 154 422 154 z "},"T":{"ha":968,"x_min":49,"x_max":1254,"o":"m 1168 1153 q 1233 1124 1211 1144 q 1254 1075 1254 1103 q 1228 1008 1254 1029 q 1147 992 1203 988 q 952 1005 1022 1001 q 768 1010 882 1008 q 674 496 717 754 q 642 277 658 401 q 619 76 625 153 q 586 15 617 36 q 513 -7 556 -7 q 442 15 467 -7 q 417 74 417 38 q 427 184 417 107 q 451 346 438 261 q 475 493 467 431 q 510 703 490 599 q 549 900 529 807 q 558 948 553 921 q 571 1008 564 975 q 357 986 435 1004 q 247 935 279 968 q 214 851 214 903 q 242 761 214 804 q 247 740 247 751 q 216 691 247 714 q 151 668 185 668 q 113 682 128 668 q 67 749 85 706 q 49 849 49 793 q 126 1038 49 967 q 360 1143 203 1110 q 765 1176 518 1176 q 1009 1171 918 1176 q 1168 1153 1100 1165 z "},"Ŧ":{"ha":968,"x_min":49,"x_max":1254,"o":"m 1168 1153 q 1233 1124 1211 1144 q 1254 1075 1254 1103 q 1228 1008 1254 1029 q 1147 992 1203 988 q 952 1005 1022 1001 q 768 1010 882 1008 q 699 642 731 824 l 838 643 q 902 626 882 643 q 922 582 922 610 q 897 520 922 542 q 804 499 872 499 l 674 499 l 674 496 q 642 277 658 401 q 619 76 625 153 q 586 15 617 36 q 513 -7 556 -7 q 442 15 467 -7 q 417 74 417 38 q 427 184 417 107 q 451 346 438 261 q 475 493 467 431 l 475 497 q 407 494 451 497 q 325 492 349 492 q 253 547 253 492 q 279 613 253 590 q 369 635 306 635 l 499 635 q 553 915 529 803 q 571 1008 564 976 q 357 986 435 1004 q 247 935 279 968 q 214 851 214 903 q 242 761 214 804 q 247 740 247 751 q 216 691 247 714 q 151 668 185 668 q 113 682 128 668 q 67 749 85 706 q 49 849 49 793 q 126 1038 49 967 q 360 1143 203 1110 q 765 1176 518 1176 q 1009 1171 918 1176 q 1168 1153 1100 1165 z "},"Ť":{"ha":968,"x_min":49,"x_max":1254,"o":"m 1168 1153 q 1233 1124 1211 1144 q 1254 1075 1254 1103 q 1228 1008 1254 1029 q 1147 992 1203 988 q 952 1005 1022 1001 q 768 1010 882 1008 q 674 496 717 754 q 642 277 658 401 q 619 76 625 153 q 586 15 617 36 q 513 -7 556 -7 q 442 15 467 -7 q 417 74 417 38 q 427 184 417 107 q 451 346 438 261 q 475 493 467 431 q 510 703 490 599 q 549 900 529 807 q 558 948 553 921 q 571 1008 564 975 q 357 986 435 1004 q 247 935 279 968 q 214 851 214 903 q 242 761 214 804 q 247 740 247 751 q 216 691 247 714 q 151 668 185 668 q 113 682 128 668 q 67 749 85 706 q 49 849 49 793 q 126 1038 49 967 q 360 1143 203 1110 q 765 1176 518 1176 q 1009 1171 918 1176 q 1168 1153 1100 1165 m 711 1267 q 647 1289 672 1267 q 596 1363 622 1311 l 526 1500 q 513 1551 513 1528 q 532 1597 513 1581 q 581 1613 551 1613 q 628 1601 610 1613 q 656 1563 646 1590 l 722 1388 l 831 1558 q 869 1601 850 1589 q 921 1613 889 1613 q 965 1599 947 1613 q 982 1563 982 1586 q 958 1504 982 1536 l 842 1344 q 782 1285 813 1304 q 711 1267 751 1267 z "},"Ţ":{"ha":968,"x_min":49,"x_max":1254,"o":"m 1168 1153 q 1233 1124 1211 1144 q 1254 1075 1254 1103 q 1228 1008 1254 1029 q 1147 992 1203 988 q 952 1005 1022 1001 q 768 1010 882 1008 q 674 496 717 754 q 642 277 658 401 q 619 76 625 153 q 586 15 617 36 q 513 -7 556 -7 q 442 15 467 -7 q 417 74 417 38 q 427 184 417 107 q 451 346 438 261 q 475 493 467 431 q 510 703 490 599 q 549 900 529 807 q 558 948 553 921 q 571 1008 564 975 q 357 986 435 1004 q 247 935 279 968 q 214 851 214 903 q 242 761 214 804 q 247 740 247 751 q 216 691 247 714 q 151 668 185 668 q 113 682 128 668 q 67 749 85 706 q 49 849 49 793 q 126 1038 49 967 q 360 1143 203 1110 q 765 1176 518 1176 q 1009 1171 918 1176 q 1168 1153 1100 1165 m 404 -353 q 318 -346 351 -353 q 277 -325 290 -340 q 264 -281 264 -310 q 278 -232 264 -247 q 319 -217 292 -217 q 338 -218 331 -217 q 411 -224 375 -224 q 498 -201 467 -224 q 529 -131 529 -178 q 499 -76 529 -96 q 418 -56 469 -56 q 363 -46 382 -56 q 343 -12 343 -36 q 344 0 343 -4 q 367 41 350 28 q 418 54 383 54 l 454 54 q 611 8 553 54 q 669 -119 669 -37 q 598 -288 669 -224 q 404 -353 526 -353 z "},"Ț":{"ha":968,"x_min":49,"x_max":1254,"o":"m 1168 1153 q 1233 1124 1211 1144 q 1254 1075 1254 1103 q 1228 1008 1254 1029 q 1147 992 1203 988 q 952 1005 1022 1001 q 768 1010 882 1008 q 674 496 717 754 q 642 277 658 401 q 619 76 625 153 q 586 15 617 36 q 513 -7 556 -7 q 442 15 467 -7 q 417 74 417 38 q 427 184 417 107 q 451 346 438 261 q 475 493 467 431 q 510 703 490 599 q 549 900 529 807 q 558 948 553 921 q 571 1008 564 975 q 357 986 435 1004 q 247 935 279 968 q 214 851 214 903 q 242 761 214 804 q 247 740 247 751 q 216 691 247 714 q 151 668 185 668 q 113 682 128 668 q 67 749 85 706 q 49 849 49 793 q 126 1038 49 967 q 360 1143 203 1110 q 765 1176 518 1176 q 1009 1171 918 1176 q 1168 1153 1100 1165 m 467 -383 q 424 -368 442 -383 q 407 -326 406 -353 l 411 -185 q 437 -121 413 -142 q 494 -100 461 -100 q 555 -120 529 -100 q 581 -178 581 -140 q 572 -219 581 -197 l 532 -337 q 506 -372 525 -360 q 467 -383 488 -383 z "},"U":{"ha":1236,"x_min":-1,"x_max":1415,"o":"m 461 -7 q 285 58 344 -7 q 225 231 225 122 q 243 379 225 292 l 329 776 q 342 838 332 788 q 353 946 353 888 q 340 996 353 979 q 304 1013 326 1013 q 207 973 263 1013 q 90 851 151 933 q 47 825 71 825 q 13 844 28 825 q -1 886 -1 863 q 38 983 -1 929 q 369 1178 179 1178 q 502 1126 454 1178 q 550 975 550 1075 q 540 844 550 904 q 507 682 531 785 l 450 428 q 440 383 447 415 q 429 323 433 351 q 425 267 425 294 q 450 196 425 222 q 521 169 475 169 q 690 258 604 169 q 848 545 775 347 q 961 1051 921 743 q 990 1150 971 1122 q 1063 1178 1008 1178 q 1135 1149 1111 1178 q 1158 1054 1158 1119 q 1149 956 1158 1017 q 1122 785 1140 894 q 1063 394 1085 572 q 1051 275 1051 314 q 1077 188 1051 218 q 1146 158 1103 158 q 1235 189 1192 158 q 1339 290 1279 219 q 1376 310 1356 310 q 1405 293 1394 310 q 1415 247 1415 276 q 1389 161 1415 193 q 1246 33 1317 74 q 1097 -7 1175 -7 q 921 52 982 -7 q 860 206 860 111 q 882 411 860 258 q 706 100 813 207 q 461 -7 600 -7 z "},"Ú":{"ha":1236,"x_min":-1,"x_max":1415,"o":"m 461 -7 q 285 58 344 -7 q 225 231 225 122 q 243 379 225 292 l 329 776 q 342 838 332 788 q 353 946 353 888 q 340 996 353 979 q 304 1013 326 1013 q 207 973 263 1013 q 90 851 151 933 q 47 825 71 825 q 13 844 28 825 q -1 886 -1 863 q 38 983 -1 929 q 369 1178 179 1178 q 502 1126 454 1178 q 550 975 550 1075 q 540 844 550 904 q 507 682 531 785 l 450 428 q 440 383 447 415 q 429 323 433 351 q 425 267 425 294 q 450 196 425 222 q 521 169 475 169 q 690 258 604 169 q 848 545 775 347 q 961 1051 921 743 q 990 1150 971 1122 q 1063 1178 1008 1178 q 1135 1149 1111 1178 q 1158 1054 1158 1119 q 1149 956 1158 1017 q 1122 785 1140 894 q 1063 394 1085 572 q 1051 275 1051 314 q 1077 188 1051 218 q 1146 158 1103 158 q 1235 189 1192 158 q 1339 290 1279 219 q 1376 310 1356 310 q 1405 293 1394 310 q 1415 247 1415 276 q 1389 161 1415 193 q 1246 33 1317 74 q 1097 -7 1175 -7 q 921 52 982 -7 q 860 206 860 111 q 882 411 860 258 q 706 100 813 207 q 461 -7 600 -7 m 751 1267 q 714 1281 729 1267 q 699 1317 699 1296 q 725 1367 699 1344 l 964 1571 q 1025 1594 992 1594 q 1088 1569 1061 1594 q 1114 1507 1114 1543 q 1040 1408 1114 1447 l 781 1274 q 751 1267 768 1267 z "},"Ŭ":{"ha":1236,"x_min":-1,"x_max":1415,"o":"m 461 -7 q 285 58 344 -7 q 225 231 225 122 q 243 379 225 292 l 329 776 q 342 838 332 788 q 353 946 353 888 q 340 996 353 979 q 304 1013 326 1013 q 207 973 263 1013 q 90 851 151 933 q 47 825 71 825 q 13 844 28 825 q -1 886 -1 863 q 38 983 -1 929 q 369 1178 179 1178 q 502 1126 454 1178 q 550 975 550 1075 q 540 844 550 904 q 507 682 531 785 l 450 428 q 440 383 447 415 q 429 323 433 351 q 425 267 425 294 q 450 196 425 222 q 521 169 475 169 q 690 258 604 169 q 848 545 775 347 q 961 1051 921 743 q 990 1150 971 1122 q 1063 1178 1008 1178 q 1135 1149 1111 1178 q 1158 1054 1158 1119 q 1149 956 1158 1017 q 1122 785 1140 894 q 1063 394 1085 572 q 1051 275 1051 314 q 1077 188 1051 218 q 1146 158 1103 158 q 1235 189 1192 158 q 1339 290 1279 219 q 1376 310 1356 310 q 1405 293 1394 310 q 1415 247 1415 276 q 1389 161 1415 193 q 1246 33 1317 74 q 1097 -7 1175 -7 q 921 52 982 -7 q 860 206 860 111 q 882 411 860 258 q 706 100 813 207 q 461 -7 600 -7 m 760 1267 q 610 1295 674 1267 q 515 1369 547 1324 q 482 1461 482 1414 q 506 1507 482 1490 q 564 1524 529 1524 q 608 1513 592 1524 q 635 1478 624 1503 q 686 1417 656 1433 q 771 1400 717 1400 q 858 1420 825 1400 q 919 1482 892 1440 q 999 1524 947 1524 q 1042 1510 1025 1524 q 1058 1471 1058 1496 q 1022 1378 1058 1426 q 918 1299 986 1331 q 760 1267 850 1267 z "},"Û":{"ha":1236,"x_min":-1,"x_max":1415,"o":"m 461 -7 q 285 58 344 -7 q 225 231 225 122 q 243 379 225 292 l 329 776 q 342 838 332 788 q 353 946 353 888 q 340 996 353 979 q 304 1013 326 1013 q 207 973 263 1013 q 90 851 151 933 q 47 825 71 825 q 13 844 28 825 q -1 886 -1 863 q 38 983 -1 929 q 369 1178 179 1178 q 502 1126 454 1178 q 550 975 550 1075 q 540 844 550 904 q 507 682 531 785 l 450 428 q 440 383 447 415 q 429 323 433 351 q 425 267 425 294 q 450 196 425 222 q 521 169 475 169 q 690 258 604 169 q 848 545 775 347 q 961 1051 921 743 q 990 1150 971 1122 q 1063 1178 1008 1178 q 1135 1149 1111 1178 q 1158 1054 1158 1119 q 1149 956 1158 1017 q 1122 785 1140 894 q 1063 394 1085 572 q 1051 275 1051 314 q 1077 188 1051 218 q 1146 158 1103 158 q 1235 189 1192 158 q 1339 290 1279 219 q 1376 310 1356 310 q 1405 293 1394 310 q 1415 247 1415 276 q 1389 161 1415 193 q 1246 33 1317 74 q 1097 -7 1175 -7 q 921 52 982 -7 q 860 206 860 111 q 882 411 860 258 q 706 100 813 207 q 461 -7 600 -7 m 785 1518 l 674 1321 q 633 1279 658 1293 q 582 1265 608 1265 q 532 1281 553 1265 q 511 1324 511 1297 q 529 1375 511 1347 l 657 1565 q 803 1643 708 1643 q 872 1621 846 1643 q 918 1547 897 1599 l 983 1379 q 992 1340 992 1358 q 968 1287 992 1307 q 913 1267 944 1267 q 869 1280 889 1267 q 842 1317 849 1293 l 785 1518 z "},"Ȕ":{"ha":1236,"x_min":-1,"x_max":1415,"o":"m 461 -7 q 285 58 344 -7 q 225 231 225 122 q 243 379 225 292 l 329 776 q 342 838 332 788 q 353 946 353 888 q 340 996 353 979 q 304 1013 326 1013 q 207 973 263 1013 q 90 851 151 933 q 47 825 71 825 q 13 844 28 825 q -1 886 -1 863 q 38 983 -1 929 q 369 1178 179 1178 q 502 1126 454 1178 q 550 975 550 1075 q 540 844 550 904 q 507 682 531 785 l 450 428 q 440 383 447 415 q 429 323 433 351 q 425 267 425 294 q 450 196 425 222 q 521 169 475 169 q 690 258 604 169 q 848 545 775 347 q 961 1051 921 743 q 990 1150 971 1122 q 1063 1178 1008 1178 q 1135 1149 1111 1178 q 1158 1054 1158 1119 q 1149 956 1158 1017 q 1122 785 1140 894 q 1063 394 1085 572 q 1051 275 1051 314 q 1077 188 1051 218 q 1146 158 1103 158 q 1235 189 1192 158 q 1339 290 1279 219 q 1376 310 1356 310 q 1405 293 1394 310 q 1415 247 1415 276 q 1389 161 1415 193 q 1246 33 1317 74 q 1097 -7 1175 -7 q 921 52 982 -7 q 860 206 860 111 q 882 411 860 258 q 706 100 813 207 q 461 -7 600 -7 m 628 1267 q 575 1297 594 1267 l 486 1442 q 464 1510 464 1478 q 490 1571 464 1547 q 550 1594 517 1594 q 595 1580 575 1594 q 624 1536 615 1565 l 681 1339 q 683 1319 683 1325 q 667 1281 683 1296 q 628 1267 650 1267 m 879 1267 q 826 1297 846 1267 l 738 1442 q 715 1510 715 1478 q 742 1571 715 1547 q 801 1594 768 1594 q 847 1580 826 1594 q 875 1536 867 1565 l 932 1339 q 935 1319 935 1325 q 918 1281 935 1296 q 879 1267 901 1267 z "},"Ü":{"ha":1236,"x_min":-1,"x_max":1415,"o":"m 461 -7 q 285 58 344 -7 q 225 231 225 122 q 243 379 225 292 l 329 776 q 342 838 332 788 q 353 946 353 888 q 340 996 353 979 q 304 1013 326 1013 q 207 973 263 1013 q 90 851 151 933 q 47 825 71 825 q 13 844 28 825 q -1 886 -1 863 q 38 983 -1 929 q 369 1178 179 1178 q 502 1126 454 1178 q 550 975 550 1075 q 540 844 550 904 q 507 682 531 785 l 450 428 q 440 383 447 415 q 429 323 433 351 q 425 267 425 294 q 450 196 425 222 q 521 169 475 169 q 690 258 604 169 q 848 545 775 347 q 961 1051 921 743 q 990 1150 971 1122 q 1063 1178 1008 1178 q 1135 1149 1111 1178 q 1158 1054 1158 1119 q 1149 956 1158 1017 q 1122 785 1140 894 q 1063 394 1085 572 q 1051 275 1051 314 q 1077 188 1051 218 q 1146 158 1103 158 q 1235 189 1192 158 q 1339 290 1279 219 q 1376 310 1356 310 q 1405 293 1394 310 q 1415 247 1415 276 q 1389 161 1415 193 q 1246 33 1317 74 q 1097 -7 1175 -7 q 921 52 982 -7 q 860 206 860 111 q 882 411 860 258 q 706 100 813 207 q 461 -7 600 -7 m 614 1267 q 543 1292 569 1267 q 517 1369 517 1318 q 547 1458 517 1426 q 629 1490 578 1490 q 700 1465 674 1490 q 726 1388 726 1439 q 696 1299 726 1331 q 614 1267 665 1267 m 903 1267 q 832 1292 858 1267 q 806 1369 806 1318 q 836 1458 806 1426 q 918 1490 867 1490 q 989 1465 963 1490 q 1015 1388 1015 1439 q 985 1299 1015 1331 q 903 1267 954 1267 z "},"Ụ":{"ha":1236,"x_min":-1,"x_max":1415,"o":"m 461 -7 q 285 58 344 -7 q 225 231 225 122 q 243 379 225 292 l 329 776 q 342 838 332 788 q 353 946 353 888 q 340 996 353 979 q 304 1013 326 1013 q 207 973 263 1013 q 90 851 151 933 q 47 825 71 825 q 13 844 28 825 q -1 886 -1 863 q 38 983 -1 929 q 369 1178 179 1178 q 502 1126 454 1178 q 550 975 550 1075 q 540 844 550 904 q 507 682 531 785 l 450 428 q 440 383 447 415 q 429 323 433 351 q 425 267 425 294 q 450 196 425 222 q 521 169 475 169 q 690 258 604 169 q 848 545 775 347 q 961 1051 921 743 q 990 1150 971 1122 q 1063 1178 1008 1178 q 1135 1149 1111 1178 q 1158 1054 1158 1119 q 1149 956 1158 1017 q 1122 785 1140 894 q 1063 394 1085 572 q 1051 275 1051 314 q 1077 188 1051 218 q 1146 158 1103 158 q 1235 189 1192 158 q 1339 290 1279 219 q 1376 310 1356 310 q 1405 293 1394 310 q 1415 247 1415 276 q 1389 161 1415 193 q 1246 33 1317 74 q 1097 -7 1175 -7 q 921 52 982 -7 q 860 206 860 111 q 882 411 860 258 q 706 100 813 207 q 461 -7 600 -7 m 572 -322 q 483 -294 514 -322 q 453 -217 453 -265 q 492 -133 453 -167 q 589 -100 532 -100 q 674 -126 642 -100 q 707 -199 707 -151 q 669 -289 707 -256 q 572 -322 632 -322 z "},"Ù":{"ha":1236,"x_min":-1,"x_max":1415,"o":"m 461 -7 q 285 58 344 -7 q 225 231 225 122 q 243 379 225 292 l 329 776 q 342 838 332 788 q 353 946 353 888 q 340 996 353 979 q 304 1013 326 1013 q 207 973 263 1013 q 90 851 151 933 q 47 825 71 825 q 13 844 28 825 q -1 886 -1 863 q 38 983 -1 929 q 369 1178 179 1178 q 502 1126 454 1178 q 550 975 550 1075 q 540 844 550 904 q 507 682 531 785 l 450 428 q 440 383 447 415 q 429 323 433 351 q 425 267 425 294 q 450 196 425 222 q 521 169 475 169 q 690 258 604 169 q 848 545 775 347 q 961 1051 921 743 q 990 1150 971 1122 q 1063 1178 1008 1178 q 1135 1149 1111 1178 q 1158 1054 1158 1119 q 1149 956 1158 1017 q 1122 785 1140 894 q 1063 394 1085 572 q 1051 275 1051 314 q 1077 188 1051 218 q 1146 158 1103 158 q 1235 189 1192 158 q 1339 290 1279 219 q 1376 310 1356 310 q 1405 293 1394 310 q 1415 247 1415 276 q 1389 161 1415 193 q 1246 33 1317 74 q 1097 -7 1175 -7 q 921 52 982 -7 q 860 206 860 111 q 882 411 860 258 q 706 100 813 207 q 461 -7 600 -7 m 733 1267 q 704 1274 717 1267 l 444 1408 q 371 1507 371 1447 q 397 1569 371 1543 q 460 1594 424 1594 q 521 1571 493 1594 l 760 1367 q 786 1317 786 1344 q 771 1281 786 1296 q 733 1267 756 1267 z "},"Ủ":{"ha":1236,"x_min":-1,"x_max":1415,"o":"m 461 -7 q 285 58 344 -7 q 225 231 225 122 q 243 379 225 292 l 329 776 q 342 838 332 788 q 353 946 353 888 q 340 996 353 979 q 304 1013 326 1013 q 207 973 263 1013 q 90 851 151 933 q 47 825 71 825 q 13 844 28 825 q -1 886 -1 863 q 38 983 -1 929 q 369 1178 179 1178 q 502 1126 454 1178 q 550 975 550 1075 q 540 844 550 904 q 507 682 531 785 l 450 428 q 440 383 447 415 q 429 323 433 351 q 425 267 425 294 q 450 196 425 222 q 521 169 475 169 q 690 258 604 169 q 848 545 775 347 q 961 1051 921 743 q 990 1150 971 1122 q 1063 1178 1008 1178 q 1135 1149 1111 1178 q 1158 1054 1158 1119 q 1149 956 1158 1017 q 1122 785 1140 894 q 1063 394 1085 572 q 1051 275 1051 314 q 1077 188 1051 218 q 1146 158 1103 158 q 1235 189 1192 158 q 1339 290 1279 219 q 1376 310 1356 310 q 1405 293 1394 310 q 1415 247 1415 276 q 1389 161 1415 193 q 1246 33 1317 74 q 1097 -7 1175 -7 q 921 52 982 -7 q 860 206 860 111 q 882 411 860 258 q 706 100 813 207 q 461 -7 600 -7 m 735 1267 q 692 1279 704 1267 q 679 1317 679 1292 q 697 1368 679 1354 q 746 1382 715 1382 q 807 1399 786 1382 q 828 1440 828 1415 q 812 1478 828 1464 q 763 1492 796 1492 q 707 1488 738 1492 q 669 1485 676 1485 q 639 1496 647 1485 q 631 1536 631 1507 q 647 1579 631 1565 q 694 1600 663 1593 q 767 1607 728 1607 q 961 1456 961 1607 q 906 1317 961 1368 q 756 1267 851 1267 l 735 1267 z "},"Ư":{"ha":1236,"x_min":-1,"x_max":1415,"o":"m 461 -7 q 285 58 344 -7 q 225 231 225 122 q 243 379 225 292 l 329 776 q 342 838 332 788 q 353 946 353 888 q 340 996 353 979 q 304 1013 326 1013 q 207 973 263 1013 q 90 851 151 933 q 47 825 71 825 q 13 844 28 825 q -1 886 -1 863 q 38 983 -1 929 q 369 1178 179 1178 q 502 1126 454 1178 q 550 975 550 1075 q 540 844 550 904 q 507 682 531 785 l 450 428 q 440 383 447 415 q 429 323 433 351 q 425 267 425 294 q 450 196 425 222 q 521 169 475 169 q 690 258 604 169 q 848 545 775 347 q 961 1051 921 743 q 990 1150 971 1122 q 1063 1178 1008 1178 q 1172 1212 1136 1178 q 1221 1321 1207 1246 q 1296 1385 1232 1385 q 1356 1363 1333 1385 q 1378 1297 1378 1340 q 1376 1276 1378 1283 q 1308 1108 1365 1176 q 1157 1018 1251 1040 q 1144 919 1154 982 q 1122 788 1135 857 q 1098 640 1118 760 q 1063 394 1078 519 q 1051 275 1051 314 q 1077 188 1051 218 q 1146 158 1103 158 q 1235 189 1192 158 q 1339 290 1279 219 q 1376 310 1356 310 q 1405 293 1394 310 q 1415 247 1415 276 q 1389 161 1415 193 q 1246 33 1317 74 q 1097 -7 1175 -7 q 921 52 982 -7 q 860 206 860 111 q 882 411 860 258 q 706 100 813 207 q 461 -7 600 -7 z "},"Ứ":{"ha":1236,"x_min":-1,"x_max":1415,"o":"m 461 -7 q 285 58 344 -7 q 225 231 225 122 q 243 379 225 292 l 329 776 q 342 838 332 788 q 353 946 353 888 q 340 996 353 979 q 304 1013 326 1013 q 207 973 263 1013 q 90 851 151 933 q 47 825 71 825 q 13 844 28 825 q -1 886 -1 863 q 38 983 -1 929 q 369 1178 179 1178 q 502 1126 454 1178 q 550 975 550 1075 q 540 844 550 904 q 507 682 531 785 l 450 428 q 440 383 447 415 q 429 323 433 351 q 425 267 425 294 q 450 196 425 222 q 521 169 475 169 q 690 258 604 169 q 848 545 775 347 q 961 1051 921 743 q 990 1150 971 1122 q 1063 1178 1008 1178 q 1172 1212 1136 1178 q 1221 1321 1207 1246 q 1296 1385 1232 1385 q 1356 1363 1333 1385 q 1378 1297 1378 1340 q 1376 1276 1378 1283 q 1308 1108 1365 1176 q 1157 1018 1251 1040 q 1144 919 1154 982 q 1122 788 1135 857 q 1098 640 1118 760 q 1063 394 1078 519 q 1051 275 1051 314 q 1077 188 1051 218 q 1146 158 1103 158 q 1235 189 1192 158 q 1339 290 1279 219 q 1376 310 1356 310 q 1405 293 1394 310 q 1415 247 1415 276 q 1389 161 1415 193 q 1246 33 1317 74 q 1097 -7 1175 -7 q 921 52 982 -7 q 860 206 860 111 q 882 411 860 258 q 706 100 813 207 q 461 -7 600 -7 m 751 1267 q 714 1281 729 1267 q 699 1317 699 1296 q 725 1367 699 1344 l 964 1571 q 1025 1594 992 1594 q 1088 1569 1061 1594 q 1114 1507 1114 1543 q 1040 1408 1114 1447 l 781 1274 q 751 1267 768 1267 z "},"Ự":{"ha":1236,"x_min":-1,"x_max":1415,"o":"m 461 -7 q 285 58 344 -7 q 225 231 225 122 q 243 379 225 292 l 329 776 q 342 838 332 788 q 353 946 353 888 q 340 996 353 979 q 304 1013 326 1013 q 207 973 263 1013 q 90 851 151 933 q 47 825 71 825 q 13 844 28 825 q -1 886 -1 863 q 38 983 -1 929 q 369 1178 179 1178 q 502 1126 454 1178 q 550 975 550 1075 q 540 844 550 904 q 507 682 531 785 l 450 428 q 440 383 447 415 q 429 323 433 351 q 425 267 425 294 q 450 196 425 222 q 521 169 475 169 q 690 258 604 169 q 848 545 775 347 q 961 1051 921 743 q 990 1150 971 1122 q 1063 1178 1008 1178 q 1172 1212 1136 1178 q 1221 1321 1207 1246 q 1296 1385 1232 1385 q 1356 1363 1333 1385 q 1378 1297 1378 1340 q 1376 1276 1378 1283 q 1308 1108 1365 1176 q 1157 1018 1251 1040 q 1144 919 1154 982 q 1122 788 1135 857 q 1098 640 1118 760 q 1063 394 1078 519 q 1051 275 1051 314 q 1077 188 1051 218 q 1146 158 1103 158 q 1235 189 1192 158 q 1339 290 1279 219 q 1376 310 1356 310 q 1405 293 1394 310 q 1415 247 1415 276 q 1389 161 1415 193 q 1246 33 1317 74 q 1097 -7 1175 -7 q 921 52 982 -7 q 860 206 860 111 q 882 411 860 258 q 706 100 813 207 q 461 -7 600 -7 m 572 -322 q 483 -294 514 -322 q 453 -217 453 -265 q 492 -133 453 -167 q 589 -100 532 -100 q 674 -126 642 -100 q 707 -199 707 -151 q 669 -289 707 -256 q 572 -322 632 -322 z "},"Ừ":{"ha":1236,"x_min":-1,"x_max":1415,"o":"m 461 -7 q 285 58 344 -7 q 225 231 225 122 q 243 379 225 292 l 329 776 q 342 838 332 788 q 353 946 353 888 q 340 996 353 979 q 304 1013 326 1013 q 207 973 263 1013 q 90 851 151 933 q 47 825 71 825 q 13 844 28 825 q -1 886 -1 863 q 38 983 -1 929 q 369 1178 179 1178 q 502 1126 454 1178 q 550 975 550 1075 q 540 844 550 904 q 507 682 531 785 l 450 428 q 440 383 447 415 q 429 323 433 351 q 425 267 425 294 q 450 196 425 222 q 521 169 475 169 q 690 258 604 169 q 848 545 775 347 q 961 1051 921 743 q 990 1150 971 1122 q 1063 1178 1008 1178 q 1172 1212 1136 1178 q 1221 1321 1207 1246 q 1296 1385 1232 1385 q 1356 1363 1333 1385 q 1378 1297 1378 1340 q 1376 1276 1378 1283 q 1308 1108 1365 1176 q 1157 1018 1251 1040 q 1144 919 1154 982 q 1122 788 1135 857 q 1098 640 1118 760 q 1063 394 1078 519 q 1051 275 1051 314 q 1077 188 1051 218 q 1146 158 1103 158 q 1235 189 1192 158 q 1339 290 1279 219 q 1376 310 1356 310 q 1405 293 1394 310 q 1415 247 1415 276 q 1389 161 1415 193 q 1246 33 1317 74 q 1097 -7 1175 -7 q 921 52 982 -7 q 860 206 860 111 q 882 411 860 258 q 706 100 813 207 q 461 -7 600 -7 m 733 1267 q 704 1274 717 1267 l 444 1408 q 371 1507 371 1447 q 397 1569 371 1543 q 460 1594 424 1594 q 521 1571 493 1594 l 760 1367 q 786 1317 786 1344 q 771 1281 786 1296 q 733 1267 756 1267 z "},"Ử":{"ha":1236,"x_min":-1,"x_max":1415,"o":"m 461 -7 q 285 58 344 -7 q 225 231 225 122 q 243 379 225 292 l 329 776 q 342 838 332 788 q 353 946 353 888 q 340 996 353 979 q 304 1013 326 1013 q 207 973 263 1013 q 90 851 151 933 q 47 825 71 825 q 13 844 28 825 q -1 886 -1 863 q 38 983 -1 929 q 369 1178 179 1178 q 502 1126 454 1178 q 550 975 550 1075 q 540 844 550 904 q 507 682 531 785 l 450 428 q 440 383 447 415 q 429 323 433 351 q 425 267 425 294 q 450 196 425 222 q 521 169 475 169 q 690 258 604 169 q 848 545 775 347 q 961 1051 921 743 q 990 1150 971 1122 q 1063 1178 1008 1178 q 1172 1212 1136 1178 q 1221 1321 1207 1246 q 1296 1385 1232 1385 q 1356 1363 1333 1385 q 1378 1297 1378 1340 q 1376 1276 1378 1283 q 1308 1108 1365 1176 q 1157 1018 1251 1040 q 1144 919 1154 982 q 1122 788 1135 857 q 1098 640 1118 760 q 1063 394 1078 519 q 1051 275 1051 314 q 1077 188 1051 218 q 1146 158 1103 158 q 1235 189 1192 158 q 1339 290 1279 219 q 1376 310 1356 310 q 1405 293 1394 310 q 1415 247 1415 276 q 1389 161 1415 193 q 1246 33 1317 74 q 1097 -7 1175 -7 q 921 52 982 -7 q 860 206 860 111 q 882 411 860 258 q 706 100 813 207 q 461 -7 600 -7 m 735 1267 q 692 1279 704 1267 q 679 1317 679 1292 q 697 1368 679 1354 q 746 1382 715 1382 q 807 1399 786 1382 q 828 1440 828 1415 q 812 1478 828 1464 q 763 1492 796 1492 q 707 1488 738 1492 q 669 1485 676 1485 q 639 1496 647 1485 q 631 1536 631 1507 q 647 1579 631 1565 q 694 1600 663 1593 q 767 1607 728 1607 q 961 1456 961 1607 q 906 1317 961 1368 q 756 1267 851 1267 l 735 1267 z "},"Ữ":{"ha":1236,"x_min":-1,"x_max":1415,"o":"m 461 -7 q 285 58 344 -7 q 225 231 225 122 q 243 379 225 292 l 329 776 q 342 838 332 788 q 353 946 353 888 q 340 996 353 979 q 304 1013 326 1013 q 207 973 263 1013 q 90 851 151 933 q 47 825 71 825 q 13 844 28 825 q -1 886 -1 863 q 38 983 -1 929 q 369 1178 179 1178 q 502 1126 454 1178 q 550 975 550 1075 q 540 844 550 904 q 507 682 531 785 l 450 428 q 440 383 447 415 q 429 323 433 351 q 425 267 425 294 q 450 196 425 222 q 521 169 475 169 q 690 258 604 169 q 848 545 775 347 q 961 1051 921 743 q 990 1150 971 1122 q 1063 1178 1008 1178 q 1172 1212 1136 1178 q 1221 1321 1207 1246 q 1296 1385 1232 1385 q 1356 1363 1333 1385 q 1378 1297 1378 1340 q 1376 1276 1378 1283 q 1308 1108 1365 1176 q 1157 1018 1251 1040 q 1144 919 1154 982 q 1122 788 1135 857 q 1098 640 1118 760 q 1063 394 1078 519 q 1051 275 1051 314 q 1077 188 1051 218 q 1146 158 1103 158 q 1235 189 1192 158 q 1339 290 1279 219 q 1376 310 1356 310 q 1405 293 1394 310 q 1415 247 1415 276 q 1389 161 1415 193 q 1246 33 1317 74 q 1097 -7 1175 -7 q 921 52 982 -7 q 860 206 860 111 q 882 411 860 258 q 706 100 813 207 q 461 -7 600 -7 m 892 1267 q 850 1274 869 1267 q 800 1303 831 1282 l 651 1406 l 590 1318 q 562 1295 579 1303 q 526 1288 544 1288 q 481 1301 500 1288 q 463 1342 463 1315 q 514 1454 463 1379 q 649 1543 575 1543 q 691 1536 672 1543 q 740 1507 710 1529 l 889 1404 l 950 1492 q 978 1515 961 1507 q 1014 1522 996 1522 q 1059 1508 1040 1522 q 1078 1468 1078 1494 q 1067 1427 1078 1450 q 1026 1356 1056 1404 q 964 1288 999 1310 q 892 1267 929 1267 z "},"Ű":{"ha":1236,"x_min":-1,"x_max":1415,"o":"m 461 -7 q 285 58 344 -7 q 225 231 225 122 q 243 379 225 292 l 329 776 q 342 838 332 788 q 353 946 353 888 q 340 996 353 979 q 304 1013 326 1013 q 207 973 263 1013 q 90 851 151 933 q 47 825 71 825 q 13 844 28 825 q -1 886 -1 863 q 38 983 -1 929 q 369 1178 179 1178 q 502 1126 454 1178 q 550 975 550 1075 q 540 844 550 904 q 507 682 531 785 l 450 428 q 440 383 447 415 q 429 323 433 351 q 425 267 425 294 q 450 196 425 222 q 521 169 475 169 q 690 258 604 169 q 848 545 775 347 q 961 1051 921 743 q 990 1150 971 1122 q 1063 1178 1008 1178 q 1135 1149 1111 1178 q 1158 1054 1158 1119 q 1149 956 1158 1017 q 1122 785 1140 894 q 1063 394 1085 572 q 1051 275 1051 314 q 1077 188 1051 218 q 1146 158 1103 158 q 1235 189 1192 158 q 1339 290 1279 219 q 1376 310 1356 310 q 1405 293 1394 310 q 1415 247 1415 276 q 1389 161 1415 193 q 1246 33 1317 74 q 1097 -7 1175 -7 q 921 52 982 -7 q 860 206 860 111 q 882 411 860 258 q 706 100 813 207 q 461 -7 600 -7 m 631 1267 q 592 1281 608 1267 q 575 1319 575 1296 q 578 1339 575 1325 l 635 1536 q 663 1580 643 1565 q 708 1594 683 1594 q 768 1571 742 1594 q 794 1510 794 1547 q 772 1442 794 1478 l 683 1297 q 631 1267 664 1267 m 882 1267 q 843 1281 860 1267 q 826 1319 826 1296 q 829 1339 826 1325 l 886 1536 q 915 1580 894 1565 q 960 1594 935 1594 q 1019 1571 993 1594 q 1046 1510 1046 1547 q 1024 1442 1046 1478 l 935 1297 q 882 1267 915 1267 z "},"Ȗ":{"ha":1236,"x_min":-1,"x_max":1415,"o":"m 461 -7 q 285 58 344 -7 q 225 231 225 122 q 243 379 225 292 l 329 776 q 342 838 332 788 q 353 946 353 888 q 340 996 353 979 q 304 1013 326 1013 q 207 973 263 1013 q 90 851 151 933 q 47 825 71 825 q 13 844 28 825 q -1 886 -1 863 q 38 983 -1 929 q 369 1178 179 1178 q 502 1126 454 1178 q 550 975 550 1075 q 540 844 550 904 q 507 682 531 785 l 450 428 q 440 383 447 415 q 429 323 433 351 q 425 267 425 294 q 450 196 425 222 q 521 169 475 169 q 690 258 604 169 q 848 545 775 347 q 961 1051 921 743 q 990 1150 971 1122 q 1063 1178 1008 1178 q 1135 1149 1111 1178 q 1158 1054 1158 1119 q 1149 956 1158 1017 q 1122 785 1140 894 q 1063 394 1085 572 q 1051 275 1051 314 q 1077 188 1051 218 q 1146 158 1103 158 q 1235 189 1192 158 q 1339 290 1279 219 q 1376 310 1356 310 q 1405 293 1394 310 q 1415 247 1415 276 q 1389 161 1415 193 q 1246 33 1317 74 q 1097 -7 1175 -7 q 921 52 982 -7 q 860 206 860 111 q 882 411 860 258 q 706 100 813 207 q 461 -7 600 -7 m 544 1267 q 501 1281 518 1267 q 485 1319 485 1294 q 521 1412 485 1364 q 625 1492 557 1460 q 783 1524 693 1524 q 933 1495 869 1524 q 1028 1422 996 1467 q 1061 1329 1061 1376 q 1038 1283 1061 1300 q 979 1267 1014 1267 q 935 1277 951 1267 q 908 1313 919 1288 q 857 1374 888 1357 q 772 1390 826 1390 q 685 1370 718 1390 q 624 1308 651 1350 q 544 1267 596 1267 z "},"Ū":{"ha":1236,"x_min":-1,"x_max":1415,"o":"m 461 -7 q 285 58 344 -7 q 225 231 225 122 q 243 379 225 292 l 329 776 q 342 838 332 788 q 353 946 353 888 q 340 996 353 979 q 304 1013 326 1013 q 207 973 263 1013 q 90 851 151 933 q 47 825 71 825 q 13 844 28 825 q -1 886 -1 863 q 38 983 -1 929 q 369 1178 179 1178 q 502 1126 454 1178 q 550 975 550 1075 q 540 844 550 904 q 507 682 531 785 l 450 428 q 440 383 447 415 q 429 323 433 351 q 425 267 425 294 q 450 196 425 222 q 521 169 475 169 q 690 258 604 169 q 848 545 775 347 q 961 1051 921 743 q 990 1150 971 1122 q 1063 1178 1008 1178 q 1135 1149 1111 1178 q 1158 1054 1158 1119 q 1149 956 1158 1017 q 1122 785 1140 894 q 1063 394 1085 572 q 1051 275 1051 314 q 1077 188 1051 218 q 1146 158 1103 158 q 1235 189 1192 158 q 1339 290 1279 219 q 1376 310 1356 310 q 1405 293 1394 310 q 1415 247 1415 276 q 1389 161 1415 193 q 1246 33 1317 74 q 1097 -7 1175 -7 q 921 52 982 -7 q 860 206 860 111 q 882 411 860 258 q 706 100 813 207 q 461 -7 600 -7 m 593 1267 q 531 1328 531 1267 q 550 1383 531 1363 q 604 1403 569 1403 l 914 1403 q 960 1388 944 1403 q 976 1346 976 1374 q 957 1288 976 1308 q 903 1267 938 1267 l 593 1267 z "},"Ų":{"ha":1236,"x_min":-1,"x_max":1415,"o":"m 461 -7 q 285 58 344 -7 q 225 231 225 122 q 243 379 225 292 l 329 776 q 342 838 332 788 q 353 946 353 888 q 340 996 353 979 q 304 1013 326 1013 q 207 973 263 1013 q 90 851 151 933 q 47 825 71 825 q 13 844 28 825 q -1 886 -1 863 q 38 983 -1 929 q 369 1178 179 1178 q 502 1126 454 1178 q 550 975 550 1075 q 540 844 550 904 q 507 682 531 785 l 450 428 q 440 383 447 415 q 429 323 433 351 q 425 267 425 294 q 450 196 425 222 q 521 169 475 169 q 690 258 604 169 q 848 545 775 347 q 961 1051 921 743 q 990 1150 971 1122 q 1063 1178 1008 1178 q 1135 1149 1111 1178 q 1158 1054 1158 1119 q 1149 956 1158 1017 q 1122 785 1140 894 q 1063 394 1085 572 q 1051 275 1051 314 q 1077 188 1051 218 q 1146 158 1103 158 q 1235 189 1192 158 q 1339 290 1279 219 q 1376 310 1356 310 q 1405 293 1394 310 q 1415 247 1415 276 q 1389 161 1415 193 q 1246 33 1317 74 q 1097 -7 1175 -7 q 921 52 982 -7 q 860 206 860 111 q 882 411 860 258 q 706 100 813 207 q 461 -7 600 -7 m 1178 -353 q 1022 -302 1081 -353 q 964 -164 964 -251 q 1011 -19 964 -86 q 1147 94 1058 47 l 1206 14 q 1134 -60 1157 -19 q 1111 -140 1111 -100 q 1136 -201 1111 -181 q 1197 -222 1161 -222 q 1263 -212 1233 -222 q 1300 -204 1286 -204 q 1328 -217 1319 -204 q 1336 -257 1336 -231 q 1321 -306 1336 -286 q 1271 -339 1306 -326 q 1227 -349 1254 -344 q 1178 -353 1200 -353 z "},"Ů":{"ha":1236,"x_min":-1,"x_max":1415,"o":"m 461 -7 q 285 58 344 -7 q 225 231 225 122 q 243 379 225 292 l 329 776 q 342 838 332 788 q 353 946 353 888 q 340 996 353 979 q 304 1013 326 1013 q 207 973 263 1013 q 90 851 151 933 q 47 825 71 825 q 13 844 28 825 q -1 886 -1 863 q 38 983 -1 929 q 369 1178 179 1178 q 502 1126 454 1178 q 550 975 550 1075 q 540 844 550 904 q 507 682 531 785 l 450 428 q 440 383 447 415 q 429 323 433 351 q 425 267 425 294 q 450 196 425 222 q 521 169 475 169 q 690 258 604 169 q 848 545 775 347 q 961 1051 921 743 q 990 1150 971 1122 q 1063 1178 1008 1178 q 1135 1149 1111 1178 q 1158 1054 1158 1119 q 1149 956 1158 1017 q 1122 785 1140 894 q 1063 394 1085 572 q 1051 275 1051 314 q 1077 188 1051 218 q 1146 158 1103 158 q 1235 189 1192 158 q 1339 290 1279 219 q 1376 310 1356 310 q 1405 293 1394 310 q 1415 247 1415 276 q 1389 161 1415 193 q 1246 33 1317 74 q 1097 -7 1175 -7 q 921 52 982 -7 q 860 206 860 111 q 882 411 860 258 q 706 100 813 207 q 461 -7 600 -7 m 767 1267 q 640 1316 693 1267 q 588 1450 588 1365 q 615 1559 588 1513 q 687 1631 642 1606 q 783 1656 732 1656 q 910 1606 857 1656 q 963 1472 963 1557 q 935 1363 963 1410 q 863 1292 908 1317 q 767 1267 818 1267 m 772 1389 q 819 1410 800 1389 q 839 1465 839 1431 q 821 1515 839 1496 q 778 1533 803 1533 q 731 1513 750 1533 q 711 1457 711 1492 q 729 1408 711 1426 q 772 1389 747 1389 z "}}}
